<mxfile host="Electron" modified="2023-07-06T00:43:21.448Z" agent="Mozilla/5.0 (Windows NT 10.0; Win64; x64) AppleWebKit/537.36 (KHTML, like Gecko) draw.io/21.5.1 Chrome/112.0.5615.204 Electron/24.6.0 Safari/537.36" etag="jJedOv5b5zG9SoK5byl1" version="21.5.1" type="device">
  <diagram id="fzQWRsEVbXwtDmj6YFEz" name="Page-1">
    <mxGraphModel dx="2571" dy="1838" grid="1" gridSize="10" guides="1" tooltips="1" connect="1" arrows="1" fold="1" page="1" pageScale="1" pageWidth="1100" pageHeight="850" math="0" shadow="0">
      <root>
        <mxCell id="0" />
        <mxCell id="1" parent="0" />
        <mxCell id="OYFjvcsIQnCx_sZw_uyR-4" value="I need help with / am having issues with OpenSearch&amp;nbsp;" style="rounded=1;whiteSpace=wrap;html=1;fontSize=21;" parent="1" vertex="1">
          <mxGeometry x="10" y="370" width="290" height="70" as="geometry" />
        </mxCell>
        <mxCell id="OYFjvcsIQnCx_sZw_uyR-5" value="Performance" style="rounded=1;whiteSpace=wrap;html=1;fontSize=21;fontStyle=0" parent="1" vertex="1">
          <mxGeometry x="420" y="90" width="150" height="70" as="geometry" />
        </mxCell>
        <mxCell id="OYFjvcsIQnCx_sZw_uyR-14" value="" style="group" parent="1" vertex="1" connectable="0">
          <mxGeometry x="880" y="70" width="330" height="90" as="geometry" />
        </mxCell>
        <mxCell id="OYFjvcsIQnCx_sZw_uyR-6" value="Is your domain sized correctly?" style="rounded=1;whiteSpace=wrap;html=1;fontSize=21;" parent="OYFjvcsIQnCx_sZw_uyR-14" vertex="1">
          <mxGeometry x="20" y="20" width="310" height="70" as="geometry" />
        </mxCell>
        <mxCell id="OYFjvcsIQnCx_sZw_uyR-8" value="1" style="ellipse;whiteSpace=wrap;html=1;aspect=fixed;fontSize=21;" parent="OYFjvcsIQnCx_sZw_uyR-14" vertex="1">
          <mxGeometry width="40" height="40" as="geometry" />
        </mxCell>
        <mxCell id="OYFjvcsIQnCx_sZw_uyR-15" value="" style="group" parent="1" vertex="1" connectable="0">
          <mxGeometry x="1670" y="70" width="330" height="90" as="geometry" />
        </mxCell>
        <mxCell id="OYFjvcsIQnCx_sZw_uyR-12" value="Are your index shard counts optimized?" style="rounded=1;whiteSpace=wrap;html=1;fontSize=21;" parent="OYFjvcsIQnCx_sZw_uyR-15" vertex="1">
          <mxGeometry x="20" y="20" width="310" height="70" as="geometry" />
        </mxCell>
        <mxCell id="OYFjvcsIQnCx_sZw_uyR-13" value="2" style="ellipse;whiteSpace=wrap;html=1;aspect=fixed;fontSize=21;" parent="OYFjvcsIQnCx_sZw_uyR-15" vertex="1">
          <mxGeometry width="40" height="40" as="geometry" />
        </mxCell>
        <mxCell id="OYFjvcsIQnCx_sZw_uyR-16" value="How can I tell if my domain is sized correctly?" style="rounded=1;whiteSpace=wrap;html=1;fontSize=21;" parent="1" vertex="1">
          <mxGeometry x="900" y="220" width="310" height="80" as="geometry" />
        </mxCell>
        <mxCell id="OYFjvcsIQnCx_sZw_uyR-24" value="" style="endArrow=classic;html=1;rounded=0;fontSize=21;" parent="1" edge="1">
          <mxGeometry width="50" height="50" relative="1" as="geometry">
            <mxPoint x="310" y="400" as="sourcePoint" />
            <mxPoint x="480" y="180" as="targetPoint" />
          </mxGeometry>
        </mxCell>
        <mxCell id="OYFjvcsIQnCx_sZw_uyR-25" value="" style="endArrow=classic;html=1;rounded=0;fontSize=21;" parent="1" edge="1">
          <mxGeometry width="50" height="50" relative="1" as="geometry">
            <mxPoint x="600" y="120.41" as="sourcePoint" />
            <mxPoint x="860" y="120.82000000000002" as="targetPoint" />
          </mxGeometry>
        </mxCell>
        <mxCell id="OYFjvcsIQnCx_sZw_uyR-31" value="" style="endArrow=classic;html=1;rounded=0;fontSize=21;" parent="1" edge="1">
          <mxGeometry width="50" height="50" relative="1" as="geometry">
            <mxPoint x="1054.71" y="175" as="sourcePoint" />
            <mxPoint x="1054.71" y="205" as="targetPoint" />
          </mxGeometry>
        </mxCell>
        <mxCell id="OYFjvcsIQnCx_sZw_uyR-37" value="" style="endArrow=classic;html=1;rounded=0;fontSize=21;" parent="1" edge="1">
          <mxGeometry width="50" height="50" relative="1" as="geometry">
            <mxPoint x="1054.71" y="315" as="sourcePoint" />
            <mxPoint x="1054.71" y="345" as="targetPoint" />
          </mxGeometry>
        </mxCell>
        <mxCell id="OYFjvcsIQnCx_sZw_uyR-48" value="My domain is&amp;nbsp;&lt;span style=&quot;font-size: 16pt; line-height: 107%; font-family: Helvetica, sans-serif; background-image: initial; background-position: initial; background-size: initial; background-repeat: initial; background-attachment: initial; background-origin: initial; background-clip: initial;&quot;&gt;appropriately&lt;/span&gt;&lt;br&gt;provisioned. Resource utilization is within the&amp;nbsp;&lt;span style=&quot;font-size: 16pt; line-height: 107%; font-family: Helvetica, sans-serif; background-image: initial; background-position: initial; background-size: initial; background-repeat: initial; background-attachment: initial; background-origin: initial; background-clip: initial;&quot;&gt;recommended&amp;nbsp;&lt;/span&gt;thresholds" style="rounded=1;whiteSpace=wrap;html=1;fontSize=21;" parent="1" vertex="1">
          <mxGeometry x="1290" y="390" width="310" height="110" as="geometry" />
        </mxCell>
        <mxCell id="OYFjvcsIQnCx_sZw_uyR-50" value="" style="endArrow=classic;html=1;rounded=0;fontSize=21;" parent="1" edge="1">
          <mxGeometry width="50" height="50" relative="1" as="geometry">
            <mxPoint x="1610" y="440" as="sourcePoint" />
            <mxPoint x="1670" y="120" as="targetPoint" />
            <Array as="points">
              <mxPoint x="1640" y="440" />
              <mxPoint x="1640" y="120" />
            </Array>
          </mxGeometry>
        </mxCell>
        <mxCell id="OYFjvcsIQnCx_sZw_uyR-51" value="Networking" style="rounded=1;whiteSpace=wrap;html=1;fontSize=21;fontStyle=0" parent="1" vertex="1">
          <mxGeometry x="420" y="1418" width="150" height="70" as="geometry" />
        </mxCell>
        <mxCell id="OYFjvcsIQnCx_sZw_uyR-63" value="" style="group" parent="1" vertex="1" connectable="0">
          <mxGeometry x="900" y="330" width="383" height="230" as="geometry" />
        </mxCell>
        <mxCell id="OYFjvcsIQnCx_sZw_uyR-20" value="Use&amp;nbsp;&lt;span style=&quot;font-size: 16pt; line-height: 107%; font-family: Helvetica, sans-serif; background-image: initial; background-position: initial; background-size: initial; background-repeat: initial; background-attachment: initial; background-origin: initial; background-clip: initial;&quot;&gt;CloudWatch&amp;nbsp;&lt;/span&gt;metrics, alarms and&amp;nbsp;&lt;span style=&quot;font-size: 16pt; line-height: 107%; font-family: Helvetica, sans-serif; background-image: initial; background-position: initial; background-size: initial; background-repeat: initial; background-attachment: initial; background-origin: initial; background-clip: initial;&quot;&gt;recommended&amp;nbsp;&lt;/span&gt;thresholds to understand your domain&#39;s resource utilization (CPU, Memory ...)" style="rounded=1;whiteSpace=wrap;html=1;fontSize=21;align=center;" parent="OYFjvcsIQnCx_sZw_uyR-63" vertex="1">
          <mxGeometry y="30" width="310" height="190" as="geometry" />
        </mxCell>
        <mxCell id="OYFjvcsIQnCx_sZw_uyR-57" value="" style="group" parent="OYFjvcsIQnCx_sZw_uyR-63" vertex="1" connectable="0">
          <mxGeometry x="260" width="123" height="55" as="geometry" />
        </mxCell>
        <UserObject label="GitHub" link="https://github.com/ev2900/OpenSearch_CloudWatch_Alarms" linkTarget="_blank" id="OYFjvcsIQnCx_sZw_uyR-54">
          <mxCell style="text;html=1;strokeColor=none;fillColor=none;whiteSpace=wrap;align=center;verticalAlign=middle;fontColor=#0000EE;fontStyle=4;fontSize=21;" parent="OYFjvcsIQnCx_sZw_uyR-57" vertex="1">
            <mxGeometry x="63" y="7.5" width="60" height="40" as="geometry" />
          </mxCell>
        </UserObject>
        <mxCell id="OYFjvcsIQnCx_sZw_uyR-55" value="" style="dashed=0;outlineConnect=0;html=1;align=center;labelPosition=center;verticalLabelPosition=bottom;verticalAlign=top;shape=mxgraph.weblogos.github;fontSize=21;" parent="OYFjvcsIQnCx_sZw_uyR-57" vertex="1">
          <mxGeometry width="55" height="55" as="geometry" />
        </mxCell>
        <mxCell id="OYFjvcsIQnCx_sZw_uyR-66" value="" style="endArrow=classic;html=1;rounded=0;fontSize=21;" parent="OYFjvcsIQnCx_sZw_uyR-63" edge="1">
          <mxGeometry width="50" height="50" relative="1" as="geometry">
            <mxPoint x="314" y="110" as="sourcePoint" />
            <mxPoint x="384" y="110" as="targetPoint" />
          </mxGeometry>
        </mxCell>
        <mxCell id="OYFjvcsIQnCx_sZw_uyR-64" value="How can I tell if my domain is sized correctly?" style="rounded=1;whiteSpace=wrap;html=1;fontSize=21;" parent="1" vertex="1">
          <mxGeometry x="1690" y="220" width="310" height="80" as="geometry" />
        </mxCell>
        <mxCell id="OYFjvcsIQnCx_sZw_uyR-74" value="" style="endArrow=classic;html=1;rounded=0;fontSize=21;" parent="1" edge="1">
          <mxGeometry width="50" height="50" relative="1" as="geometry">
            <mxPoint x="1844.64" y="316" as="sourcePoint" />
            <mxPoint x="1844.64" y="345.9999999999998" as="targetPoint" />
          </mxGeometry>
        </mxCell>
        <mxCell id="OYFjvcsIQnCx_sZw_uyR-75" value="My index has too many (to small) or too few (to big) shards" style="rounded=1;whiteSpace=wrap;html=1;fontSize=21;" parent="1" vertex="1">
          <mxGeometry x="1690" y="650" width="310" height="110" as="geometry" />
        </mxCell>
        <mxCell id="OYFjvcsIQnCx_sZw_uyR-77" value="" style="endArrow=classic;html=1;rounded=0;fontSize=21;" parent="1" edge="1">
          <mxGeometry width="50" height="50" relative="1" as="geometry">
            <mxPoint x="1840" y="610" as="sourcePoint" />
            <mxPoint x="1840" y="640" as="targetPoint" />
          </mxGeometry>
        </mxCell>
        <mxCell id="OYFjvcsIQnCx_sZw_uyR-85" value="" style="endArrow=classic;html=1;rounded=0;fontSize=21;" parent="1" edge="1">
          <mxGeometry width="50" height="50" relative="1" as="geometry">
            <mxPoint x="1839.9999999999998" y="775" as="sourcePoint" />
            <mxPoint x="1839.9999999999998" y="805" as="targetPoint" />
          </mxGeometry>
        </mxCell>
        <mxCell id="OYFjvcsIQnCx_sZw_uyR-86" value="" style="group" parent="1" vertex="1" connectable="0">
          <mxGeometry x="1690" y="790" width="447" height="160" as="geometry" />
        </mxCell>
        <mxCell id="OYFjvcsIQnCx_sZw_uyR-80" value="Adjust the number of shards in the index" style="rounded=1;whiteSpace=wrap;html=1;fontSize=21;align=center;" parent="OYFjvcsIQnCx_sZw_uyR-86" vertex="1">
          <mxGeometry y="30" width="310" height="130" as="geometry" />
        </mxCell>
        <mxCell id="cGCoYNdKHb_dJwUcVTwO-9" value="" style="group" vertex="1" connectable="0" parent="OYFjvcsIQnCx_sZw_uyR-86">
          <mxGeometry x="305" y="-4.3700000000000045" width="123" height="55" as="geometry" />
        </mxCell>
        <UserObject label="GitHub" link="https://github.com/ev2900/OpenSearch_Index_Shard_Size#view-the--shards-size--for-an-existing-index" linkTarget="_blank" id="cGCoYNdKHb_dJwUcVTwO-10">
          <mxCell style="text;html=1;strokeColor=none;fillColor=none;whiteSpace=wrap;align=center;verticalAlign=middle;fontColor=#0000EE;fontStyle=4;fontSize=21;" vertex="1" parent="cGCoYNdKHb_dJwUcVTwO-9">
            <mxGeometry x="63" y="7.5" width="60" height="40" as="geometry" />
          </mxCell>
        </UserObject>
        <mxCell id="cGCoYNdKHb_dJwUcVTwO-11" value="" style="dashed=0;outlineConnect=0;html=1;align=center;labelPosition=center;verticalLabelPosition=bottom;verticalAlign=top;shape=mxgraph.weblogos.github;fontSize=21;" vertex="1" parent="cGCoYNdKHb_dJwUcVTwO-9">
          <mxGeometry width="55" height="55" as="geometry" />
        </mxCell>
        <mxCell id="cGCoYNdKHb_dJwUcVTwO-12" value="" style="group" vertex="1" connectable="0" parent="OYFjvcsIQnCx_sZw_uyR-86">
          <mxGeometry x="304" y="57.889999999999986" width="143" height="41.48000000000002" as="geometry" />
        </mxCell>
        <mxCell id="cGCoYNdKHb_dJwUcVTwO-13" value="" style="shape=image;verticalLabelPosition=bottom;labelBackgroundColor=default;verticalAlign=top;aspect=fixed;imageAspect=0;image=data:image/png,iVBORw0KGgoAAAANSUhEUgAABAAAAALECAYAAACWtEIbAAAABGdBTUEAALGPC/xhBQAAACBjSFJNAAB6JgAAgIQAAPoAAACA6AAAdTAAAOpgAAA6mAAAF3CculE8AAAABmJLR0QA/wD/AP+gvaeTAAA+OElEQVR42u3debyddX0v+s+TkYSEJMwCMikoQygOIKgoCtQKQe25wm3r1J7eg7WnMtwL4nmJYm/1GHvxJehtFduL1ZaeUw69t0pEegwoCCIoREkgYZ5kHjJCSAJZ949nLbPZZNjDmp5nvd+v13rttTdrr73W93kQv5/1+32fBAAAAAAAAACovkIJAKDUSGYmmTSCh05OMmMUTz17nP/NnZTytXXTmiQbRvk7q5K8NMrfWZlk41b++XNFst7ZCQACAADa3/wWzYa1ZUqS7Yd8v33zZ5trboc3qtOSbDfk+6EN9rb+zub+1uZ+b0t/a2vN9+b+FtWysRkebM7aJC9s4Z8t38LPX2j+3pB/JbJi2GOGBxzPJ1k35Pv1SZ7bxmtc0XzulqFBy/DHD33s6iQvtv5u8fK/CwACAIA+bbSnJpmeTZ8it5rmCUlmDWtwZzQflyRzml+Hfvo8tEFuNbpDm/ChTfEOSSYO+Ttp/rNpjgpU1rpmEJFmQLB60//UvCzAGLrSYmjo0ApLhj5+aICyfCs/GxqavOJnxZbDFgAEAAA9acZbDfIOzUZ6hyFN86zmz2Zuo0lvNd6zmv+89fhW8z49ZdO/pU+oAepsaFCwohk2tFZPtIKF1mNaqyg2NIOKVqjxUsoVGK1VEkMDi+XDnrsVdqwqRr8lBUAAANDDBn16yk+5ZzYb7O2a389oNuezs+kT9ZnNhnv4z6YM+d1pw5p9AOqtteJhVfPryiFBw3PN+yua/2z1kDBidfNnK4Y8vhVcrBzynC8UL98+AiAAAAamYZ/TbNBbTfrsId/PbDbdre9nNX/W+n72Zn7X/04BUKWgYXk2bc1Y0QwT1jZ/vrb585XNQGFtM0RYMyR0WN28vyZWMQACAKBDjfv0ZkM+/DZnCz+f1Wzmhzbx01USANqqtfpg5ZAAYcXQkKD5/erm96uH/Wz10McVLx9CCQgAgIo28LOS7NRs2LfWtLdus5u31veTVREAam/N8FBgSFDQuq0Ydn9l8+uKJCuLV14hAxAAAGNs5KcNaeI3d3tVkj2G/WxnDTwA0EUvpNzWsLnb2m3886eKTVeiAAQAUItGfmKzMd8lya5Jdkv5Cf2OW7ntlHKKPABAna1shgHPDLk927xt7v4zSZ61hQEEANDNpn5Ws5HfpXnbrdncD23ydxly8+8YAED7PLOVkODZJE8leaL59akkTxflZSEBzQkkjbJp3y3JXlto5Ic2+VNVDACgMjYODQOSPNb8+lSSJ4eFBY8X5VwEEABABRv7HZpNfWvP/J7N+62veyXZPeX14AEAYN2QQODRJI8neaQZHDzS/NmjSZ6wsgABAHSnsZ+acq98q7Ef+nX/5v09Uk64BwCATljeDAYe3czX+5r3HxcUIACArTf42zUb+P2H3VpN/n7OXQAAKmB9kt8MCQRa4UDr9mCRvKRMCACoc4M/K8m+SfZpft132Pc7qhIAAANgXZKHkjzYvD0w5Os9RRkagACAvm7wJzUb+dclOWAzDf5sVQIAgG1ameTOJMuatzuTLE1yb1GuLgABAF1r9HdN8vokBw65vT7lEn2D9QAAoDNeTLmFYGgwcHuSxUXyvPIgAGCsTf70YQ3+65q3A1Mu5QcAAPrDS0nuSvKr5u2WJL9weUMEAAxv9HdIcmiSuc1b65P9vZwnAABQ6VDgjiQ/a96uK8oZAwgAGIBGf1KzuT80yWHNZv/QlHvzAQCA+rs7ycLm7d+L5DklEQBQ/WZ/crO5f2OSNzW/HpZkmuoAAAApZwb8IMm/JPmhGQICAKrT8M9I8p4kJzQb/sNiGB8AADAya5Nck+SKJFcUyaNKIgCgv5r+XZP8XpJTmo3/VFUBAADa4I5mGLAgyQ1F0lASAQDdb/oPT/K+5u2NjiMAANBhDyf570n+oSiDAQQAdLDp3zHJB5N8ImUAAAAA0Au3JPnHJJcWydPKIQCgPU3/xCTvSnJakg+kHOoHAADQD9Yl+X4zDPhhkbyoJAIARt/4H5LkT5N8KOUefwAAgH72cJKvJ/lWkaxUDgEA2278357k3CQnOTYAAEAFrU7y7SRfKZKHlEMAwMub/gnNhv+8JEeqCAAAUAMbk1yZ5K+K5GblEAAMeuM/M8l/SnJGkr1VBAAAqKkfJflikVyrFAKAQWv8ZyT5P5KcmWS2igAAAAPiyiT/pUhuUwoBQN0b/8lJ/iTJXybZXUUAAIDBbI1yeTMIuFc5BAB1O7uLJB9M8l+TvFZFAAAAsiHlsMDPFckTyiEAqEPzf3yS+UnepBoAAACvsKrZM32lSNYrhwCgio3/fimvgXmSagAAAGzTHUk+XiTXK0XnTFCCtjb+kxrlVP/bNP8AAAAjdnCS6xrJdxvJzsrRGVYAtK/5f1OSi2O5PwAAwHg8m+S/JPm7ohwaiACgbxr/2Um+lOS0WFEBAADQLj9K8glXCxAA9Evz/x+S/E1c1g8AAKATVif5ZJF8RynGzyfWY2v8pzWSi5L8q+YfAACgY2Ym+YdGcnkjmaMc42MFwOib/0OT/HOSuaoBAADQNQ8l+XCR/FQpxsYKgJE3/kVzwv8vNf8AAABdt3eSHzeS+Y1ksnKMnhUAI2v+d0/yD0neoxoAAAA9d32SPyiSR5RCANDO5v+dSS5LsqtqAAAA9I1Hk/x+kdysFCNjC8DWm//TkvxPzT8AAEDf2SPJdY3kY0ohABhP4z+pkcxPcnGSKSoCAADQl6amvErARY1konJsnS0Ar2z+d0y55P841QAAAKiMq1LOBVipFAKAkTT/hyT5fpL9VQMAAKBy7khycpHcpxSvZAvApub/95LcqPkHAACorIOTXN9IDlUKAcCWmv/3J/m3JDNVAwAAoNJelXI44NFKIQAY3vx/JMnlKYdHAAAAUH1zkvyokZygFAKAVvP/ySTfSTLJqQAAAFAr2ye5opH8B6UY8ACgkZyb5GsxCBEAAKCupia5rJH8sVIMYPPbKEOPi5L8hcMPAAAwEDYm+U9FcokAYLACgK8mOdP5DwAAMFBeSvKhIvkXAcBgNP9fSvJp5z0AAMBA2pDkA0VypQCg3s3/mSk//QcAAGBwrU3ye0VynQCgns3/J5L8rfMcAACAJKuSvLtIbhEA1Kv5/1CS72bAL3kIAADAyzyV5J1FslQAUI/m//1JLk8yybkNAADAMA8lObJInhAAVLv5f0OS65NMd04DAACwBTcmeVeRrKv7G63lsvhGsnuS72v+AQAA2Iajk3xrEN5o7QKARrJdkv8vyV7OYwAAAEbgo43krLq/ydptAWgkf5/kT52/AAAAjMLGJO8rkh8IAKrR/H8qyZedtwAAAIzBqiRvLZLbBQD93fyflOR7SSY6ZwEAABiju5IcUZRhQK3UYgZAI9k/yaWafwAAAMbpwCR/U8c3VvkAoJFMSvJPSWY5TwEAAGiDDzeSDwkA+s9fprxsAwAAALTLNxvJAXV6Q5WeAdBI3pHkmlj6DwAAQPv9IsnbimRDHd5MZVcANJI5Sf5R8w8AAECHHJHks3V5M5VdAdBI/iXJqc5HAAAAOmhjkhOKcvW5AKAHzf/Hk3zTeQgAAEAXPJjkkCJ5rspvonJbABrJq5P8X84/AAAAumSfJJ+v+puo3AqARvJvSd7v/AMAAKCLXkxyZJEsquobqNQKgEby+5p/AAAAemBSkosbFR5EX5kAoJHMTPI15xwAAAA9ckSSTwgAOu+vkuzlfAMAAKCH/mujor1pJWYANJI3JbkpFV5qAQAAQG38a5F8UADQ/uZ/YpKbk7zROQYAAECfOKFIFlbpBVdhC8DHNP8AAAD0mQsaFRus39crABrJdknuTLK3cwsAAIA+80dF8t+q8mL7Pa04XfMPAABAn/piI5kiABinRjI7ybnOJwAAAPrUfklOEwCM339JsqPzCQAAgD72uUaygwBgjBrJnkn+wnkEAABAn9slyf9ehRfal0MAG8nfJ/lT5xEAAAAVsDrJvkXybD+/yL5bAdBI9k156T8AAACogplJPtHvL7IftwCclWSS8wcAAIAKOb2RTBMAjFAjmZPkPzpvAAAAqJhdk3xYADByn0gyw3kDAABABZ3d6OOr7fXNEMBGMjXJ/Ule5ZwBAACgoj5QJN/rxxfWT8nEhzX/AAAAVNw5/frC+mIFQKN8HUuSHOxcAQAAoOLeWiQ39tuL6pcVAL+n+QcAAKAm+vKSgP0SAPyp8wMAAICa+GAjmS0AGKaR7JRknvMDAACAmpiW5IMCgFf6UMorAAAAAEBd/Em/vaCeDwFsJIuSHO7cAAAAoGYOKpJl/fJieroCoJHM1fwDAABQUx/rpxfT6y0A/5vzAQAAgJr640YyaeADgEYyJckfOR8AAACoqd2T/O7ABwBJ3pNkZ+cDAAAANfb7AoDk/c4DAAAAau59jf64Al9vXkTzzZ/kPAAAAKDmdk3yloENAJIcmXIvBAAAANTd+wY5ADjZ8QcAAEAAIAAAAACAuji4kRw4cAFAI9knyVzHHwAAgAHS8w/Ce7EC4H2OOwAAAANm3iAGAO9x3AEAABgwRzeSqQMTADSSIn1y+QMAAADooqlJ3jwwAUCS1yTZ2XEHAABgAL19kAIAn/4DAAAwqN4mAAAAAIABCAAavZnFJwAAAACALtoxyetrHwA0kilJfsfxBgAAYID1bA5AN1cAHJ4eX/IAAAAAeqxncwC6GQBY/g8AAIAAQAAAAAAAtfeaRrKHAAAAAADq7621DQAayZwkr3GMAQAAoDfbALq1AuANSQrHGAAAAHJknQOAwx1fAAAASJK8sZFMFgAAAABAvW2X5GABAAAAANTfEbULABrJ1CSvd2wBAACgxgFAkrnpwd4GAAAAEAB0NwA43HEFAACAlzm0kUwTAAAAAEC9TU7yOwIAAAAAqL+ubgPoaADQSIqUMwAAAACAugYASV6bZAfHFAAAAOodABzmeAIAAMBmHdjo4ofmnQ4ADnE8AQAAYIs9+eECAAAAAKi/rl0JQAAAAAAAAoCxa5TXNDzAsQQAAIAaBwDN5n+KYwkAAABbdEgjmVT1AMDyfwAAANi6aenS6vlOBgAHO44AAACwTV3ZBmAFAAAAAPTWYQIAAAAAqL+urAAoOvGkzSsArIkhgAAAALAtjxTJXp3+I51aAeAKAAAAADAyezaSnasaAFj+DwAAACPX8TkAnQoADnLsAAAAYMQ6Pgegk1sAAAAAgJGZW9UA4EDHDgAAAEas4yvpO3UVgGeS7Oj4AQAAwIisSjK7SBqd+gNtXwHQSHbR/AMAAMCo7JBkj07+gU5sAbD8HwAAAEavo9sABAAAAADQHw6uWgDgCgAAAAAwepVbASAAAAAAgNGr3AoAWwAAAACgzwKAtl4GsFE+35ok0x03AAAAGLVdi+SpTjxxu1cAvFrzDwAAAGPWsTkA7Q4A7P8HAACAsevYNoB2BwCvdawAAACg/gHA/o4VAAAAjFlltgAIAAAAAGDsOnZlvXYHAPs5VgAAADBmezWSaVUIAKwAAAAAgPH16ft36onbopHMSjLHsQIAAIBx6cgV9tq5AuA1jhEAAACMW0eusNfOAMD+fwAAABi/vl8BYP8/AAAADEAAYAUAAAAAjF/fbwGwAgAAAADGryOXArQCAAAAAPpLkQ4M2m9LANAon2cfxwgAAADaou1zANq1AmDPJFMdHwAAAKh3ALCvYwMAAAD1DwBe7dgAAABA/QMA+/8BAACgfdo+aN8KAAAAAOg/ezaSyQIAAAAAqLeJ7e612xUA7O3YAAAAQFu1dRuAFQAAAADQn/btqwCgkcxIMsdxAQAAgBoHALH8HwAAAAYiALD8HwAAANqv72YAWAEAAAAA7bdvvwUAVgAAAABA++3RSLbrpwDACgAAAABov6KdPbcVAAAAANC/9u2nAGAvxwMAAAA6om2DANsRAOzpeAAAAEBH7NMXAUAj2SHJ9o4HAAAAdMS+fREAxPJ/AAAA6KS2zd0bbwCwh2MBAAAAHdO2D94FAAAAANC/9my0Z36fAAAAAAD62OQku/VDAPAqxwIAAAA6qi3bAKwAAAAAAAGAAAAAAAB6rC1XAhAAAAAAQH/r7QqARlIk2d1xAAAAgBoHAEl2SrKd4wAAAAD1DgAs/wdgdN7xjmTnndUBAGB0ej4DQAAAwOiceGJy993JuecmU6eqBwDAyOzZGP8Mv3E9gf3/AIze7NnJ/PnJ4sXJKaeoBwDAtk1OsqsAAIBqOuCA5LLLkoULk7lz1QMAYOvGvQ1gPAHAruoPwLgdd1xy663JxRcnu/pPCwDAFuzZywBgN/UHoC0mTUpOOy1ZtqycDzBlipoAALzcqwQAANTHnDmb5gPMm6ceAACbjHsbvgAAgP5z4IHJFVckP/pRcuih6gEA0OMVADZqAtBZxx+fLFpUzgfYZRf1AAAGWW9WADSSiUl2Un8AOm7ofIAzzii/BwAYPD1bAbBzyhAAALpjxx2TCy9MlixJTjxRPQAAAUCXAgD7/wHojde9LvnBD8r5AIccoh4AwKDYrTG+bfxj/mX7/wHoraHzAXbeWT0AgLqblHI1ftcDACsAAOi9yZPL+QB33mk+AAAwCMY1CNAKAACqrzUfYPHi5L3vVQ8AoK7GNQfACgAA6uP1r0+uvLKcD3DwweoBAAgA2hAAWAEAQP86/vjkV79KLroomTVLPQCAurAFAABeYfLk5PTTk3vvLecDTHT1WgCg8nqyAmAXdQegEnbaadN8gPe8Rz0AgCrryQqAndQdgEo56KDkqquSK65I9t9fPQCAKrICAABGbN68ZOnScj7ADjuoBwBQJePajj/qAKCRTE4yU90BqKwpU8wHAACqaFwfxo9lBcDOSQp1B6Dydt65nA9w883JO96hHgBAv5vTSCZ1OwAAgPp44xuTa68t5wPst596AAD9qsg4ZvIJAACgZd68ZNky8wEAgH425m0AYwkAXAEAgPpqzQdYujQ57bRkwgQ1AQAGNgCwAgCA+ttjj+Tii8v5AMccox4AgAAAAGrtTW9KrruunA+w777qAQD02pgvBWgLAACMxLx5yR13JPPnJzNdDRcA6BkrAACg46ZNS849txwUaD4AACAAAICaa80HuOmm5G1vUw8AoLYBgC0AAJAkb35z8tOfJpddluyzj3oAALULAKwAAICWokhOOWXTfIAZM9QEAKhNALCjegPAMNOnb5oP8NGPlsEAAEBVA4BGMinJDuoNAFuw557Jd75Tzgd461vVAwBotx0bycSOBwBJZiXxkQYAbMsRRyTXX1/OB9h7b/UAANplYpI53QgALP8HgJFqzQdYujT5/OfLywgCAIzfmHrz0QYAs9UZAEZp+vTk/POTu+4yHwAAqEwAMEedAWCM9tqrnA9w443JUUepBwAgAACAWnvLW5Kf/Sz57neT3XdXDwBAAAAAtVUUyUc+ktxzTzkfYLvt1AQAEAAAQG1tv/3L5wMAAHSoNzcEEAD6watfXc4H+PGPk8MPVw8AoOcBgBUAANBJxx6b3HJLOR9gt93UAwDYHFsAAKAWJkx4+XyAqVPVBAAQAABAbc2YUc4HWLIkOeUU9QAAuhoAzFZnAOiy1742ueyy5JprksMOUw8AwAoAAKi1d70rWbSonA+w667qAQACAAEAANRWaz7AnXcm555rPgAADKY5jaToWADQfPId1BkA+sDs2cn8+cnixeYDAMDgmTSW/nw0KwBmJJmozgDQRw44oJwPsHBhMneuegDA4Bj1NoDRBAAz1RcA+tRxxyW33ppcfHGyyy7qAQD1N7uTAcAs9QWAPjZpUnLaaZvmA0yZoiYAUF8d3QJg/z8AVMGcOZvmA8ybpx4AUE+j/pDeCgAAqKsDD0yuuCL50Y+SQw9VDwAQAIyYFQAAUEXHH58sWmQ+AADUiy0AAMBmtOYDLFuWnHFG+T0AUGVWAAAAW7HjjsmFFyZLliQnnqgeACAAEAAAQK297nXJD35Qzgc45BD1AIDqsQUAABiF1nyAiy5KZs9WDwCoDisAAIBRmjw5Of305N57zQcAAAGAAAAAaq81H2Dx4uS971UPABAAAAC19vrXJ1deWc4HOOgg9QCA/mQGAADQJscfn/z61+V8gFmz1AMA+ktHVwD4Lz8ADJrh8wEmTlQTABiAAGCm+gLAgNppp03zAd7zHvUAgN6b2RhdTy8AAABG4aCDkquuSq64Itl/f/UAgN6ZkGT7TgUA26svAJAkmTcvWbq0nA+wgzFBANAjo9oGMKIAoJFMSjJVbQGA35oyxXwAAOitGW0PAEb7pADAANl553I+wM03J+94h3oAQPd0ZAuA5f8AwNa98Y3JtdeW8wH22089AKDzrAAAAHpo3rxk2TLzAQCgogGAFQAAwMi15gMsXZqcdloyYYKaAEBFAgArAACA0dtjj+Tii8v5AG9/u3oAQAUCACsAAICxe9Obkp/+tJwPsO++6gEAfRwAWAEAAIzfvHnJHXck8+cnM2eqBwD0YQBgBQAA0B7TpiXnnlsOCjQfAADGw2UAAYAKaM0HuOmm5G1vUw8A6JMAwBYAAKAz3vzmcj7AZZcl++yjHgAwcrYAAAAVUxTJKadsmg8ww2cPACAAAADqa/r0TfMBPvrRMhgAALoaAIjhAYDu2XPP5DvfKecDHH20egBAFwOA6eoKAHTdEUckN9xQzgfYe2/1AIAuBADT1BUA6InWfIClS5PPf768jCAA0LEAwAoAAKC3pk9Pzj8/uesu8wEAoDSqVNwKAACgWvbaq5wPcOONyVFHqQcAAgABAABQa295S/KznyXf/W6y++7qAYAAQAAAANRWUSQf+Uhyzz3lfIDttlMTAAbJqP7DJwAAAKpv++1fPh8AAAbDxEYyRQAAAAyeV7+6nA/w4x8nhx+uHgAMghGvAhAAAAD1c+yxyS23lPMBdttNPQCosxH36wIAAKCeJkx4+XyAqVPVBAABwNY0kiKjHCwAANA3Zswo5wMsWZKccop6ACAA2IqpGflKAQCA/vTa1yaXXZZcfXVy2GHqAYAAYDxPBgDQ99797mTRonI+wK67qgcAAgABAABQW635AHfemZx7rvkAAFRZW68CIAAAAOpp9uxk/vxk8WLzAQCoKisAAABG7IADyvkACxcmc+eqBwACAACAWjvuuOTWW5OLL0522UU9ABi4AMAlAAGAwTFpUnLaaZvmA0yZoiYADEwA4L96AMDgmTNn03yAefPUA4B+1dYhgMbiAgCD68ADkyuuSH70o+TQQ9UDgH4z4g/tBQAAACNx/PHJokXmAwBQ6wDAFgAAgGTTfIBly5Izzii/B4AaBQBWAAAADLXjjsmFFyZLliQnnqgeANQmALACAABgc173uuQHPyjnAxxyiHoAUPkAwAoAAICtac0HuOiiZPZs9QCgm0bcs1sBAADQDpMnJ6efntx7r/kAAHSTFQAAAD3Rmg+weHHy3veqBwCVCgCsAAAAGK3Xvz658srkiiuS17xGPQAQAAAA1Nq8ecnSpeV8gFmz1AOAdmvrDABbAAAAxmP4fICJE9UEgHaxAgAAoO/stFM5H+C225L3vEc9AOi7AMAKAACAdjr44OSqq8r5APvvrx4A9E0AYAUAAEAnDJ0PsMMO6gHAWLR1BoAAAACgU6ZMMR8AgHH9l0QAAABQJTvvXM4HuPnm5B3vUA8ARqqtKwAmqScAQJe88Y3JtdeW8wH22089ANiWES8dEwAAAPSjefOSZcvMBwCgbT27AAAAoF+15gMsXZqcdloyYYKaADBcW1cATFZPAIAe2mOP5OKLy/kAb3+7egAwlBUAAAC186Y3JT/9aTkfYN991QOAxAwAAIAamzcvueOOZP78ZOZM9QAYbFYAAADU2rRpybnnmg8AgBUAAAADYc89y/kAN92UvO1t6gEweKwAAAAYKG9+czkf4LLLkn32UQ+AweEqAAAAA6coklNO2TQfYMYMNQGoPysAAAAG1vTp5XyAZcuSj360DAYAqCszAAAABt6eeybf+U7y858nRx+tHgACAAEAAECtHXlkcsMN5XyAvfdWD4CaBQCNZERLvQQAAACDoDUfYOnS5POfT7bbTk0AahQCCAAAAHi56dOT889P7r7bfAAAAcAruAoAAEDd7LVXOR/gxhuTo45SD4BqG9EH9xPa9BgAAKroLW9Jfvaz5LvfTXbfXT0ABjwAmKiWAAA1VhTJRz6S3HOP+QAANTaSAMDGMACAQbD99uV8gLvuKucDAFAVbbsKgC0AAACD5NWvLucD/PjHyeGHqwfAAAUAVgAAAAyiY49NbrmlnA+w227qATAAAYAVAAAAg2rChJfPB5g6VU0ABAAAANTWjBnlfIAlS5JTTlEPgAqyBQAAgJF77WuTyy5Lrr46Oeww9QDoD1YAAADQIe9+d7JoUTkfYNdd1QOgJgGAFQAAAGzm/0k25wPceWdy7rnmAwAIAAAAqLXZs5P585PFi80HAKhqANCw/B8AgJE64IByPsDChcncueoBUKUAIAIAAABG67jjkltvTS6+ONllF/UAqEgAYPk/AACjN2lSctppm+YDTJmiJgB9HgBYAQAAwNjNmbNpPsC8eeoB0McBgBUAAACM34EHJldckfzoR8mhh6oHQA9YAQAAQPccf3yyaFE5H2DnndUDoD2sAAAAoA8NnQ9wxhnl9wD0PABoqCMAAAD0tY0jeZC4FQCA7tqwIfn2t5PPfCZ5+mn1AOiTAMAKAAAA2mfhwuSss5IlS9QCoMsBgC0AAAB03p13JiefnJxwguYfoEcBgC0AAAB0zvLlyZe/nHz1q8n69eoB0McBgBUAAACM3osvJpdckpx3XvLUU+oB0Fkj6t0FAAAAtNfVV5f7/BcvVguA7jADAACALrr77uTUU5Pjj9f8A/RhAGAGAAAA47NiRTJ/fnLhhcm6deoBUNEAwAoAAAC28H83NyaXXpqcfXby5JPqASAAAACgdq65ptznf9ttagFQkQBggjoBADBi99xT7vM/7jjNP0DFAgArAAAA2LY1a5KvfCX50pfs8wcQAAAAUL//S9nc53/OOckTT6gHQI0DAAAABtVPfpKceWby61+rBUAfK9oxA6CwAgAAYPA8/HDysY8l73qX5h+g/424b580wicr1BQAoOaeey654IJk/vzkhRfUA6AaXmpnALAxyUQ1BQCoqdY+/099Knn8cfUAqJYN7QwAXhIAAADU1E03lfv8f/5ztQCophdH+sAJ7XwyAAAqorXP/+ijNf8AAxIAjHQFAAAAdWCfP0DdtH0LAAAAVdZoJJdfnpx9dvLQQ+oBUB9WAAAA0HTzzeU+/xtvVAuAAQ4ARjIDQAAAAFBFv/lNuc//qKM0/wD1ZQsAAMDAev755OtfT77whWTNGvUAqLe2bgFwFQAAgCpo7fM/55zkwQfVA0AAMOoAwAoAAIB+94tfJGedldxwg1oADJYRbwEwAwAAoMoeeST5+MfLff6af4BBZAUAAECtrV2bfO1ryRe/mKxerR4Ag8sQQACA2lqwIPnkJ5MHHlALAFwGEACgdm65JTnmmOTkkzX/AHQkAHAVAACAXnr00XKf/5FHJtdfrx4ADGULAABA5dnnD8C2tXUIoBUAAADdtmBBcvrpyf33qwUAW7N+pA8cyRaADeoJANAlt96avPOd5T5/zT8A27ZOAAAAUCWPPbZpn/9116kHAG0PAEayBWC9egIAdMj69ck3v5l89rPJqlXqAUBPAwArAAAAOmHBguSMM5L77lMLADoeAIxkC4AVAAAA7bRoUXLsseU+f80/AAIAAICaeeaZ5MwzkyOOSK69Vj0A6GoAYAsAAECnbdiQfOMbyec+l6xcqR4A9G0AYAUAAMBYLVhQfup/771qAUBPAwBbAAAAOmHp0uS97y33+Wv+AeicF9oZANgCAAAwUs8+W37iP3ductVV6gFAp9kCAADQVa19/uefn6xYoR4ACAAAAGpn4cLyU//bb1cLAPo2ALAFAABgrJYtS046KTnhBM0/AAIAAIDaGbrP/8or1QOASgQAtgAAAIzUhg3Jt7+dfOYzydNPqwcAAgAAgNpZuDA566xkyRK1AKCSAcBItgAIAACAwXXXXcnJJ5f7/DX/APSftSN94EhWAKxTTwBg4Cxfnnz5y8lXv5qs93kIAH3r+XYGAGvVEwAYGC++mFxySXLeeclTT6kHAAMVALygngDAQLj66nKf/+LFagFAVYz4Q/uRzAAQAAAA9Xb33cmppybHH6/5B6BqrAAAANimFSuS+fOTCy9M1hl7BEAltXUIoAAAAKiXjRuTSy9Nzj47efJJ9QCgqjYUyYZ2BgCGAAIA9XHNNeU+/9tuUwsAqm5U/boZAADAYLjnnnKf/3HHaf4BqIvnR/NgWwAAgHpbsyb5yleSL33JPn8A6mZUKwAEAABAPbX2+Z9zTvLEE+oBQB21fQWAGQAAQLX85CfJmWcmv/61WgAgAGgyAwAAqI+HH04+9rHkXe/S/AMwCNq7BaBI1jWSjRlZWAAA0H3PPZdccEEyf37ygs8uABgYbd8CkCTrkkxTWwCgr7T2+X/qU8njj6sHAIOm7UMAk3IbgAAAAOgfN91U7vP/+c/VAoBB1fYZAIlBgABAv/jNb8p9/kcfrfkHQAAwCiNdASAAAAB6yz5/ABhudScCgOfVFQDoiUYjufzy5Oyzk4ceUg8AEAAAALVz883lPv8bb1QLAHilNaN58EhnADynrgBA17T2+R91lOYfANoUAIx0BYAAAADovOefT77+9eQLX0jWrFEPANi6jmwBEAAAAJ3T2ud/zjnJgw+qBwCMjBUAAECF/OIXyVlnJTfcoBYA0MEAwAwAAKA3Hnkk+fjHy33+mn8AGAtbAACAPrZ2bfK1ryVf/GKyerV6AMDYdWQLgMsAAgDjt2BB8slPJg88oBYAMH6jStJtAQAAOu+WW5JjjklOPlnzDwDtYwYAANAnHn203Od/5JHJ9derBwD0MAAwAwAAaL/165NvfjM57zz7/AGgM14okg0CAACgdxYsSE4/Pbn/frUAgM5ZM9pfsAUAAGiPW29N3vnOcp+/5h8ABAAAQM089timff7XXaceANAdo95j5zKAAMDYtPb5f/azyapV6gEA3bWyUwGA6T0AwCYLFiRnnJHcd59aAEBFAoCRbgEQAAAAyaJFybHHlvv8Nf8A0EsrBAAAQPs980xy5pnJEUck116rHgDQe53ZAlAkaxvJ+iRT1BgABsiGDck3vpF87nPJypXqAQB1DwCa1iTZUY0BYEAsWFB+6n/vvWoBADUIACaM4rHG+wLAIFi6NDnxxHKfv+YfAAQAAEDNPPts+Yn/3LnJD3+oHgBQswBgNFsADAIEgDpq7fM///xkxQr1AAABgBUAAFA7CxeWn/rffrtaAEDNAwBbAABgEN15Z3LSSckJJ2j+AUAAIAAAgNpp7fM/9NDkyivVAwAGKAAwAwAABsGGDcm3v5185jPJ00+rBwBU3woBAADwcgsXJmedlSxZohYAUA8bk6wZ7S/ZAgAAdXXXXcnJJ5f7/DX/AFAnq4qkMdpfchUAAKib5cuTL385+epXk/Xr1QMAahgAjOWXbAEAgLp48cXkkkuS885LnnpKPQCgvp7pdACwUo0BoE9dfXW5z3/xYrUAgPpbPpZfGs0MgBVqDAB95u67k1NPTY4/XvMPAIOj4ysABAAA0C9WrEjmz08uvDBZt049AGCwPNvpAGC5GgNAj23cmFx6aXL22cmTT6oHAAgABAAAUDvXXFPu87/tNrUAgMHW2RkARbI+yVp1BoAuu+eecp//ccdp/gGApAsrAJIyZZim1gDQBWvWJF/5SvKlL9nnDwD0JADYQ60BoINa+/zPOSd54gn1AAB6EgCsUGcA6KCf/KTc5/+rX6kFANDWAGDCKB9vECAAdMLDDycf+1jyrndp/gGAjgQAVgAAQC8991xywQXJ/PnJCy+oBwDQNwGAFQAA0A6tff6f+lTy+OPqAQCM1AvFGK/QZwUAAHTbTTclZ56Z/PznagEAjNYzY/3F0c4AEAAAwFj95jflPv+jj9b8AwBj9exYf9EWAADoNPv8AYD2GXNfbgsAAHRKo5Fcfnly9tnJQw+pBwDQDk91KwCwAgAARuLmm8t9/jfeqBYAQDs9PdZfHO0MgGfUGgC2orXP/6ijNP8AQCc8OdZfHO0KAAEAAGzO888nX/968oUvJGvWqAcA0Cld2wLwdJJGkkLNASCb9vmfc07y4IPqAQD0bQAwqi0ARbI+yWr1BoAkv/xlcswxyamnav4BgHoFAE22AQAw2B55JPn4x5O3vCW54Qb1AAC6acxDACeN8Y/tp+YADJy1a5OvfS354heT1RbEAQA90bUZAK0AAAAGy4IFySc/mTzwgFoAAL3UtcsAJrYAADBIbrml3Od/8smafwCg11Y2Z/N1LQCwAgCA+nv00XKf/5FHJtdfrx4AQD94ajy/PJYtAFYAAFBf69cn3/xmct559vkDAAMfAFgBAEA9LViQnH56cv/9agEA1C4AMAMAAG69NXnnO8t9/pp/AEAA8FtWAABQD08/nZx5ZrnP/7rr1AMAqHUAYAsAAIOntc//s59NVq1SDwCgKsbVjwsAABgsCxYkZ5yR3HefWgAAVfPYeH55rDMAGuoOQKUsWpQce2y5z1/zDwBU0xNdDQCKZH2SleoOQCU880y5z/+II5Jrr1UPAKDKxrUCYNIYf++JJLPVHoC+tWFD8o1vJJ/7XLJSbg0A1MLjvQoAXqf2APSlBQvKT/3vvVctAIC6WJdk+XieYMIYf+8JtQeg7yxdmpx4YrnPX/MPANTLE8U45/EJAACovmefLT/xnzs3+eEP1QMAqKPHx/sE49kCAAC91drnf/75yYoV6gEA1Nlj430CAQAA1bRwYfmp/+23qwUAMAjGvQLAFgAAquXOO5OTTkpOOEHzDwAIAAQAANROa5//oYcmV16pHgDAoBl3H24LAAD97cUXk0suST7zmeTpp9UDABhUhgACUGMLFyZnnZUsWaIWAMCgG/cQwDFtASiStUlWqz8AHXHXXcnJJ5f7/DX/AABJD2cAJFYBANBuy5cnn/50MndusmCBegAAtLEHnzTOP/5axwCAcWvt8z/vvOSpp9QDAODlnm2uxO9ZAPCkYwDAuF19dbnPf/FitQAA2LzftONJxrMF4DHHAIAxu/vu5NRTk+OP1/wDAGzdI+14kkm9fgEADJgVK5L585MLL0zWrVMPAIAKBACPOgYAjMqVVyYXXJA8/bRaAABUKACwAgCA0bnuOjUAABi9ns8AsAIAAAAAOq8tH8BP6PULAAAAALaqtysAimRFkuccBwAAAOionq8ASFwKEAAAADppbZE82w8BgG0AAAAA0Dlt67sFAAAAACAA2CZXAgAAAIDO+U27nkgAAAAAAP3LFgAAAAAYAG374N0KAAAAAOhfD/ZLAGAFAAAAAFQgACjG88uNZEqStRl/kAAAAAC80k5F8mw7nmhcjXuRrE/yhOMBAAAAbbemXc3/uAOApoccEwAAAGi7B9v5ZBP67QUBAAAA/RkAWAEAAAAAAgAAAACg1/22LQAAAADQn6wAAAAAAAFA9wMAKwAAAACgzwOAoh1P0khWJtnBsQEAAIC2WJ9kWpFsbNcTTmjT8zzs2AAAAEDb/KadzX87AwDbAAAAAKB92t5nCwAAAABAADBitgAAAABA+9zbrwHAA44NAAAAtM19/RoA3OfYAAAAQNv07QqAex0bAAAA6N8AoGjXEzWSFUlmOUYAAAAwLquLZId2P+mENj6XbQAAAAAwfh1ZZT+h318gAAAACAAEAAAAAFA3HVlhbwsAAAAA9BcrAAAAAGAA9P0KAAEAAAAA9Gl/3c7LAE5M8nySKY4VAAAAjMmLSaYXyYZ2P3HbVgAUyUtJHnSsAAAAYMwe6kTz39YAoOkexwoAAADGrGPb69sdALgSAAAAAIzdXVUJAKwAAAAAgLG7syoBwF2OFQAAANQ/AFjmWAEAAED/BQBFO5+sUQYKzyXZzjEDAACAUVmbZEaRbOzEk7d1BUDzRd7tmAEAAMCo3d2p5r/tAUCTbQAAAAAwend28sknVO0FAwAAgABAAAAAAAACgC4FALYAAAAAQJ8FAEW7n7CRzEiyqhPPDQAAADU2p0hWdOrJ274CoEjWJHnUcQMAAIARe7yTzX9HAoAm2wAAAABg5Do+T08AAAAAAAKA/n3hAAAAUCO3VzUAuN2xAwAAgBFbUtUA4DbHDgAAAEasmisAiuTpJI87fgAAALBNTxfJE5UMAJoWO4YAAACwTV3ZRi8AAAAAAAGAAAAAAAAEAAIAAAAAqEQAUHTqiRvJdknWJJnoWAIAAMAW7dIcpt9RHVsBUCQvJLnHcQQAAIAteqIbzX9HA4Am2wAAAABgy5Z06w8JAAAAAKB3bu/WHxIAAAAAgABg3G5zLAEAAGCLft2tP1R08skb5fM/m2S2YwoAAAAv81KSHYrk+W78sY6uACiSRpJFjikAAAC8wrJuNf8dDwCafumYAgAAwCv8qpt/rBsBwC2OKQAAAAgAAAAAQADQYUWn/0BzEODTSXZ0bAEAAOC3dinKfrkrOr4CwCBAAAAAeIWHu9n8dyUAaLINAAAAADb5Vbf/oAAAAAAABABt41KAAAAAMAABwP1JnnF8AQAAIEkPZuV1JQAwCBAAAAB+a0WSB2oZADT93DEGAACA3Nz8oLy2AcDPHGMAAADIzb34o90MAG5MstFxBgAAYMD9otYBQFHucbjDcQYAAEAAUOMAoOkGxxkAAIAB9lCRPCYAAAAAgHq7uVd/uNsBgEGAAAAADLJf9OoPdzUAKJJ706OlDgAAANAHBmYFQFJeDQAAAAAGzcYktw5SAGAOAAAAAINoaZGsEgAAAABAvd3cyz/eiwBgUZLVjjsAAAADpqeD8bseABTJ+iT/7rgDAAAwQBpJfjhQAUDT9x17AAAABsjNRfLIIAYAP0jyouMPAADAgLii1y+gJwFAkTwbwwABAAAYHD1fCT9hkN88AAAAdMGDRbJ4kAOA7zkHAAAAGAD/1g8vomcBQJHcm+QO5wEAAAA1d0U/vIgJPf77/6/zAAAAgBp7JslPBQDJd1NeCxEAAADq6J+LZP3ABwBFcneS650PAAAA1NS3++WFTFAMAAAA6IjFRbJIALDJZUlWOy8AAAComf+nn15MzwOAInkuyeXOCwAAAGpkQ5J/FgC8km0AAAAA1MmCInlKADBMUV4S4U7nBwAAADXRdx90T+ij1/J3zg8AAABq4MEkPxQAbNm3kqxwngAAAFBxFxbJiwKALSjKKwF8y3kCAABAhS1Pn03/77sAoOmiJOudLwAAAFTUN4s+vdR9XwUARfJo+uwyCQAAADBC65J8vV9f3IQ+fE1fTrLReQMAAEDF/FORPCYAGKEiWZbkKucNAAAAFdJI8tV+foET+vR1/bVzBwAAgApZUCS39/MLLPr1hTWSf0/yu84hAAAA+tzGJG8ukkX9/CIn9PFr+1TMAgAAAKD/XdrvzX/SxysAkqSRXJrkj5xLAAAA9Kn1SQ4qkvv6/YVO6PPX95mUl1EAAACAfvS3VWj++z4AKJIHklzsfAIAAKAPrU7ypaq82AkVeI1/lWSV8woAAIA+89dF8qQAoE2K5OkkFzivAAAA6COPJ7mwSi+4qMKLbCTTkixO8hrnGAAAAH3gw0U5uL4yqrAFIEWyNsmfO78AAADoAz9O8s9Ve9FFlV5soyzwHzrXAAAA6JG1SeYWyb1Ve+ETKvZ6z0qy3PkGAABAj/xVFZv/ygUARfJEkk873wAAAOiB21PhIfVF1V5wo3zN1yV5u3MPAACALtmY5B1FckNV30DVtgCkSBpJ/izJeucfAAAAXfKtKjf/lQwAmiHA7UnOc/4BAADQBfcm+VTV30RR1RfeKMOLq5Kc4FwEAACgQzYkOaZIbqr6G5lQ1RdelPsvPpJyMCAAAAB0wnl1aP6bfXS1NZL3JvlBHd4LAAAAfeXaJMcVyUt1eDMTqv4GiuSHSf7GeQkAAEAbLU/ykbo0/83+ufoaydSUSzJ+xzkKAABAG3ygSL5Xpzc0oQ5vokjWJflQkjXOUQAAAMbporo1/83euT4ayQeS/GtqEmwAAADQdQuTvLdIXqzbG6tVo1wk/5bk885XAAAAxuD+JH9Yx+a/2TPXS6N8T5cm+UPnLgAAACO0OsnRRXJ7Xd9gLS+d10impbxcwxHOYQAAALZhY5L3F8mCOr/JWu6VL5K1KecBPOI8BgAAYBvOqXvz3+yV66uRvDXJ1Um2cz4DAACwGd8ukv84CG+01tPyi+RnSU5NssE5DQAAwDDfT3LaoLzZ2l8ur0iuSPInKfd0AAAAQJJck+R/revE/4EMAJohwKVJ/sL5DQAAQJKbk3ygSF4YpDc9YVDeaJF8I8lnnOcAAAADbUmSE4vysn8DpRi0N9xI5ic51zkPAAAwcO5NckyRPDaIb34QA4Aiyd8m+TPnPgAAwMB4OMk7i+T+QS3AhEF7w0XSSPLnSS5w/gMAAAyE+5IcO8jN/0AGAK0QoEjOSfJp/x4AAADU2u0pl/3fN+iFKAa9AI3kPyf5WgY0DAEAAKixm1MO/HtGKQQArRDgw0m+nWSSagAAANTCNUneXyRrlEIAMDwEeF+Sf0mynWoAAABU2veS/EGRvKAUm1j23lQk309yUpJnVQMAAKCyvprkf9H8b7bvZahG8pqUadEhqgEAAFAZ65N8okguUQoBwGhCgJlJ/jHJ+1UDAACg7z2d5INFcq1SbJktAJtRJKuT/H6SvyzzAAAAAPrUr5O8WfM/ol6XrWkkf5ByCck01QAAAOgrlyf54yJ5Tim2zQqAbSiS/57k2CT3qwYAAEBf2JDk00lO1fyPqr9lJBrJDkn+JsmHVQMAAKBnHkjy4SK5QSlGxwqAESqSVUXykSSnJlmhIgAAAF33P5K8QfM/5r6W0Wok+yb5pyRvUw0AAICOW5XkPxdlH8YYWQEwBkW55OTYlFcJeElFAAAAOuamJG/U/Lell2U8GskxSS5OcpBqAAAAtM1zSc5PclGRvKgcAoB+CQEmJ/nzJF9Msr2KAAAAjMsPkvxFc/U1AoC+DAJek+Rvk/yuagAAAIzaY0k+XSTfVQoBQFWCgFOS/N9JdlUNAACAkbRR+bsk5xTlwD86wBDADijKS1MclHI2gL0qAAAAW3ZjkqOL5OOafwFAVUOAZ4vkz5IckjIQaKgKAADAby1LcmqStxXlpH8636fSDY3kiCTzk7xbNQAAgAH2SJL/M8klpvsLAOoeBByf5K+TvEE1AACAAbI8yZeTfK1I1iqHAGBQQoAJSf4gyblJDlMRAACgxp5JebW0rxZlCIAAYGDDgLc3g4CTHA8AAKBG7k9yUZK/L5LnlEMAwKYg4LAkZ6dcGTBZRQAAgIpalOTCJP9sj78AgK0HAXsnOSPJnyaZpSIAAEAFvJTkqiQXFMlPlEMAwOiCgKlJ3pfko0l+L8kkVQEAAPrMQ0n+W5JvFskDyiEAYPxhwJ5JPpxyVcABKgIAAPTQ2iQLknwrydVF0lASAQDtDwKKlEMD/yTJ+5PsqCoAAEAXvJjkuiTfTfKvRbJGSQQAdC8MmJjk6CTzUm4VOEhVAACANno+yTVJrkjyvSJ5QkkEAPRHILB/kpObgcCxMTMAAAAYvadSDvP7H0n+Z5GsUxIBAP0dBuyS5Jgkb0lyZJI3J5mhMgAAwDC/SXJ9kp81v/7Knn4BANUOBCYmObgZBrwhyeFJDksyU3UAAGBgrE3yqyS/THJjkuuL5GFlEQBQ/1BgQpLXNMOANzQDgoOT7BfbBwAAoOpeSHJbkluaDf8vk9xRlMP8EABA0kgmJ3l1kkOagcD+zftWDAAAQP/ZkPJT/DuS3N78ekuSZUXykvIgAGCs4cDeSV6X8ooDBzXvvy7JHqoDAAAd9WKSu5tN/tDb3UUZAoAAgK4EA9ul3DqwX5J9h9xv3eaoEgAAjMgTSe5Lcm/ztjTlp/p3Fsl65UEAQBUCgj1SbicYfjswthYAADA4XkzyULPJH367u0hWKRECAOocEOzSDAhe3fy655D7ezW/n61SAABUxNMpL6/X+iR/6Cf6DxnEhwAAth4StFYR7JHkVUO+7j/k/j4pL3kIAACd8kKSR5tN/WObue9TfAQA0IWQYHLK1QS7NQOB1v3dk+za/Lpb8+e7Ov8BABhmZcpP7h9qfm3df6R5/8EieV6ZEABAtcKCic0QoLX9YOj94SHCTinDBQAAqmdtksebtydTfkr/xJD7T6b89P6JonwsCABgwAODHZphwM7NQKD1tXV/l838XGgAANAZ61Lus3+s2dg/lfJT+ieHN/tFslq5QAAA3QgNdt1MMND6fseUl0hs3WY3v/r3EgAYJBuSPNNs6Ftfn2ze3+zPi2SNsoEAAOoQHMweEgYMDwe29b1VBwBAL61MsiLJ8iFfn9laQ29gHggAgLGFBzOGBAKzUq5CaN3mDPu+dZvVfPzM5vfbqSQADKwNm2ngh3/d0v0VRbJRCUEAAFQnRJgyytBgesrgYVbz/vbN+zNiRQIAdNOalPvdVzW/rhhyf+jXFc37q1N+Yv/bJt7SehAAAIw1TJi8lXBgeHAwvRkqbO2fTW3eB4A6eKnZkK9JOX1+9bD7K4c07kOb9+E/W5Xy0/eGkgICAKBuwcLMlCsVZqXcsjAt5cqE1uqFac2fz2r+rLVSYWozSJjSDBi2b96f0/y6faxcAOCVVid5MeUn5etSXgd+RbNRX9v8+QtD7rd+vqL52LXNZn7o/eeKZL3SAgIAgN6HDLOb/xs5p/mjoV+LbPrnQ79OaIYOw79ObAYTra+TmqHE8K8AjEzrk/NGs8nekPKT81YT/lzK5npl87Ermg386iENfOsxq5qPWT7keVuPeb4o7wMIAADoWPDQWsXQCg0yJCxorVZIXvn4VuiQbFrNsLXHZ0g4MfRvDP19gDSb6daAt+XNrxubP8+QJrzVlCebPjlf22zOW48Z+hytx7Sa91ajPvQxa5q/+0JRPgYAAQAAHQomWtslMiw8aG3BSF4+o2Fo6NCaBZG8PNAY/lzDn2/48ySvXC0x/PlaqzGGmj3sv3eCDbql9QnzSL9/Pi//tHlb37ea6s19P7QJb32qnWENeOtT7uG/O/R1rS7KhhwAAQAA1EPjleHDlkKHoeZs4edDV1IMN3sU//3dXKCxNVXcTrJ8lI9f32xQR2po8zvskP+2QR5uRTY/TK21VHy4NUXZWAMAAAAAAAAAAECH/f8CPF3+KmGQ3AAAACV0RVh0ZGF0ZTpjcmVhdGUAMjAyMS0xMC0xNVQwNzo1MTowOSswMDowMPVSq9YAAAAldEVYdGRhdGU6bW9kaWZ5ADIwMjEtMTAtMTVUMDc6NTE6MDkrMDA6MDCEDxNqAAAAAElFTkSuQmCC;" vertex="1" parent="cGCoYNdKHb_dJwUcVTwO-12">
          <mxGeometry width="60" height="41.48" as="geometry" />
        </mxCell>
        <UserObject label="&lt;a href=&quot;https://youtu.be/xadv93LlbY4&quot;&gt;YouTube&lt;/a&gt;" linkTarget="_blank" id="cGCoYNdKHb_dJwUcVTwO-14">
          <mxCell style="text;html=1;strokeColor=none;fillColor=none;whiteSpace=wrap;align=center;verticalAlign=middle;fontColor=#0000EE;fontStyle=4;fontSize=21;" vertex="1" parent="cGCoYNdKHb_dJwUcVTwO-12">
            <mxGeometry x="66" y="0.7400000000000091" width="77" height="40" as="geometry" />
          </mxCell>
        </UserObject>
        <mxCell id="OYFjvcsIQnCx_sZw_uyR-87" value="" style="endArrow=classic;html=1;rounded=0;fontSize=21;" parent="1" edge="1">
          <mxGeometry width="50" height="50" relative="1" as="geometry">
            <mxPoint x="1840" y="961" as="sourcePoint" />
            <mxPoint x="1840" y="991" as="targetPoint" />
          </mxGeometry>
        </mxCell>
        <mxCell id="OYFjvcsIQnCx_sZw_uyR-88" value="Did adjusting the number of shards resolve the performance issues" style="rounded=1;whiteSpace=wrap;html=1;fontSize=21;" parent="1" vertex="1">
          <mxGeometry x="1690" y="1010" width="310" height="110" as="geometry" />
        </mxCell>
        <mxCell id="OYFjvcsIQnCx_sZw_uyR-89" value="Yes" style="rounded=1;whiteSpace=wrap;html=1;fontSize=21;" parent="1" vertex="1">
          <mxGeometry x="1760" y="1170" width="170" height="80" as="geometry" />
        </mxCell>
        <mxCell id="OYFjvcsIQnCx_sZw_uyR-90" value="" style="endArrow=classic;html=1;rounded=0;fontSize=21;" parent="1" edge="1">
          <mxGeometry width="50" height="50" relative="1" as="geometry">
            <mxPoint x="1839.76" y="1130" as="sourcePoint" />
            <mxPoint x="1839.76" y="1160" as="targetPoint" />
          </mxGeometry>
        </mxCell>
        <mxCell id="OYFjvcsIQnCx_sZw_uyR-91" value="No" style="rounded=1;whiteSpace=wrap;html=1;fontSize=21;" parent="1" vertex="1">
          <mxGeometry x="2060" y="1025" width="170" height="80" as="geometry" />
        </mxCell>
        <mxCell id="OYFjvcsIQnCx_sZw_uyR-92" value="" style="endArrow=classic;html=1;rounded=0;fontSize=21;" parent="1" edge="1">
          <mxGeometry width="50" height="50" relative="1" as="geometry">
            <mxPoint x="2020.0000000000002" y="1064.76" as="sourcePoint" />
            <mxPoint x="2050" y="1064.76" as="targetPoint" />
          </mxGeometry>
        </mxCell>
        <mxCell id="OYFjvcsIQnCx_sZw_uyR-93" value="Is your index refresh interval optimized?" style="rounded=1;whiteSpace=wrap;html=1;fontSize=21;" parent="1" vertex="1">
          <mxGeometry x="2350" y="90" width="350" height="70" as="geometry" />
        </mxCell>
        <mxCell id="OYFjvcsIQnCx_sZw_uyR-94" value="3" style="ellipse;whiteSpace=wrap;html=1;aspect=fixed;fontSize=21;" parent="1" vertex="1">
          <mxGeometry x="2330" y="80" width="40" height="40" as="geometry" />
        </mxCell>
        <mxCell id="OYFjvcsIQnCx_sZw_uyR-95" value="" style="endArrow=classic;html=1;rounded=0;fontSize=21;" parent="1" edge="1">
          <mxGeometry width="50" height="50" relative="1" as="geometry">
            <mxPoint x="2250" y="1060" as="sourcePoint" />
            <mxPoint x="2319.9999999999995" y="130" as="targetPoint" />
            <Array as="points">
              <mxPoint x="2290" y="1060" />
              <mxPoint x="2290" y="130" />
            </Array>
          </mxGeometry>
        </mxCell>
        <mxCell id="OYFjvcsIQnCx_sZw_uyR-96" value="" style="endArrow=classic;html=1;rounded=0;fontSize=21;" parent="1" edge="1">
          <mxGeometry width="50" height="50" relative="1" as="geometry">
            <mxPoint x="1843.6900000000003" y="174.9999999999999" as="sourcePoint" />
            <mxPoint x="1843.6900000000003" y="204.99999999999977" as="targetPoint" />
          </mxGeometry>
        </mxCell>
        <mxCell id="OYFjvcsIQnCx_sZw_uyR-98" value="" style="endArrow=classic;html=1;rounded=0;fontSize=21;" parent="1" edge="1">
          <mxGeometry width="50" height="50" relative="1" as="geometry">
            <mxPoint x="310" y="410" as="sourcePoint" />
            <mxPoint x="490" y="1410" as="targetPoint" />
          </mxGeometry>
        </mxCell>
        <mxCell id="OYFjvcsIQnCx_sZw_uyR-101" value="Did you explicitly set the refresh interval when you created the index or did you every adjust the refresh interval of the index?" style="rounded=1;whiteSpace=wrap;html=1;fontSize=21;" parent="1" vertex="1">
          <mxGeometry x="2370" y="215" width="310" height="120" as="geometry" />
        </mxCell>
        <mxCell id="OYFjvcsIQnCx_sZw_uyR-102" value="Yes" style="rounded=1;whiteSpace=wrap;html=1;fontSize=21;" parent="1" vertex="1">
          <mxGeometry x="2750" y="230" width="170" height="80" as="geometry" />
        </mxCell>
        <mxCell id="OYFjvcsIQnCx_sZw_uyR-103" value="" style="endArrow=classic;html=1;rounded=0;fontSize=21;" parent="1" edge="1">
          <mxGeometry width="50" height="50" relative="1" as="geometry">
            <mxPoint x="2520" y="175" as="sourcePoint" />
            <mxPoint x="2520" y="204.99999999999955" as="targetPoint" />
          </mxGeometry>
        </mxCell>
        <mxCell id="OYFjvcsIQnCx_sZw_uyR-104" value="No" style="rounded=1;whiteSpace=wrap;html=1;fontSize=21;" parent="1" vertex="1">
          <mxGeometry x="2440" y="385" width="170" height="80" as="geometry" />
        </mxCell>
        <mxCell id="OYFjvcsIQnCx_sZw_uyR-105" value="" style="endArrow=classic;html=1;rounded=0;fontSize=21;" parent="1" edge="1">
          <mxGeometry width="50" height="50" relative="1" as="geometry">
            <mxPoint x="2519.76" y="345" as="sourcePoint" />
            <mxPoint x="2519.76" y="375" as="targetPoint" />
          </mxGeometry>
        </mxCell>
        <mxCell id="OYFjvcsIQnCx_sZw_uyR-107" value="" style="endArrow=classic;html=1;rounded=0;fontSize=21;" parent="1" edge="1">
          <mxGeometry width="50" height="50" relative="1" as="geometry">
            <mxPoint x="2690" y="265" as="sourcePoint" />
            <mxPoint x="2740" y="265" as="targetPoint" />
          </mxGeometry>
        </mxCell>
        <mxCell id="OYFjvcsIQnCx_sZw_uyR-108" value="Is your work load write heavy or are you having issues&amp;nbsp;&lt;span style=&quot;font-size: 16pt; line-height: 107%; font-family: Helvetica, sans-serif; background-image: initial; background-position: initial; background-size: initial; background-repeat: initial; background-attachment: initial; background-origin: initial; background-clip: initial;&quot;&gt;related&amp;nbsp;&lt;/span&gt;to write throughput?" style="rounded=1;whiteSpace=wrap;html=1;fontSize=21;" parent="1" vertex="1">
          <mxGeometry x="2370" y="515" width="310" height="120" as="geometry" />
        </mxCell>
        <mxCell id="OYFjvcsIQnCx_sZw_uyR-109" value="" style="endArrow=classic;html=1;rounded=0;fontSize=21;" parent="1" edge="1">
          <mxGeometry width="50" height="50" relative="1" as="geometry">
            <mxPoint x="2520" y="475" as="sourcePoint" />
            <mxPoint x="2520" y="505" as="targetPoint" />
          </mxGeometry>
        </mxCell>
        <mxCell id="OYFjvcsIQnCx_sZw_uyR-110" value="Yes" style="rounded=1;whiteSpace=wrap;html=1;fontSize=21;" parent="1" vertex="1">
          <mxGeometry x="2440" y="690" width="170" height="80" as="geometry" />
        </mxCell>
        <mxCell id="OYFjvcsIQnCx_sZw_uyR-111" value="" style="endArrow=classic;html=1;rounded=0;fontSize=21;" parent="1" edge="1">
          <mxGeometry width="50" height="50" relative="1" as="geometry">
            <mxPoint x="2519.76" y="650" as="sourcePoint" />
            <mxPoint x="2519.76" y="680" as="targetPoint" />
          </mxGeometry>
        </mxCell>
        <mxCell id="OYFjvcsIQnCx_sZw_uyR-117" value="" style="endArrow=classic;html=1;rounded=0;fontSize=21;" parent="1" edge="1">
          <mxGeometry width="50" height="50" relative="1" as="geometry">
            <mxPoint x="2520" y="779.9999999999998" as="sourcePoint" />
            <mxPoint x="2520" y="809.9999999999998" as="targetPoint" />
          </mxGeometry>
        </mxCell>
        <mxCell id="OYFjvcsIQnCx_sZw_uyR-119" value="No" style="rounded=1;whiteSpace=wrap;html=1;fontSize=21;" parent="1" vertex="1">
          <mxGeometry x="2750" y="540" width="170" height="80" as="geometry" />
        </mxCell>
        <mxCell id="OYFjvcsIQnCx_sZw_uyR-120" value="" style="endArrow=classic;html=1;rounded=0;fontSize=21;" parent="1" edge="1">
          <mxGeometry width="50" height="50" relative="1" as="geometry">
            <mxPoint x="2690" y="575" as="sourcePoint" />
            <mxPoint x="2740" y="575" as="targetPoint" />
          </mxGeometry>
        </mxCell>
        <mxCell id="OYFjvcsIQnCx_sZw_uyR-113" value="Increase the default refresh interval of 1 second. This will provide greater write throughput at the cost of increased time for new data to become search-able" style="rounded=1;whiteSpace=wrap;html=1;fontSize=21;align=center;" parent="1" vertex="1">
          <mxGeometry x="2370" y="830" width="310" height="190" as="geometry" />
        </mxCell>
        <mxCell id="OYFjvcsIQnCx_sZw_uyR-114" value="" style="group" parent="1" vertex="1" connectable="0">
          <mxGeometry x="2630" y="800" width="123" height="55" as="geometry" />
        </mxCell>
        <UserObject label="GitHub" link="https://github.com/ev2900/OpenSearch_Refresh_Interval" linkTarget="_blank" id="OYFjvcsIQnCx_sZw_uyR-115">
          <mxCell style="text;html=1;strokeColor=none;fillColor=none;whiteSpace=wrap;align=center;verticalAlign=middle;fontColor=#0000EE;fontStyle=4;fontSize=21;" parent="OYFjvcsIQnCx_sZw_uyR-114" vertex="1">
            <mxGeometry x="93" y="-2.5" width="60" height="40" as="geometry" />
          </mxCell>
        </UserObject>
        <mxCell id="OYFjvcsIQnCx_sZw_uyR-116" value="" style="dashed=0;outlineConnect=0;html=1;align=center;labelPosition=center;verticalLabelPosition=bottom;verticalAlign=top;shape=mxgraph.weblogos.github;fontSize=21;" parent="OYFjvcsIQnCx_sZw_uyR-114" vertex="1">
          <mxGeometry x="30" y="-10" width="55" height="55" as="geometry" />
        </mxCell>
        <mxCell id="OYFjvcsIQnCx_sZw_uyR-121" value="Did adjusting the number of shards resolve the performance issues" style="rounded=1;whiteSpace=wrap;html=1;fontSize=21;" parent="1" vertex="1">
          <mxGeometry x="2380" y="1070" width="310" height="110" as="geometry" />
        </mxCell>
        <mxCell id="OYFjvcsIQnCx_sZw_uyR-122" value="Yes" style="rounded=1;whiteSpace=wrap;html=1;fontSize=21;" parent="1" vertex="1">
          <mxGeometry x="2450" y="1230" width="170" height="80" as="geometry" />
        </mxCell>
        <mxCell id="OYFjvcsIQnCx_sZw_uyR-123" value="" style="endArrow=classic;html=1;rounded=0;fontSize=21;" parent="1" edge="1">
          <mxGeometry width="50" height="50" relative="1" as="geometry">
            <mxPoint x="2529.76" y="1190" as="sourcePoint" />
            <mxPoint x="2529.76" y="1220" as="targetPoint" />
          </mxGeometry>
        </mxCell>
        <mxCell id="OYFjvcsIQnCx_sZw_uyR-124" value="No" style="rounded=1;whiteSpace=wrap;html=1;fontSize=21;" parent="1" vertex="1">
          <mxGeometry x="2750" y="1085" width="170" height="80" as="geometry" />
        </mxCell>
        <mxCell id="OYFjvcsIQnCx_sZw_uyR-125" value="" style="endArrow=classic;html=1;rounded=0;fontSize=21;" parent="1" edge="1">
          <mxGeometry width="50" height="50" relative="1" as="geometry">
            <mxPoint x="2710" y="1124.7600000000002" as="sourcePoint" />
            <mxPoint x="2740" y="1124.7600000000002" as="targetPoint" />
          </mxGeometry>
        </mxCell>
        <mxCell id="OYFjvcsIQnCx_sZw_uyR-127" value="" style="endArrow=classic;html=1;rounded=0;fontSize=21;" parent="1" edge="1">
          <mxGeometry width="50" height="50" relative="1" as="geometry">
            <mxPoint x="2520" y="1030" as="sourcePoint" />
            <mxPoint x="2520" y="1060" as="targetPoint" />
          </mxGeometry>
        </mxCell>
        <mxCell id="OYFjvcsIQnCx_sZw_uyR-129" value="Continue to test increasing the refreh interval&amp;nbsp;" style="rounded=1;whiteSpace=wrap;html=1;fontSize=21;" parent="1" vertex="1">
          <mxGeometry x="2753" y="910" width="160" height="100" as="geometry" />
        </mxCell>
        <mxCell id="OYFjvcsIQnCx_sZw_uyR-130" value="" style="endArrow=none;html=1;rounded=0;fontSize=21;" parent="1" edge="1">
          <mxGeometry width="50" height="50" relative="1" as="geometry">
            <mxPoint x="2830" y="1070" as="sourcePoint" />
            <mxPoint x="2830" y="1020" as="targetPoint" />
          </mxGeometry>
        </mxCell>
        <mxCell id="OYFjvcsIQnCx_sZw_uyR-131" value="" style="endArrow=classic;html=1;rounded=0;fontSize=21;" parent="1" edge="1">
          <mxGeometry width="50" height="50" relative="1" as="geometry">
            <mxPoint x="2740" y="950" as="sourcePoint" />
            <mxPoint x="2690" y="950" as="targetPoint" />
          </mxGeometry>
        </mxCell>
        <mxCell id="OYFjvcsIQnCx_sZw_uyR-132" value="&amp;nbsp; &amp;nbsp; Does you index have documents marked for deletion that have not been&amp;nbsp;&lt;span style=&quot;font-size: 16pt; line-height: 107%; font-family: Helvetica, sans-serif; background-image: initial; background-position: initial; background-size: initial; background-repeat: initial; background-attachment: initial; background-origin: initial; background-clip: initial;&quot;&gt;expunged&lt;/span&gt;?" style="rounded=1;whiteSpace=wrap;html=1;fontSize=21;" parent="1" vertex="1">
          <mxGeometry x="3120" y="90" width="350" height="90" as="geometry" />
        </mxCell>
        <mxCell id="OYFjvcsIQnCx_sZw_uyR-133" value="4" style="ellipse;whiteSpace=wrap;html=1;aspect=fixed;fontSize=21;" parent="1" vertex="1">
          <mxGeometry x="3100" y="80" width="40" height="40" as="geometry" />
        </mxCell>
        <mxCell id="OYFjvcsIQnCx_sZw_uyR-134" value="" style="endArrow=classic;html=1;rounded=0;fontSize=21;" parent="1" edge="1">
          <mxGeometry width="50" height="50" relative="1" as="geometry">
            <mxPoint x="2940" y="270" as="sourcePoint" />
            <mxPoint x="3100" y="130" as="targetPoint" />
            <Array as="points">
              <mxPoint x="3020" y="270" />
              <mxPoint x="3020" y="130" />
            </Array>
          </mxGeometry>
        </mxCell>
        <mxCell id="OYFjvcsIQnCx_sZw_uyR-135" value="" style="endArrow=classic;html=1;rounded=0;fontSize=21;" parent="1" edge="1">
          <mxGeometry width="50" height="50" relative="1" as="geometry">
            <mxPoint x="2940" y="580" as="sourcePoint" />
            <mxPoint x="3100" y="150" as="targetPoint" />
            <Array as="points">
              <mxPoint x="3040" y="580" />
              <mxPoint x="3040" y="150" />
            </Array>
          </mxGeometry>
        </mxCell>
        <mxCell id="OYFjvcsIQnCx_sZw_uyR-136" value="How can I tell how many documents I have marked for deletion that have not been expunged?" style="rounded=1;whiteSpace=wrap;html=1;fontSize=21;" parent="1" vertex="1">
          <mxGeometry x="3140" y="240" width="310" height="120" as="geometry" />
        </mxCell>
        <mxCell id="OYFjvcsIQnCx_sZw_uyR-137" value="" style="endArrow=classic;html=1;rounded=0;fontSize=21;" parent="1" edge="1">
          <mxGeometry width="50" height="50" relative="1" as="geometry">
            <mxPoint x="3280.0000000000005" y="197" as="sourcePoint" />
            <mxPoint x="3280.0000000000005" y="226.99999999999977" as="targetPoint" />
          </mxGeometry>
        </mxCell>
        <mxCell id="OYFjvcsIQnCx_sZw_uyR-139" value="Use the&amp;nbsp;&lt;code&gt;GET _cat/indices/&lt;/code&gt;&lt;br&gt;&amp;nbsp;API and look at the&amp;nbsp;&lt;em&gt;docs.deleted&lt;/em&gt; field or use the CloudWatch metric&amp;nbsp;DeletedDocuments" style="rounded=1;whiteSpace=wrap;html=1;fontSize=21;align=center;" parent="1" vertex="1">
          <mxGeometry x="3140" y="430" width="310" height="150" as="geometry" />
        </mxCell>
        <mxCell id="OYFjvcsIQnCx_sZw_uyR-140" value="" style="group" parent="1" vertex="1" connectable="0">
          <mxGeometry x="3410" y="398" width="123" height="55" as="geometry" />
        </mxCell>
        <UserObject label="GitHub" link="https://github.com/ev2900/OpenSearch_DeletedDocuments" linkTarget="_blank" id="OYFjvcsIQnCx_sZw_uyR-141">
          <mxCell style="text;html=1;strokeColor=none;fillColor=none;whiteSpace=wrap;align=center;verticalAlign=middle;fontColor=#0000EE;fontStyle=4;fontSize=21;" parent="OYFjvcsIQnCx_sZw_uyR-140" vertex="1">
            <mxGeometry x="63" y="7.5" width="60" height="40" as="geometry" />
          </mxCell>
        </UserObject>
        <mxCell id="OYFjvcsIQnCx_sZw_uyR-142" value="" style="dashed=0;outlineConnect=0;html=1;align=center;labelPosition=center;verticalLabelPosition=bottom;verticalAlign=top;shape=mxgraph.weblogos.github;fontSize=21;" parent="OYFjvcsIQnCx_sZw_uyR-140" vertex="1">
          <mxGeometry width="55" height="55" as="geometry" />
        </mxCell>
        <mxCell id="OYFjvcsIQnCx_sZw_uyR-144" value="" style="endArrow=classic;html=1;rounded=0;fontSize=21;" parent="1" edge="1">
          <mxGeometry width="50" height="50" relative="1" as="geometry">
            <mxPoint x="3280" y="379" as="sourcePoint" />
            <mxPoint x="3280" y="408.9999999999998" as="targetPoint" />
          </mxGeometry>
        </mxCell>
        <mxCell id="OYFjvcsIQnCx_sZw_uyR-145" value="The index has documents marked for deletion that have not been&amp;nbsp;&lt;span style=&quot;background-image: initial; background-position: initial; background-size: initial; background-repeat: initial; background-attachment: initial; background-origin: initial; background-clip: initial; font-size: 16pt; line-height: 22.8267px; font-family: Helvetica, sans-serif;&quot;&gt;expunged&lt;/span&gt;" style="rounded=1;whiteSpace=wrap;html=1;fontSize=21;" parent="1" vertex="1">
          <mxGeometry x="3195" y="640" width="200" height="140" as="geometry" />
        </mxCell>
        <mxCell id="OYFjvcsIQnCx_sZw_uyR-146" value="" style="endArrow=classic;html=1;rounded=0;fontSize=21;" parent="1" edge="1">
          <mxGeometry width="50" height="50" relative="1" as="geometry">
            <mxPoint x="3294.7000000000003" y="596" as="sourcePoint" />
            <mxPoint x="3294.7000000000003" y="626" as="targetPoint" />
          </mxGeometry>
        </mxCell>
        <mxCell id="OYFjvcsIQnCx_sZw_uyR-147" value="The index does not have documents marked for deletion that have not been&amp;nbsp;&lt;span style=&quot;background-image: initial; background-position: initial; background-size: initial; background-repeat: initial; background-attachment: initial; background-origin: initial; background-clip: initial; font-size: 16pt; line-height: 22.8267px; font-family: Helvetica, sans-serif;&quot;&gt;expunged&lt;/span&gt;" style="rounded=1;whiteSpace=wrap;html=1;fontSize=21;" parent="1" vertex="1">
          <mxGeometry x="3600" y="435" width="200" height="140" as="geometry" />
        </mxCell>
        <mxCell id="OYFjvcsIQnCx_sZw_uyR-148" value="" style="endArrow=classic;html=1;rounded=0;fontSize=21;" parent="1" edge="1">
          <mxGeometry width="50" height="50" relative="1" as="geometry">
            <mxPoint x="3470" y="500" as="sourcePoint" />
            <mxPoint x="3580" y="500" as="targetPoint" />
          </mxGeometry>
        </mxCell>
        <mxCell id="OYFjvcsIQnCx_sZw_uyR-149" value="Use the force merge API to&amp;nbsp;&lt;span style=&quot;font-family: Helvetica, sans-serif; font-size: 21.3333px;&quot;&gt;expunged documents marked for deletion&lt;/span&gt;" style="rounded=1;whiteSpace=wrap;html=1;fontSize=21;align=center;" parent="1" vertex="1">
          <mxGeometry x="3160" y="834" width="310" height="118" as="geometry" />
        </mxCell>
        <mxCell id="OYFjvcsIQnCx_sZw_uyR-150" value="" style="group" parent="1" vertex="1" connectable="0">
          <mxGeometry x="3440" y="810" width="123" height="55" as="geometry" />
        </mxCell>
        <UserObject label="GitHub" link="https://github.com/ev2900/OpenSearch_DeletedDocuments" linkTarget="_blank" id="OYFjvcsIQnCx_sZw_uyR-151">
          <mxCell style="text;html=1;strokeColor=none;fillColor=none;whiteSpace=wrap;align=center;verticalAlign=middle;fontColor=#0000EE;fontStyle=4;fontSize=21;" parent="OYFjvcsIQnCx_sZw_uyR-150" vertex="1">
            <mxGeometry x="63" y="7.5" width="60" height="40" as="geometry" />
          </mxCell>
        </UserObject>
        <mxCell id="OYFjvcsIQnCx_sZw_uyR-152" value="" style="dashed=0;outlineConnect=0;html=1;align=center;labelPosition=center;verticalLabelPosition=bottom;verticalAlign=top;shape=mxgraph.weblogos.github;fontSize=21;" parent="OYFjvcsIQnCx_sZw_uyR-150" vertex="1">
          <mxGeometry width="55" height="55" as="geometry" />
        </mxCell>
        <mxCell id="OYFjvcsIQnCx_sZw_uyR-154" value="" style="endArrow=classic;html=1;rounded=0;fontSize=21;" parent="1" edge="1">
          <mxGeometry width="50" height="50" relative="1" as="geometry">
            <mxPoint x="3294.7000000000007" y="790" as="sourcePoint" />
            <mxPoint x="3294.7000000000007" y="820" as="targetPoint" />
          </mxGeometry>
        </mxCell>
        <mxCell id="OYFjvcsIQnCx_sZw_uyR-68" value="Use the&amp;nbsp;&lt;code&gt;GET _cat/indices/&lt;/code&gt;&lt;br&gt;&amp;nbsp;and&amp;nbsp;&lt;code&gt;GET _cat/shards/&amp;nbsp;&lt;/code&gt;&lt;br&gt;API to determine the number and sizes of primary and replica shards in an index. Compare these sizes to the&amp;nbsp;&lt;span style=&quot;font-size: 16pt; line-height: 107%; font-family: Helvetica, sans-serif; background-image: initial; background-position: initial; background-size: initial; background-repeat: initial; background-attachment: initial; background-origin: initial; background-clip: initial;&quot;&gt;recommended&amp;nbsp;&lt;/span&gt;shard sizes (10 - 50 GB)" style="rounded=1;whiteSpace=wrap;html=1;fontSize=21;align=center;" parent="1" vertex="1">
          <mxGeometry x="1690" y="360" width="310" height="240" as="geometry" />
        </mxCell>
        <mxCell id="OYFjvcsIQnCx_sZw_uyR-69" value="" style="group" parent="1" vertex="1" connectable="0">
          <mxGeometry x="1988" y="327" width="123" height="55" as="geometry" />
        </mxCell>
        <UserObject label="GitHub" link="https://github.com/ev2900/OpenSearch_Index_Shard_Size#view-the--shards-size--for-an-existing-index" linkTarget="_blank" id="OYFjvcsIQnCx_sZw_uyR-70">
          <mxCell style="text;html=1;strokeColor=none;fillColor=none;whiteSpace=wrap;align=center;verticalAlign=middle;fontColor=#0000EE;fontStyle=4;fontSize=21;" parent="OYFjvcsIQnCx_sZw_uyR-69" vertex="1">
            <mxGeometry x="63" y="7.5" width="60" height="40" as="geometry" />
          </mxCell>
        </UserObject>
        <mxCell id="OYFjvcsIQnCx_sZw_uyR-71" value="" style="dashed=0;outlineConnect=0;html=1;align=center;labelPosition=center;verticalLabelPosition=bottom;verticalAlign=top;shape=mxgraph.weblogos.github;fontSize=21;" parent="OYFjvcsIQnCx_sZw_uyR-69" vertex="1">
          <mxGeometry width="55" height="55" as="geometry" />
        </mxCell>
        <mxCell id="OYFjvcsIQnCx_sZw_uyR-157" value="Is you OpenSearch domain deployed in a VPN?" style="rounded=1;whiteSpace=wrap;html=1;fontSize=21;" parent="1" vertex="1">
          <mxGeometry x="900" y="1408" width="310" height="80" as="geometry" />
        </mxCell>
        <mxCell id="OYFjvcsIQnCx_sZw_uyR-159" value="" style="endArrow=classic;html=1;rounded=0;fontSize=21;" parent="1" edge="1">
          <mxGeometry width="50" height="50" relative="1" as="geometry">
            <mxPoint x="600" y="1452.17" as="sourcePoint" />
            <mxPoint x="860" y="1452.58" as="targetPoint" />
          </mxGeometry>
        </mxCell>
        <mxCell id="OYFjvcsIQnCx_sZw_uyR-160" value="No" style="rounded=1;whiteSpace=wrap;html=1;fontSize=21;" parent="1" vertex="1">
          <mxGeometry x="970" y="1538" width="170" height="80" as="geometry" />
        </mxCell>
        <mxCell id="OYFjvcsIQnCx_sZw_uyR-161" value="" style="endArrow=classic;html=1;rounded=0;fontSize=21;" parent="1" edge="1">
          <mxGeometry width="50" height="50" relative="1" as="geometry">
            <mxPoint x="1049.7600000000002" y="1498" as="sourcePoint" />
            <mxPoint x="1049.7600000000002" y="1528" as="targetPoint" />
          </mxGeometry>
        </mxCell>
        <mxCell id="OYFjvcsIQnCx_sZw_uyR-162" value="Yes" style="rounded=1;whiteSpace=wrap;html=1;fontSize=21;" parent="1" vertex="1">
          <mxGeometry x="1360" y="1408" width="170" height="80" as="geometry" />
        </mxCell>
        <mxCell id="OYFjvcsIQnCx_sZw_uyR-163" value="" style="endArrow=classic;html=1;rounded=0;fontSize=21;" parent="1" edge="1">
          <mxGeometry width="50" height="50" relative="1" as="geometry">
            <mxPoint x="1230" y="1447.7600000000002" as="sourcePoint" />
            <mxPoint x="1340" y="1448" as="targetPoint" />
          </mxGeometry>
        </mxCell>
        <mxCell id="OYFjvcsIQnCx_sZw_uyR-164" value="Are you trying to make your OpenSearch dashboard or specific API path(s)?&amp;nbsp;" style="rounded=1;whiteSpace=wrap;html=1;fontSize=21;" parent="1" vertex="1">
          <mxGeometry x="1690" y="1403" width="310" height="100" as="geometry" />
        </mxCell>
        <mxCell id="OYFjvcsIQnCx_sZw_uyR-165" value="" style="endArrow=classic;html=1;rounded=0;fontSize=21;" parent="1" edge="1">
          <mxGeometry width="50" height="50" relative="1" as="geometry">
            <mxPoint x="1550" y="1447.17" as="sourcePoint" />
            <mxPoint x="1670" y="1447.17" as="targetPoint" />
          </mxGeometry>
        </mxCell>
        <mxCell id="OYFjvcsIQnCx_sZw_uyR-166" value="Yes" style="rounded=1;whiteSpace=wrap;html=1;fontSize=21;" parent="1" vertex="1">
          <mxGeometry x="1760" y="1558" width="170" height="80" as="geometry" />
        </mxCell>
        <mxCell id="OYFjvcsIQnCx_sZw_uyR-167" value="" style="endArrow=classic;html=1;rounded=0;fontSize=21;" parent="1" edge="1">
          <mxGeometry width="50" height="50" relative="1" as="geometry">
            <mxPoint x="1839.7600000000002" y="1518" as="sourcePoint" />
            <mxPoint x="1839.7600000000002" y="1548" as="targetPoint" />
          </mxGeometry>
        </mxCell>
        <mxCell id="OYFjvcsIQnCx_sZw_uyR-173" value="" style="endArrow=classic;html=1;rounded=0;fontSize=21;" parent="1" edge="1">
          <mxGeometry width="50" height="50" relative="1" as="geometry">
            <mxPoint x="1839.7600000000002" y="1658" as="sourcePoint" />
            <mxPoint x="1840" y="1718" as="targetPoint" />
          </mxGeometry>
        </mxCell>
        <mxCell id="OYFjvcsIQnCx_sZw_uyR-169" value="Use a NGINX proxy to proxy specific web traffic to and from OpenSearch" style="rounded=1;whiteSpace=wrap;html=1;fontSize=21;" parent="1" vertex="1">
          <mxGeometry x="1700" y="1728" width="312.5" height="110" as="geometry" />
        </mxCell>
        <mxCell id="OYFjvcsIQnCx_sZw_uyR-170" value="" style="group" parent="1" vertex="1" connectable="0">
          <mxGeometry x="1972.5" y="1698" width="123" height="55" as="geometry" />
        </mxCell>
        <UserObject label="GitHub" link="https://github.com/ev2900/OpenSearch_Dashboard_Nginx_Proxy" linkTarget="_blank" id="OYFjvcsIQnCx_sZw_uyR-171">
          <mxCell style="text;html=1;strokeColor=none;fillColor=none;whiteSpace=wrap;align=center;verticalAlign=middle;fontColor=#0000EE;fontStyle=4;fontSize=21;" parent="OYFjvcsIQnCx_sZw_uyR-170" vertex="1">
            <mxGeometry x="63" y="7.5" width="60" height="40" as="geometry" />
          </mxCell>
        </UserObject>
        <mxCell id="OYFjvcsIQnCx_sZw_uyR-172" value="" style="dashed=0;outlineConnect=0;html=1;align=center;labelPosition=center;verticalLabelPosition=bottom;verticalAlign=top;shape=mxgraph.weblogos.github;fontSize=21;" parent="OYFjvcsIQnCx_sZw_uyR-170" vertex="1">
          <mxGeometry width="55" height="55" as="geometry" />
        </mxCell>
        <mxCell id="OYFjvcsIQnCx_sZw_uyR-174" value="Security" style="rounded=1;whiteSpace=wrap;html=1;fontSize=21;fontStyle=0" parent="1" vertex="1">
          <mxGeometry x="421" y="1992" width="150" height="70" as="geometry" />
        </mxCell>
        <mxCell id="OYFjvcsIQnCx_sZw_uyR-175" value="" style="endArrow=classic;html=1;rounded=0;fontSize=21;" parent="1" edge="1">
          <mxGeometry width="50" height="50" relative="1" as="geometry">
            <mxPoint x="280" y="450" as="sourcePoint" />
            <mxPoint x="500" y="1980" as="targetPoint" />
            <Array as="points">
              <mxPoint x="310" y="1360" />
            </Array>
          </mxGeometry>
        </mxCell>
        <mxCell id="OYFjvcsIQnCx_sZw_uyR-177" value="" style="endArrow=classic;html=1;rounded=0;fontSize=21;" parent="1" edge="1">
          <mxGeometry width="50" height="50" relative="1" as="geometry">
            <mxPoint x="600" y="2031.1700000000005" as="sourcePoint" />
            <mxPoint x="860" y="2031.58" as="targetPoint" />
          </mxGeometry>
        </mxCell>
        <mxCell id="OYFjvcsIQnCx_sZw_uyR-182" value="Are you trying to authenticate API request(s) using an IAM user?&amp;nbsp;" style="rounded=1;whiteSpace=wrap;html=1;fontSize=21;" parent="1" vertex="1">
          <mxGeometry x="900" y="1982" width="310" height="100" as="geometry" />
        </mxCell>
        <mxCell id="OYFjvcsIQnCx_sZw_uyR-184" value="Yes" style="rounded=1;whiteSpace=wrap;html=1;fontSize=21;" parent="1" vertex="1">
          <mxGeometry x="970" y="2137" width="170" height="80" as="geometry" />
        </mxCell>
        <mxCell id="OYFjvcsIQnCx_sZw_uyR-185" value="" style="endArrow=classic;html=1;rounded=0;fontSize=21;" parent="1" edge="1">
          <mxGeometry width="50" height="50" relative="1" as="geometry">
            <mxPoint x="1049.7600000000002" y="2097" as="sourcePoint" />
            <mxPoint x="1049.7600000000002" y="2127" as="targetPoint" />
          </mxGeometry>
        </mxCell>
        <mxCell id="OYFjvcsIQnCx_sZw_uyR-186" value="" style="endArrow=classic;html=1;rounded=0;fontSize=21;" parent="1" edge="1">
          <mxGeometry width="50" height="50" relative="1" as="geometry">
            <mxPoint x="1049.7600000000002" y="2237" as="sourcePoint" />
            <mxPoint x="1050" y="2297" as="targetPoint" />
          </mxGeometry>
        </mxCell>
        <mxCell id="OYFjvcsIQnCx_sZw_uyR-187" value="You can sign API requests with Sigv4 tokens generated from the credentials of IAM users mapped to OpenSearch role(s)" style="rounded=1;whiteSpace=wrap;html=1;fontSize=21;" parent="1" vertex="1">
          <mxGeometry x="910" y="2307" width="312.5" height="155" as="geometry" />
        </mxCell>
        <mxCell id="OYFjvcsIQnCx_sZw_uyR-188" value="" style="group" parent="1" vertex="1" connectable="0">
          <mxGeometry x="1182.5" y="2277" width="123" height="55" as="geometry" />
        </mxCell>
        <UserObject label="GitHub" link="https://github.com/ev2900/OpenSearch_Sigv4_IAM_Auth" linkTarget="_blank" id="OYFjvcsIQnCx_sZw_uyR-189">
          <mxCell style="text;html=1;strokeColor=none;fillColor=none;whiteSpace=wrap;align=center;verticalAlign=middle;fontColor=#0000EE;fontStyle=4;fontSize=21;" parent="OYFjvcsIQnCx_sZw_uyR-188" vertex="1">
            <mxGeometry x="63" y="7.5" width="60" height="40" as="geometry" />
          </mxCell>
        </UserObject>
        <mxCell id="OYFjvcsIQnCx_sZw_uyR-190" value="" style="dashed=0;outlineConnect=0;html=1;align=center;labelPosition=center;verticalLabelPosition=bottom;verticalAlign=top;shape=mxgraph.weblogos.github;fontSize=21;" parent="OYFjvcsIQnCx_sZw_uyR-188" vertex="1">
          <mxGeometry width="55" height="55" as="geometry" />
        </mxCell>
        <mxCell id="OYFjvcsIQnCx_sZw_uyR-193" value="No" style="rounded=1;whiteSpace=wrap;html=1;fontSize=21;" parent="1" vertex="1">
          <mxGeometry x="1360" y="1997" width="170" height="80" as="geometry" />
        </mxCell>
        <mxCell id="OYFjvcsIQnCx_sZw_uyR-194" value="" style="endArrow=classic;html=1;rounded=0;fontSize=21;" parent="1" edge="1">
          <mxGeometry width="50" height="50" relative="1" as="geometry">
            <mxPoint x="1230" y="2036.7599999999998" as="sourcePoint" />
            <mxPoint x="1340" y="2037" as="targetPoint" />
          </mxGeometry>
        </mxCell>
        <mxCell id="OYFjvcsIQnCx_sZw_uyR-195" value="Are you trying to use the OpenSearch APIs to automate user creation, role&amp;nbsp;&lt;span style=&quot;font-size: 16pt; line-height: 107%; font-family: Helvetica, sans-serif; background-image: initial; background-position: initial; background-size: initial; background-repeat: initial; background-attachment: initial; background-origin: initial; background-clip: initial;&quot;&gt;mappings&amp;nbsp;&lt;/span&gt;...&amp;nbsp;&amp;nbsp;" style="rounded=1;whiteSpace=wrap;html=1;fontSize=21;" parent="1" vertex="1">
          <mxGeometry x="1690" y="1992" width="310" height="100" as="geometry" />
        </mxCell>
        <mxCell id="OYFjvcsIQnCx_sZw_uyR-196" value="" style="endArrow=classic;html=1;rounded=0;fontSize=21;" parent="1" edge="1">
          <mxGeometry width="50" height="50" relative="1" as="geometry">
            <mxPoint x="1550" y="2036.17" as="sourcePoint" />
            <mxPoint x="1670" y="2036.17" as="targetPoint" />
          </mxGeometry>
        </mxCell>
        <mxCell id="OYFjvcsIQnCx_sZw_uyR-204" value="Yes" style="rounded=1;whiteSpace=wrap;html=1;fontSize=21;" parent="1" vertex="1">
          <mxGeometry x="1750" y="2143" width="170" height="80" as="geometry" />
        </mxCell>
        <mxCell id="OYFjvcsIQnCx_sZw_uyR-205" value="" style="endArrow=classic;html=1;rounded=0;fontSize=21;" parent="1" edge="1">
          <mxGeometry width="50" height="50" relative="1" as="geometry">
            <mxPoint x="1829.7600000000002" y="2103" as="sourcePoint" />
            <mxPoint x="1829.7600000000002" y="2133" as="targetPoint" />
          </mxGeometry>
        </mxCell>
        <mxCell id="OYFjvcsIQnCx_sZw_uyR-206" value="" style="endArrow=classic;html=1;rounded=0;fontSize=21;" parent="1" edge="1">
          <mxGeometry width="50" height="50" relative="1" as="geometry">
            <mxPoint x="1829.7600000000002" y="2243" as="sourcePoint" />
            <mxPoint x="1830" y="2303" as="targetPoint" />
          </mxGeometry>
        </mxCell>
        <mxCell id="OYFjvcsIQnCx_sZw_uyR-207" value="OpenSearch APIs provide support for various operations such as creating users and mapping users to an OpenSearch role" style="rounded=1;whiteSpace=wrap;html=1;fontSize=21;" parent="1" vertex="1">
          <mxGeometry x="1690" y="2313" width="312.5" height="155" as="geometry" />
        </mxCell>
        <mxCell id="OYFjvcsIQnCx_sZw_uyR-208" value="" style="group" parent="1" vertex="1" connectable="0">
          <mxGeometry x="1962.5" y="2283" width="123" height="55" as="geometry" />
        </mxCell>
        <UserObject label="GitHub" link="https://github.com/ev2900/OpenSearch_User_Role_Premission_Managment" linkTarget="_blank" id="OYFjvcsIQnCx_sZw_uyR-209">
          <mxCell style="text;html=1;strokeColor=none;fillColor=none;whiteSpace=wrap;align=center;verticalAlign=middle;fontColor=#0000EE;fontStyle=4;fontSize=21;" parent="OYFjvcsIQnCx_sZw_uyR-208" vertex="1">
            <mxGeometry x="63" y="7.5" width="60" height="40" as="geometry" />
          </mxCell>
        </UserObject>
        <mxCell id="OYFjvcsIQnCx_sZw_uyR-210" value="" style="dashed=0;outlineConnect=0;html=1;align=center;labelPosition=center;verticalLabelPosition=bottom;verticalAlign=top;shape=mxgraph.weblogos.github;fontSize=21;" parent="OYFjvcsIQnCx_sZw_uyR-208" vertex="1">
          <mxGeometry width="55" height="55" as="geometry" />
        </mxCell>
        <mxCell id="OYFjvcsIQnCx_sZw_uyR-213" value="No" style="rounded=1;whiteSpace=wrap;html=1;fontSize=21;" parent="1" vertex="1">
          <mxGeometry x="2110" y="2002" width="170" height="80" as="geometry" />
        </mxCell>
        <mxCell id="OYFjvcsIQnCx_sZw_uyR-214" value="" style="endArrow=classic;html=1;rounded=0;fontSize=21;" parent="1" edge="1">
          <mxGeometry width="50" height="50" relative="1" as="geometry">
            <mxPoint x="2025.5" y="2036.1699999999996" as="sourcePoint" />
            <mxPoint x="2095.5" y="2036.58" as="targetPoint" />
          </mxGeometry>
        </mxCell>
        <mxCell id="OYFjvcsIQnCx_sZw_uyR-215" value="Do you need to enable audit logs for OpenSearch?" style="rounded=1;whiteSpace=wrap;html=1;fontSize=21;" parent="1" vertex="1">
          <mxGeometry x="2380" y="1992" width="310" height="100" as="geometry" />
        </mxCell>
        <mxCell id="OYFjvcsIQnCx_sZw_uyR-218" value="" style="endArrow=classic;html=1;rounded=0;fontSize=21;" parent="1" edge="1">
          <mxGeometry width="50" height="50" relative="1" as="geometry">
            <mxPoint x="2290" y="2036.5499999999997" as="sourcePoint" />
            <mxPoint x="2360" y="2036.96" as="targetPoint" />
          </mxGeometry>
        </mxCell>
        <mxCell id="OYFjvcsIQnCx_sZw_uyR-219" value="Yes" style="rounded=1;whiteSpace=wrap;html=1;fontSize=21;" parent="1" vertex="1">
          <mxGeometry x="2460" y="2143" width="170" height="80" as="geometry" />
        </mxCell>
        <mxCell id="OYFjvcsIQnCx_sZw_uyR-220" value="" style="endArrow=classic;html=1;rounded=0;fontSize=21;" parent="1" edge="1">
          <mxGeometry width="50" height="50" relative="1" as="geometry">
            <mxPoint x="2539.76" y="2103" as="sourcePoint" />
            <mxPoint x="2539.76" y="2133" as="targetPoint" />
          </mxGeometry>
        </mxCell>
        <mxCell id="OYFjvcsIQnCx_sZw_uyR-221" value="" style="endArrow=classic;html=1;rounded=0;fontSize=21;" parent="1" edge="1">
          <mxGeometry width="50" height="50" relative="1" as="geometry">
            <mxPoint x="2539.76" y="2243" as="sourcePoint" />
            <mxPoint x="2540" y="2303" as="targetPoint" />
          </mxGeometry>
        </mxCell>
        <mxCell id="OYFjvcsIQnCx_sZw_uyR-222" value="OpenSearch&amp;nbsp;&lt;span style=&quot;font-size: 16pt; line-height: 107%; font-family: Helvetica, sans-serif; background-image: initial; background-position: initial; background-size: initial; background-repeat: initial; background-attachment: initial; background-origin: initial; background-clip: initial;&quot;&gt;provides&amp;nbsp;&lt;/span&gt;the option to enable&amp;nbsp;&lt;span style=&quot;font-size: 16pt; line-height: 107%; font-family: Helvetica, sans-serif; background-image: initial; background-position: initial; background-size: initial; background-repeat: initial; background-attachment: initial; background-origin: initial; background-clip: initial;&quot;&gt;additional&amp;nbsp;&lt;/span&gt;levels of logging including Audit logs. You must enable audit logs on the domain then configure which logs to collect" style="rounded=1;whiteSpace=wrap;html=1;fontSize=21;" parent="1" vertex="1">
          <mxGeometry x="2400" y="2313" width="312.5" height="209" as="geometry" />
        </mxCell>
        <mxCell id="OYFjvcsIQnCx_sZw_uyR-223" value="" style="group" parent="1" vertex="1" connectable="0">
          <mxGeometry x="2672.5" y="2283" width="123" height="55" as="geometry" />
        </mxCell>
        <UserObject label="GitHub" link="https://github.com/ev2900/OpenSearch_Audit_Logs" linkTarget="_blank" id="OYFjvcsIQnCx_sZw_uyR-224">
          <mxCell style="text;html=1;strokeColor=none;fillColor=none;whiteSpace=wrap;align=center;verticalAlign=middle;fontColor=#0000EE;fontStyle=4;fontSize=21;" parent="OYFjvcsIQnCx_sZw_uyR-223" vertex="1">
            <mxGeometry x="63" y="7.5" width="60" height="40" as="geometry" />
          </mxCell>
        </UserObject>
        <mxCell id="OYFjvcsIQnCx_sZw_uyR-225" value="" style="dashed=0;outlineConnect=0;html=1;align=center;labelPosition=center;verticalLabelPosition=bottom;verticalAlign=top;shape=mxgraph.weblogos.github;fontSize=21;" parent="OYFjvcsIQnCx_sZw_uyR-223" vertex="1">
          <mxGeometry width="55" height="55" as="geometry" />
        </mxCell>
        <mxCell id="cGCoYNdKHb_dJwUcVTwO-8" value="" style="group" vertex="1" connectable="0" parent="1">
          <mxGeometry x="1987" y="389.26" width="143" height="41.48000000000002" as="geometry" />
        </mxCell>
        <mxCell id="cGCoYNdKHb_dJwUcVTwO-1" value="" style="shape=image;verticalLabelPosition=bottom;labelBackgroundColor=default;verticalAlign=top;aspect=fixed;imageAspect=0;image=data:image/png,iVBORw0KGgoAAAANSUhEUgAABAAAAALECAYAAACWtEIbAAAABGdBTUEAALGPC/xhBQAAACBjSFJNAAB6JgAAgIQAAPoAAACA6AAAdTAAAOpgAAA6mAAAF3CculE8AAAABmJLR0QA/wD/AP+gvaeTAAA+OElEQVR42u3debyddX0v+s+TkYSEJMwCMikoQygOIKgoCtQKQe25wm3r1J7eg7WnMtwL4nmJYm/1GHvxJehtFduL1ZaeUw69t0pEegwoCCIoREkgYZ5kHjJCSAJZ949nLbPZZNjDmp5nvd+v13rttTdrr73W93kQv5/1+32fBAAAAAAAAACovkIJAKDUSGYmmTSCh05OMmMUTz17nP/NnZTytXXTmiQbRvk7q5K8NMrfWZlk41b++XNFst7ZCQACAADa3/wWzYa1ZUqS7Yd8v33zZ5trboc3qtOSbDfk+6EN9rb+zub+1uZ+b0t/a2vN9+b+FtWysRkebM7aJC9s4Z8t38LPX2j+3pB/JbJi2GOGBxzPJ1k35Pv1SZ7bxmtc0XzulqFBy/DHD33s6iQvtv5u8fK/CwACAIA+bbSnJpmeTZ8it5rmCUlmDWtwZzQflyRzml+Hfvo8tEFuNbpDm/ChTfEOSSYO+Ttp/rNpjgpU1rpmEJFmQLB60//UvCzAGLrSYmjo0ApLhj5+aICyfCs/GxqavOJnxZbDFgAEAAA9acZbDfIOzUZ6hyFN86zmz2Zuo0lvNd6zmv+89fhW8z49ZdO/pU+oAepsaFCwohk2tFZPtIKF1mNaqyg2NIOKVqjxUsoVGK1VEkMDi+XDnrsVdqwqRr8lBUAAANDDBn16yk+5ZzYb7O2a389oNuezs+kT9ZnNhnv4z6YM+d1pw5p9AOqtteJhVfPryiFBw3PN+yua/2z1kDBidfNnK4Y8vhVcrBzynC8UL98+AiAAAAamYZ/TbNBbTfrsId/PbDbdre9nNX/W+n72Zn7X/04BUKWgYXk2bc1Y0QwT1jZ/vrb585XNQGFtM0RYMyR0WN28vyZWMQACAKBDjfv0ZkM+/DZnCz+f1Wzmhzbx01USANqqtfpg5ZAAYcXQkKD5/erm96uH/Wz10McVLx9CCQgAgIo28LOS7NRs2LfWtLdus5u31veTVREAam/N8FBgSFDQuq0Ydn9l8+uKJCuLV14hAxAAAGNs5KcNaeI3d3tVkj2G/WxnDTwA0EUvpNzWsLnb2m3886eKTVeiAAQAUItGfmKzMd8lya5Jdkv5Cf2OW7ntlHKKPABAna1shgHPDLk927xt7v4zSZ61hQEEANDNpn5Ws5HfpXnbrdncD23ydxly8+8YAED7PLOVkODZJE8leaL59akkTxflZSEBzQkkjbJp3y3JXlto5Ic2+VNVDACgMjYODQOSPNb8+lSSJ4eFBY8X5VwEEABABRv7HZpNfWvP/J7N+62veyXZPeX14AEAYN2QQODRJI8neaQZHDzS/NmjSZ6wsgABAHSnsZ+acq98q7Ef+nX/5v09Uk64BwCATljeDAYe3czX+5r3HxcUIACArTf42zUb+P2H3VpN/n7OXQAAKmB9kt8MCQRa4UDr9mCRvKRMCACoc4M/K8m+SfZpft132Pc7qhIAAANgXZKHkjzYvD0w5Os9RRkagACAvm7wJzUb+dclOWAzDf5sVQIAgG1ameTOJMuatzuTLE1yb1GuLgABAF1r9HdN8vokBw65vT7lEn2D9QAAoDNeTLmFYGgwcHuSxUXyvPIgAGCsTf70YQ3+65q3A1Mu5QcAAPrDS0nuSvKr5u2WJL9weUMEAAxv9HdIcmiSuc1b65P9vZwnAABQ6VDgjiQ/a96uK8oZAwgAGIBGf1KzuT80yWHNZv/QlHvzAQCA+rs7ycLm7d+L5DklEQBQ/WZ/crO5f2OSNzW/HpZkmuoAAAApZwb8IMm/JPmhGQICAKrT8M9I8p4kJzQb/sNiGB8AADAya5Nck+SKJFcUyaNKIgCgv5r+XZP8XpJTmo3/VFUBAADa4I5mGLAgyQ1F0lASAQDdb/oPT/K+5u2NjiMAANBhDyf570n+oSiDAQQAdLDp3zHJB5N8ImUAAAAA0Au3JPnHJJcWydPKIQCgPU3/xCTvSnJakg+kHOoHAADQD9Yl+X4zDPhhkbyoJAIARt/4H5LkT5N8KOUefwAAgH72cJKvJ/lWkaxUDgEA2278357k3CQnOTYAAEAFrU7y7SRfKZKHlEMAwMub/gnNhv+8JEeqCAAAUAMbk1yZ5K+K5GblEAAMeuM/M8l/SnJGkr1VBAAAqKkfJflikVyrFAKAQWv8ZyT5P5KcmWS2igAAAAPiyiT/pUhuUwoBQN0b/8lJ/iTJXybZXUUAAIDBbI1yeTMIuFc5BAB1O7uLJB9M8l+TvFZFAAAAsiHlsMDPFckTyiEAqEPzf3yS+UnepBoAAACvsKrZM32lSNYrhwCgio3/fimvgXmSagAAAGzTHUk+XiTXK0XnTFCCtjb+kxrlVP/bNP8AAAAjdnCS6xrJdxvJzsrRGVYAtK/5f1OSi2O5PwAAwHg8m+S/JPm7ohwaiACgbxr/2Um+lOS0WFEBAADQLj9K8glXCxAA9Evz/x+S/E1c1g8AAKATVif5ZJF8RynGzyfWY2v8pzWSi5L8q+YfAACgY2Ym+YdGcnkjmaMc42MFwOib/0OT/HOSuaoBAADQNQ8l+XCR/FQpxsYKgJE3/kVzwv8vNf8AAABdt3eSHzeS+Y1ksnKMnhUAI2v+d0/yD0neoxoAAAA9d32SPyiSR5RCANDO5v+dSS5LsqtqAAAA9I1Hk/x+kdysFCNjC8DWm//TkvxPzT8AAEDf2SPJdY3kY0ohABhP4z+pkcxPcnGSKSoCAADQl6amvErARY1konJsnS0Ar2z+d0y55P841QAAAKiMq1LOBVipFAKAkTT/hyT5fpL9VQMAAKBy7khycpHcpxSvZAvApub/95LcqPkHAACorIOTXN9IDlUKAcCWmv/3J/m3JDNVAwAAoNJelXI44NFKIQAY3vx/JMnlKYdHAAAAUH1zkvyokZygFAKAVvP/ySTfSTLJqQAAAFAr2ye5opH8B6UY8ACgkZyb5GsxCBEAAKCupia5rJH8sVIMYPPbKEOPi5L8hcMPAAAwEDYm+U9FcokAYLACgK8mOdP5DwAAMFBeSvKhIvkXAcBgNP9fSvJp5z0AAMBA2pDkA0VypQCg3s3/mSk//QcAAGBwrU3ye0VynQCgns3/J5L8rfMcAACAJKuSvLtIbhEA1Kv5/1CS72bAL3kIAADAyzyV5J1FslQAUI/m//1JLk8yybkNAADAMA8lObJInhAAVLv5f0OS65NMd04DAACwBTcmeVeRrKv7G63lsvhGsnuS72v+AQAA2Iajk3xrEN5o7QKARrJdkv8vyV7OYwAAAEbgo43krLq/ydptAWgkf5/kT52/AAAAjMLGJO8rkh8IAKrR/H8qyZedtwAAAIzBqiRvLZLbBQD93fyflOR7SSY6ZwEAABiju5IcUZRhQK3UYgZAI9k/yaWafwAAAMbpwCR/U8c3VvkAoJFMSvJPSWY5TwEAAGiDDzeSDwkA+s9fprxsAwAAALTLNxvJAXV6Q5WeAdBI3pHkmlj6DwAAQPv9IsnbimRDHd5MZVcANJI5Sf5R8w8AAECHHJHks3V5M5VdAdBI/iXJqc5HAAAAOmhjkhOKcvW5AKAHzf/Hk3zTeQgAAEAXPJjkkCJ5rspvonJbABrJq5P8X84/AAAAumSfJJ+v+puo3AqARvJvSd7v/AMAAKCLXkxyZJEsquobqNQKgEby+5p/AAAAemBSkosbFR5EX5kAoJHMTPI15xwAAAA9ckSSTwgAOu+vkuzlfAMAAKCH/mujor1pJWYANJI3JbkpFV5qAQAAQG38a5F8UADQ/uZ/YpKbk7zROQYAAECfOKFIFlbpBVdhC8DHNP8AAAD0mQsaFRus39crABrJdknuTLK3cwsAAIA+80dF8t+q8mL7Pa04XfMPAABAn/piI5kiABinRjI7ybnOJwAAAPrUfklOEwCM339JsqPzCQAAgD72uUaygwBgjBrJnkn+wnkEAABAn9slyf9ehRfal0MAG8nfJ/lT5xEAAAAVsDrJvkXybD+/yL5bAdBI9k156T8AAACogplJPtHvL7IftwCclWSS8wcAAIAKOb2RTBMAjFAjmZPkPzpvAAAAqJhdk3xYADByn0gyw3kDAABABZ3d6OOr7fXNEMBGMjXJ/Ule5ZwBAACgoj5QJN/rxxfWT8nEhzX/AAAAVNw5/frC+mIFQKN8HUuSHOxcAQAAoOLeWiQ39tuL6pcVAL+n+QcAAKAm+vKSgP0SAPyp8wMAAICa+GAjmS0AGKaR7JRknvMDAACAmpiW5IMCgFf6UMorAAAAAEBd/Em/vaCeDwFsJIuSHO7cAAAAoGYOKpJl/fJieroCoJHM1fwDAABQUx/rpxfT6y0A/5vzAQAAgJr640YyaeADgEYyJckfOR8AAACoqd2T/O7ABwBJ3pNkZ+cDAAAANfb7AoDk/c4DAAAAau59jf64Al9vXkTzzZ/kPAAAAKDmdk3yloENAJIcmXIvBAAAANTd+wY5ADjZ8QcAAEAAIAAAAACAuji4kRw4cAFAI9knyVzHHwAAgAHS8w/Ce7EC4H2OOwAAAANm3iAGAO9x3AEAABgwRzeSqQMTADSSIn1y+QMAAADooqlJ3jwwAUCS1yTZ2XEHAABgAL19kAIAn/4DAAAwqN4mAAAAAIABCAAavZnFJwAAAACALtoxyetrHwA0kilJfsfxBgAAYID1bA5AN1cAHJ4eX/IAAAAAeqxncwC6GQBY/g8AAIAAQAAAAAAAtfeaRrKHAAAAAADq7621DQAayZwkr3GMAQAAoDfbALq1AuANSQrHGAAAAHJknQOAwx1fAAAASJK8sZFMFgAAAABAvW2X5GABAAAAANTfEbULABrJ1CSvd2wBAACgxgFAkrnpwd4GAAAAEAB0NwA43HEFAACAlzm0kUwTAAAAAEC9TU7yOwIAAAAAqL+ubgPoaADQSIqUMwAAAACAugYASV6bZAfHFAAAAOodABzmeAIAAMBmHdjo4ofmnQ4ADnE8AQAAYIs9+eECAAAAAKi/rl0JQAAAAAAAAoCxa5TXNDzAsQQAAIAaBwDN5n+KYwkAAABbdEgjmVT1AMDyfwAAANi6aenS6vlOBgAHO44AAACwTV3ZBmAFAAAAAPTWYQIAAAAAqL+urAAoOvGkzSsArIkhgAAAALAtjxTJXp3+I51aAeAKAAAAADAyezaSnasaAFj+DwAAACPX8TkAnQoADnLsAAAAYMQ6Pgegk1sAAAAAgJGZW9UA4EDHDgAAAEas4yvpO3UVgGeS7Oj4AQAAwIisSjK7SBqd+gNtXwHQSHbR/AMAAMCo7JBkj07+gU5sAbD8HwAAAEavo9sABAAAAADQHw6uWgDgCgAAAAAwepVbASAAAAAAgNGr3AoAWwAAAACgzwKAtl4GsFE+35ok0x03AAAAGLVdi+SpTjxxu1cAvFrzDwAAAGPWsTkA7Q4A7P8HAACAsevYNoB2BwCvdawAAACg/gHA/o4VAAAAjFlltgAIAAAAAGDsOnZlvXYHAPs5VgAAADBmezWSaVUIAKwAAAAAgPH16ft36onbopHMSjLHsQIAAIBx6cgV9tq5AuA1jhEAAACMW0eusNfOAMD+fwAAABi/vl8BYP8/AAAADEAAYAUAAAAAjF/fbwGwAgAAAADGryOXArQCAAAAAPpLkQ4M2m9LANAon2cfxwgAAADaou1zANq1AmDPJFMdHwAAAKh3ALCvYwMAAAD1DwBe7dgAAABA/QMA+/8BAACgfdo+aN8KAAAAAOg/ezaSyQIAAAAAqLeJ7e612xUA7O3YAAAAQFu1dRuAFQAAAADQn/btqwCgkcxIMsdxAQAAgBoHALH8HwAAAAYiALD8HwAAANqv72YAWAEAAAAA7bdvvwUAVgAAAABA++3RSLbrpwDACgAAAABov6KdPbcVAAAAANC/9u2nAGAvxwMAAAA6om2DANsRAOzpeAAAAEBH7NMXAUAj2SHJ9o4HAAAAdMS+fREAxPJ/AAAA6KS2zd0bbwCwh2MBAAAAHdO2D94FAAAAANC/9my0Z36fAAAAAAD62OQku/VDAPAqxwIAAAA6qi3bAKwAAAAAAAGAAAAAAAB6rC1XAhAAAAAAQH/r7QqARlIk2d1xAAAAgBoHAEl2SrKd4wAAAAD1DgAs/wdgdN7xjmTnndUBAGB0ej4DQAAAwOiceGJy993JuecmU6eqBwDAyOzZGP8Mv3E9gf3/AIze7NnJ/PnJ4sXJKaeoBwDAtk1OsqsAAIBqOuCA5LLLkoULk7lz1QMAYOvGvQ1gPAHAruoPwLgdd1xy663JxRcnu/pPCwDAFuzZywBgN/UHoC0mTUpOOy1ZtqycDzBlipoAALzcqwQAANTHnDmb5gPMm6ceAACbjHsbvgAAgP5z4IHJFVckP/pRcuih6gEA0OMVADZqAtBZxx+fLFpUzgfYZRf1AAAGWW9WADSSiUl2Un8AOm7ofIAzzii/BwAYPD1bAbBzyhAAALpjxx2TCy9MlixJTjxRPQAAAUCXAgD7/wHojde9LvnBD8r5AIccoh4AwKDYrTG+bfxj/mX7/wHoraHzAXbeWT0AgLqblHI1ftcDACsAAOi9yZPL+QB33mk+AAAwCMY1CNAKAACqrzUfYPHi5L3vVQ8AoK7GNQfACgAA6uP1r0+uvLKcD3DwweoBAAgA2hAAWAEAQP86/vjkV79KLroomTVLPQCAurAFAABeYfLk5PTTk3vvLecDTHT1WgCg8nqyAmAXdQegEnbaadN8gPe8Rz0AgCrryQqAndQdgEo56KDkqquSK65I9t9fPQCAKrICAABGbN68ZOnScj7ADjuoBwBQJePajj/qAKCRTE4yU90BqKwpU8wHAACqaFwfxo9lBcDOSQp1B6Dydt65nA9w883JO96hHgBAv5vTSCZ1OwAAgPp44xuTa68t5wPst596AAD9qsg4ZvIJAACgZd68ZNky8wEAgH425m0AYwkAXAEAgPpqzQdYujQ57bRkwgQ1AQAGNgCwAgCA+ttjj+Tii8v5AMccox4AgAAAAGrtTW9KrruunA+w777qAQD02pgvBWgLAACMxLx5yR13JPPnJzNdDRcA6BkrAACg46ZNS849txwUaD4AACAAAICaa80HuOmm5G1vUw8AoLYBgC0AAJAkb35z8tOfJpddluyzj3oAALULAKwAAICWokhOOWXTfIAZM9QEAKhNALCjegPAMNOnb5oP8NGPlsEAAEBVA4BGMinJDuoNAFuw557Jd75Tzgd461vVAwBotx0bycSOBwBJZiXxkQYAbMsRRyTXX1/OB9h7b/UAANplYpI53QgALP8HgJFqzQdYujT5/OfLywgCAIzfmHrz0QYAs9UZAEZp+vTk/POTu+4yHwAAqEwAMEedAWCM9tqrnA9w443JUUepBwAgAACAWnvLW5Kf/Sz57neT3XdXDwBAAAAAtVUUyUc+ktxzTzkfYLvt1AQAEAAAQG1tv/3L5wMAAHSoNzcEEAD6watfXc4H+PGPk8MPVw8AoOcBgBUAANBJxx6b3HJLOR9gt93UAwDYHFsAAKAWJkx4+XyAqVPVBAAQAABAbc2YUc4HWLIkOeUU9QAAuhoAzFZnAOiy1742ueyy5JprksMOUw8AwAoAAKi1d70rWbSonA+w667qAQACAAEAANRWaz7AnXcm555rPgAADKY5jaToWADQfPId1BkA+sDs2cn8+cnixeYDAMDgmTSW/nw0KwBmJJmozgDQRw44oJwPsHBhMneuegDA4Bj1NoDRBAAz1RcA+tRxxyW33ppcfHGyyy7qAQD1N7uTAcAs9QWAPjZpUnLaaZvmA0yZoiYAUF8d3QJg/z8AVMGcOZvmA8ybpx4AUE+j/pDeCgAAqKsDD0yuuCL50Y+SQw9VDwAQAIyYFQAAUEXHH58sWmQ+AADUiy0AAMBmtOYDLFuWnHFG+T0AUGVWAAAAW7HjjsmFFyZLliQnnqgeACAAEAAAQK297nXJD35Qzgc45BD1AIDqsQUAABiF1nyAiy5KZs9WDwCoDisAAIBRmjw5Of305N57zQcAAAGAAAAAaq81H2Dx4uS971UPABAAAAC19vrXJ1deWc4HOOgg9QCA/mQGAADQJscfn/z61+V8gFmz1AMA+ktHVwD4Lz8ADJrh8wEmTlQTABiAAGCm+gLAgNppp03zAd7zHvUAgN6b2RhdTy8AAABG4aCDkquuSq64Itl/f/UAgN6ZkGT7TgUA26svAJAkmTcvWbq0nA+wgzFBANAjo9oGMKIAoJFMSjJVbQGA35oyxXwAAOitGW0PAEb7pADAANl553I+wM03J+94h3oAQPd0ZAuA5f8AwNa98Y3JtdeW8wH22089AKDzrAAAAHpo3rxk2TLzAQCgogGAFQAAwMi15gMsXZqcdloyYYKaAEBFAgArAACA0dtjj+Tii8v5AG9/u3oAQAUCACsAAICxe9Obkp/+tJwPsO++6gEAfRwAWAEAAIzfvHnJHXck8+cnM2eqBwD0YQBgBQAA0B7TpiXnnlsOCjQfAADGw2UAAYAKaM0HuOmm5G1vUw8A6JMAwBYAAKAz3vzmcj7AZZcl++yjHgAwcrYAAAAVUxTJKadsmg8ww2cPACAAAADqa/r0TfMBPvrRMhgAALoaAIjhAYDu2XPP5DvfKecDHH20egBAFwOA6eoKAHTdEUckN9xQzgfYe2/1AIAuBADT1BUA6InWfIClS5PPf768jCAA0LEAwAoAAKC3pk9Pzj8/uesu8wEAoDSqVNwKAACgWvbaq5wPcOONyVFHqQcAAgABAABQa295S/KznyXf/W6y++7qAYAAQAAAANRWUSQf+Uhyzz3lfIDttlMTAAbJqP7DJwAAAKpv++1fPh8AAAbDxEYyRQAAAAyeV7+6nA/w4x8nhx+uHgAMghGvAhAAAAD1c+yxyS23lPMBdttNPQCosxH36wIAAKCeJkx4+XyAqVPVBAABwNY0kiKjHCwAANA3Zswo5wMsWZKccop6ACAA2IqpGflKAQCA/vTa1yaXXZZcfXVy2GHqAYAAYDxPBgDQ99797mTRonI+wK67qgcAAgABAABQW635AHfemZx7rvkAAFRZW68CIAAAAOpp9uxk/vxk8WLzAQCoKisAAABG7IADyvkACxcmc+eqBwACAACAWjvuuOTWW5OLL0522UU9ABi4AMAlAAGAwTFpUnLaaZvmA0yZoiYADEwA4L96AMDgmTNn03yAefPUA4B+1dYhgMbiAgCD68ADkyuuSH70o+TQQ9UDgH4z4g/tBQAAACNx/PHJokXmAwBQ6wDAFgAAgGTTfIBly5Izzii/B4AaBQBWAAAADLXjjsmFFyZLliQnnqgeANQmALACAABgc173uuQHPyjnAxxyiHoAUPkAwAoAAICtac0HuOiiZPZs9QCgm0bcs1sBAADQDpMnJ6efntx7r/kAAHSTFQAAAD3Rmg+weHHy3veqBwCVCgCsAAAAGK3Xvz658srkiiuS17xGPQAQAAAA1Nq8ecnSpeV8gFmz1AOAdmvrDABbAAAAxmP4fICJE9UEgHaxAgAAoO/stFM5H+C225L3vEc9AOi7AMAKAACAdjr44OSqq8r5APvvrx4A9E0AYAUAAEAnDJ0PsMMO6gHAWLR1BoAAAACgU6ZMMR8AgHH9l0QAAABQJTvvXM4HuPnm5B3vUA8ARqqtKwAmqScAQJe88Y3JtdeW8wH22089ANiWES8dEwAAAPSjefOSZcvMBwCgbT27AAAAoF+15gMsXZqcdloyYYKaADBcW1cATFZPAIAe2mOP5OKLy/kAb3+7egAwlBUAAAC186Y3JT/9aTkfYN991QOAxAwAAIAamzcvueOOZP78ZOZM9QAYbFYAAADU2rRpybnnmg8AgBUAAAADYc89y/kAN92UvO1t6gEweKwAAAAYKG9+czkf4LLLkn32UQ+AweEqAAAAA6coklNO2TQfYMYMNQGoPysAAAAG1vTp5XyAZcuSj360DAYAqCszAAAABt6eeybf+U7y858nRx+tHgACAAEAAECtHXlkcsMN5XyAvfdWD4CaBQCNZERLvQQAAACDoDUfYOnS5POfT7bbTk0AahQCCAAAAHi56dOT889P7r7bfAAAAcAruAoAAEDd7LVXOR/gxhuTo45SD4BqG9EH9xPa9BgAAKroLW9Jfvaz5LvfTXbfXT0ABjwAmKiWAAA1VhTJRz6S3HOP+QAANTaSAMDGMACAQbD99uV8gLvuKucDAFAVbbsKgC0AAACD5NWvLucD/PjHyeGHqwfAAAUAVgAAAAyiY49NbrmlnA+w227qATAAAYAVAAAAg2rChJfPB5g6VU0ABAAAANTWjBnlfIAlS5JTTlEPgAqyBQAAgJF77WuTyy5Lrr46Oeww9QDoD1YAAADQIe9+d7JoUTkfYNdd1QOgJgGAFQAAAGzm/0k25wPceWdy7rnmAwAIAAAAqLXZs5P585PFi80HAKhqANCw/B8AgJE64IByPsDChcncueoBUKUAIAIAAABG67jjkltvTS6+ONllF/UAqEgAYPk/AACjN2lSctppm+YDTJmiJgB9HgBYAQAAwNjNmbNpPsC8eeoB0McBgBUAAACM34EHJldckfzoR8mhh6oHQA9YAQAAQPccf3yyaFE5H2DnndUDoD2sAAAAoA8NnQ9wxhnl9wD0PABoqCMAAAD0tY0jeZC4FQCA7tqwIfn2t5PPfCZ5+mn1AOiTAMAKAAAA2mfhwuSss5IlS9QCoMsBgC0AAAB03p13JiefnJxwguYfoEcBgC0AAAB0zvLlyZe/nHz1q8n69eoB0McBgBUAAACM3osvJpdckpx3XvLUU+oB0Fkj6t0FAAAAtNfVV5f7/BcvVguA7jADAACALrr77uTUU5Pjj9f8A/RhAGAGAAAA47NiRTJ/fnLhhcm6deoBUNEAwAoAAAC28H83NyaXXpqcfXby5JPqASAAAACgdq65ptznf9ttagFQkQBggjoBADBi99xT7vM/7jjNP0DFAgArAAAA2LY1a5KvfCX50pfs8wcQAAAAUL//S9nc53/OOckTT6gHQI0DAAAABtVPfpKceWby61+rBUAfK9oxA6CwAgAAYPA8/HDysY8l73qX5h+g/424b580wicr1BQAoOaeey654IJk/vzkhRfUA6AaXmpnALAxyUQ1BQCoqdY+/099Knn8cfUAqJYN7QwAXhIAAADU1E03lfv8f/5ztQCophdH+sAJ7XwyAAAqorXP/+ijNf8AAxIAjHQFAAAAdWCfP0DdtH0LAAAAVdZoJJdfnpx9dvLQQ+oBUB9WAAAA0HTzzeU+/xtvVAuAAQ4ARjIDQAAAAFBFv/lNuc//qKM0/wD1ZQsAAMDAev755OtfT77whWTNGvUAqLe2bgFwFQAAgCpo7fM/55zkwQfVA0AAMOoAwAoAAIB+94tfJGedldxwg1oADJYRbwEwAwAAoMoeeST5+MfLff6af4BBZAUAAECtrV2bfO1ryRe/mKxerR4Ag8sQQACA2lqwIPnkJ5MHHlALAFwGEACgdm65JTnmmOTkkzX/AHQkAHAVAACAXnr00XKf/5FHJtdfrx4ADGULAABA5dnnD8C2tXUIoBUAAADdtmBBcvrpyf33qwUAW7N+pA8cyRaADeoJANAlt96avPOd5T5/zT8A27ZOAAAAUCWPPbZpn/9116kHAG0PAEayBWC9egIAdMj69ck3v5l89rPJqlXqAUBPAwArAAAAOmHBguSMM5L77lMLADoeAIxkC4AVAAAA7bRoUXLsseU+f80/AAIAAICaeeaZ5MwzkyOOSK69Vj0A6GoAYAsAAECnbdiQfOMbyec+l6xcqR4A9G0AYAUAAMBYLVhQfup/771qAUBPAwBbAAAAOmHp0uS97y33+Wv+AeicF9oZANgCAAAwUs8+W37iP3ductVV6gFAp9kCAADQVa19/uefn6xYoR4ACAAAAGpn4cLyU//bb1cLAPo2ALAFAABgrJYtS046KTnhBM0/AAIAAIDaGbrP/8or1QOASgQAtgAAAIzUhg3Jt7+dfOYzydNPqwcAAgAAgNpZuDA566xkyRK1AKCSAcBItgAIAACAwXXXXcnJJ5f7/DX/APSftSN94EhWAKxTTwBg4Cxfnnz5y8lXv5qs93kIAH3r+XYGAGvVEwAYGC++mFxySXLeeclTT6kHAAMVALygngDAQLj66nKf/+LFagFAVYz4Q/uRzAAQAAAA9Xb33cmppybHH6/5B6BqrAAAANimFSuS+fOTCy9M1hl7BEAltXUIoAAAAKiXjRuTSy9Nzj47efJJ9QCgqjYUyYZ2BgCGAAIA9XHNNeU+/9tuUwsAqm5U/boZAADAYLjnnnKf/3HHaf4BqIvnR/NgWwAAgHpbsyb5yleSL33JPn8A6mZUKwAEAABAPbX2+Z9zTvLEE+oBQB21fQWAGQAAQLX85CfJmWcmv/61WgAgAGgyAwAAqI+HH04+9rHkXe/S/AMwCNq7BaBI1jWSjRlZWAAA0H3PPZdccEEyf37ygs8uABgYbd8CkCTrkkxTWwCgr7T2+X/qU8njj6sHAIOm7UMAk3IbgAAAAOgfN91U7vP/+c/VAoBB1fYZAIlBgABAv/jNb8p9/kcfrfkHQAAwCiNdASAAAAB6yz5/ABhudScCgOfVFQDoiUYjufzy5Oyzk4ceUg8AEAAAALVz883lPv8bb1QLAHilNaN58EhnADynrgBA17T2+R91lOYfANoUAIx0BYAAAADovOefT77+9eQLX0jWrFEPANi6jmwBEAAAAJ3T2ud/zjnJgw+qBwCMjBUAAECF/OIXyVlnJTfcoBYA0MEAwAwAAKA3Hnkk+fjHy33+mn8AGAtbAACAPrZ2bfK1ryVf/GKyerV6AMDYdWQLgMsAAgDjt2BB8slPJg88oBYAMH6jStJtAQAAOu+WW5JjjklOPlnzDwDtYwYAANAnHn203Od/5JHJ9derBwD0MAAwAwAAaL/165NvfjM57zz7/AGgM14okg0CAACgdxYsSE4/Pbn/frUAgM5ZM9pfsAUAAGiPW29N3vnOcp+/5h8ABAAAQM089timff7XXaceANAdo95j5zKAAMDYtPb5f/azyapV6gEA3bWyUwGA6T0AwCYLFiRnnJHcd59aAEBFAoCRbgEQAAAAyaJFybHHlvv8Nf8A0EsrBAAAQPs980xy5pnJEUck116rHgDQe53ZAlAkaxvJ+iRT1BgABsiGDck3vpF87nPJypXqAQB1DwCa1iTZUY0BYEAsWFB+6n/vvWoBADUIACaM4rHG+wLAIFi6NDnxxHKfv+YfAAQAAEDNPPts+Yn/3LnJD3+oHgBQswBgNFsADAIEgDpq7fM///xkxQr1AAABgBUAAFA7CxeWn/rffrtaAEDNAwBbAABgEN15Z3LSSckJJ2j+AUAAIAAAgNpp7fM/9NDkyivVAwAGKAAwAwAABsGGDcm3v5185jPJ00+rBwBU3woBAADwcgsXJmedlSxZohYAUA8bk6wZ7S/ZAgAAdXXXXcnJJ5f7/DX/AFAnq4qkMdpfchUAAKib5cuTL385+epXk/Xr1QMAahgAjOWXbAEAgLp48cXkkkuS885LnnpKPQCgvp7pdACwUo0BoE9dfXW5z3/xYrUAgPpbPpZfGs0MgBVqDAB95u67k1NPTY4/XvMPAIOj4ysABAAA0C9WrEjmz08uvDBZt049AGCwPNvpAGC5GgNAj23cmFx6aXL22cmTT6oHAAgABAAAUDvXXFPu87/tNrUAgMHW2RkARbI+yVp1BoAuu+eecp//ccdp/gGApAsrAJIyZZim1gDQBWvWJF/5SvKlL9nnDwD0JADYQ60BoINa+/zPOSd54gn1AAB6EgCsUGcA6KCf/KTc5/+rX6kFANDWAGDCKB9vECAAdMLDDycf+1jyrndp/gGAjgQAVgAAQC8991xywQXJ/PnJCy+oBwDQNwGAFQAA0A6tff6f+lTy+OPqAQCM1AvFGK/QZwUAAHTbTTclZ56Z/PznagEAjNYzY/3F0c4AEAAAwFj95jflPv+jj9b8AwBj9exYf9EWAADoNPv8AYD2GXNfbgsAAHRKo5Fcfnly9tnJQw+pBwDQDk91KwCwAgAARuLmm8t9/jfeqBYAQDs9PdZfHO0MgGfUGgC2orXP/6ijNP8AQCc8OdZfHO0KAAEAAGzO888nX/968oUvJGvWqAcA0Cld2wLwdJJGkkLNASCb9vmfc07y4IPqAQD0bQAwqi0ARbI+yWr1BoAkv/xlcswxyamnav4BgHoFAE22AQAw2B55JPn4x5O3vCW54Qb1AAC6acxDACeN8Y/tp+YADJy1a5OvfS354heT1RbEAQA90bUZAK0AAAAGy4IFySc/mTzwgFoAAL3UtcsAJrYAADBIbrml3Od/8smafwCg11Y2Z/N1LQCwAgCA+nv00XKf/5FHJtdfrx4AQD94ajy/PJYtAFYAAFBf69cn3/xmct559vkDAAMfAFgBAEA9LViQnH56cv/9agEA1C4AMAMAAG69NXnnO8t9/pp/AEAA8FtWAABQD08/nZx5ZrnP/7rr1AMAqHUAYAsAAIOntc//s59NVq1SDwCgKsbVjwsAABgsCxYkZ5yR3HefWgAAVfPYeH55rDMAGuoOQKUsWpQce2y5z1/zDwBU0xNdDQCKZH2SleoOQCU880y5z/+II5Jrr1UPAKDKxrUCYNIYf++JJLPVHoC+tWFD8o1vJJ/7XLJSbg0A1MLjvQoAXqf2APSlBQvKT/3vvVctAIC6WJdk+XieYMIYf+8JtQeg7yxdmpx4YrnPX/MPANTLE8U45/EJAACovmefLT/xnzs3+eEP1QMAqKPHx/sE49kCAAC91drnf/75yYoV6gEA1Nlj430CAQAA1bRwYfmp/+23qwUAMAjGvQLAFgAAquXOO5OTTkpOOEHzDwAIAAQAANROa5//oYcmV16pHgDAoBl3H24LAAD97cUXk0suST7zmeTpp9UDABhUhgACUGMLFyZnnZUsWaIWAMCgG/cQwDFtASiStUlWqz8AHXHXXcnJJ5f7/DX/AABJD2cAJFYBANBuy5cnn/50MndusmCBegAAtLEHnzTOP/5axwCAcWvt8z/vvOSpp9QDAODlnm2uxO9ZAPCkYwDAuF19dbnPf/FitQAA2LzftONJxrMF4DHHAIAxu/vu5NRTk+OP1/wDAGzdI+14kkm9fgEADJgVK5L585MLL0zWrVMPAIAKBACPOgYAjMqVVyYXXJA8/bRaAABUKACwAgCA0bnuOjUAABi9ns8AsAIAAAAAOq8tH8BP6PULAAAAALaqtysAimRFkuccBwAAAOionq8ASFwKEAAAADppbZE82w8BgG0AAAAA0Dlt67sFAAAAACAA2CZXAgAAAIDO+U27nkgAAAAAAP3LFgAAAAAYAG374N0KAAAAAOhfD/ZLAGAFAAAAAFQgACjG88uNZEqStRl/kAAAAAC80k5F8mw7nmhcjXuRrE/yhOMBAAAAbbemXc3/uAOApoccEwAAAGi7B9v5ZBP67QUBAAAA/RkAWAEAAAAAAgAAAACg1/22LQAAAADQn6wAAAAAAAFA9wMAKwAAAACgzwOAoh1P0khWJtnBsQEAAIC2WJ9kWpFsbNcTTmjT8zzs2AAAAEDb/KadzX87AwDbAAAAAKB92t5nCwAAAABAADBitgAAAABA+9zbrwHAA44NAAAAtM19/RoA3OfYAAAAQNv07QqAex0bAAAA6N8AoGjXEzWSFUlmOUYAAAAwLquLZId2P+mENj6XbQAAAAAwfh1ZZT+h318gAAAACAAEAAAAAFA3HVlhbwsAAAAA9BcrAAAAAGAA9P0KAAEAAAAA9Gl/3c7LAE5M8nySKY4VAAAAjMmLSaYXyYZ2P3HbVgAUyUtJHnSsAAAAYMwe6kTz39YAoOkexwoAAADGrGPb69sdALgSAAAAAIzdXVUJAKwAAAAAgLG7syoBwF2OFQAAANQ/AFjmWAEAAED/BQBFO5+sUQYKzyXZzjEDAACAUVmbZEaRbOzEk7d1BUDzRd7tmAEAAMCo3d2p5r/tAUCTbQAAAAAwend28sknVO0FAwAAgABAAAAAAAACgC4FALYAAAAAQJ8FAEW7n7CRzEiyqhPPDQAAADU2p0hWdOrJ274CoEjWJHnUcQMAAIARe7yTzX9HAoAm2wAAAABg5Do+T08AAAAAAAKA/n3hAAAAUCO3VzUAuN2xAwAAgBFbUtUA4DbHDgAAAEasmisAiuTpJI87fgAAALBNTxfJE5UMAJoWO4YAAACwTV3ZRi8AAAAAAAGAAAAAAAAEAAIAAAAAqEQAUHTqiRvJdknWJJnoWAIAAMAW7dIcpt9RHVsBUCQvJLnHcQQAAIAteqIbzX9HA4Am2wAAAABgy5Z06w8JAAAAAKB3bu/WHxIAAAAAgABg3G5zLAEAAGCLft2tP1R08skb5fM/m2S2YwoAAAAv81KSHYrk+W78sY6uACiSRpJFjikAAAC8wrJuNf8dDwCafumYAgAAwCv8qpt/rBsBwC2OKQAAAAgAAAAAQADQYUWn/0BzEODTSXZ0bAEAAOC3dinKfrkrOr4CwCBAAAAAeIWHu9n8dyUAaLINAAAAADb5Vbf/oAAAAAAABABt41KAAAAAMAABwP1JnnF8AQAAIEkPZuV1JQAwCBAAAAB+a0WSB2oZADT93DEGAACA3Nz8oLy2AcDPHGMAAADIzb34o90MAG5MstFxBgAAYMD9otYBQFHucbjDcQYAAEAAUOMAoOkGxxkAAIAB9lCRPCYAAAAAgHq7uVd/uNsBgEGAAAAADLJf9OoPdzUAKJJ706OlDgAAANAHBmYFQFJeDQAAAAAGzcYktw5SAGAOAAAAAINoaZGsEgAAAABAvd3cyz/eiwBgUZLVjjsAAAADpqeD8bseABTJ+iT/7rgDAAAwQBpJfjhQAUDT9x17AAAABsjNRfLIIAYAP0jyouMPAADAgLii1y+gJwFAkTwbwwABAAAYHD1fCT9hkN88AAAAdMGDRbJ4kAOA7zkHAAAAGAD/1g8vomcBQJHcm+QO5wEAAAA1d0U/vIgJPf77/6/zAAAAgBp7JslPBQDJd1NeCxEAAADq6J+LZP3ABwBFcneS650PAAAA1NS3++WFTFAMAAAA6IjFRbJIALDJZUlWOy8AAAComf+nn15MzwOAInkuyeXOCwAAAGpkQ5J/FgC8km0AAAAA1MmCInlKADBMUV4S4U7nBwAAADXRdx90T+ij1/J3zg8AAABq4MEkPxQAbNm3kqxwngAAAFBxFxbJiwKALSjKKwF8y3kCAABAhS1Pn03/77sAoOmiJOudLwAAAFTUN4s+vdR9XwUARfJo+uwyCQAAADBC65J8vV9f3IQ+fE1fTrLReQMAAEDF/FORPCYAGKEiWZbkKucNAAAAFdJI8tV+foET+vR1/bVzBwAAgApZUCS39/MLLPr1hTWSf0/yu84hAAAA+tzGJG8ukkX9/CIn9PFr+1TMAgAAAKD/XdrvzX/SxysAkqSRXJrkj5xLAAAA9Kn1SQ4qkvv6/YVO6PPX95mUl1EAAACAfvS3VWj++z4AKJIHklzsfAIAAKAPrU7ypaq82AkVeI1/lWSV8woAAIA+89dF8qQAoE2K5OkkFzivAAAA6COPJ7mwSi+4qMKLbCTTkixO8hrnGAAAAH3gw0U5uL4yqrAFIEWyNsmfO78AAADoAz9O8s9Ve9FFlV5soyzwHzrXAAAA6JG1SeYWyb1Ve+ETKvZ6z0qy3PkGAABAj/xVFZv/ygUARfJEkk873wAAAOiB21PhIfVF1V5wo3zN1yV5u3MPAACALtmY5B1FckNV30DVtgCkSBpJ/izJeucfAAAAXfKtKjf/lQwAmiHA7UnOc/4BAADQBfcm+VTV30RR1RfeKMOLq5Kc4FwEAACgQzYkOaZIbqr6G5lQ1RdelPsvPpJyMCAAAAB0wnl1aP6bfXS1NZL3JvlBHd4LAAAAfeXaJMcVyUt1eDMTqv4GiuSHSf7GeQkAAEAbLU/ykbo0/83+ufoaydSUSzJ+xzkKAABAG3ygSL5Xpzc0oQ5vokjWJflQkjXOUQAAAMbporo1/83euT4ayQeS/GtqEmwAAADQdQuTvLdIXqzbG6tVo1wk/5bk885XAAAAxuD+JH9Yx+a/2TPXS6N8T5cm+UPnLgAAACO0OsnRRXJ7Xd9gLS+d10impbxcwxHOYQAAALZhY5L3F8mCOr/JWu6VL5K1KecBPOI8BgAAYBvOqXvz3+yV66uRvDXJ1Um2cz4DAACwGd8ukv84CG+01tPyi+RnSU5NssE5DQAAwDDfT3LaoLzZ2l8ur0iuSPInKfd0AAAAQJJck+R/revE/4EMAJohwKVJ/sL5DQAAQJKbk3ygSF4YpDc9YVDeaJF8I8lnnOcAAAADbUmSE4vysn8DpRi0N9xI5ic51zkPAAAwcO5NckyRPDaIb34QA4Aiyd8m+TPnPgAAwMB4OMk7i+T+QS3AhEF7w0XSSPLnSS5w/gMAAAyE+5IcO8jN/0AGAK0QoEjOSfJp/x4AAADU2u0pl/3fN+iFKAa9AI3kPyf5WgY0DAEAAKixm1MO/HtGKQQArRDgw0m+nWSSagAAANTCNUneXyRrlEIAMDwEeF+Sf0mynWoAAABU2veS/EGRvKAUm1j23lQk309yUpJnVQMAAKCyvprkf9H8b7bvZahG8pqUadEhqgEAAFAZ65N8okguUQoBwGhCgJlJ/jHJ+1UDAACg7z2d5INFcq1SbJktAJtRJKuT/H6SvyzzAAAAAPrUr5O8WfM/ol6XrWkkf5ByCck01QAAAOgrlyf54yJ5Tim2zQqAbSiS/57k2CT3qwYAAEBf2JDk00lO1fyPqr9lJBrJDkn+JsmHVQMAAKBnHkjy4SK5QSlGxwqAESqSVUXykSSnJlmhIgAAAF33P5K8QfM/5r6W0Wok+yb5pyRvUw0AAICOW5XkPxdlH8YYWQEwBkW55OTYlFcJeElFAAAAOuamJG/U/Lell2U8GskxSS5OcpBqAAAAtM1zSc5PclGRvKgcAoB+CQEmJ/nzJF9Msr2KAAAAjMsPkvxFc/U1AoC+DAJek+Rvk/yuagAAAIzaY0k+XSTfVQoBQFWCgFOS/N9JdlUNAACAkbRR+bsk5xTlwD86wBDADijKS1MclHI2gL0qAAAAW3ZjkqOL5OOafwFAVUOAZ4vkz5IckjIQaKgKAADAby1LcmqStxXlpH8636fSDY3kiCTzk7xbNQAAgAH2SJL/M8klpvsLAOoeBByf5K+TvEE1AACAAbI8yZeTfK1I1iqHAGBQQoAJSf4gyblJDlMRAACgxp5JebW0rxZlCIAAYGDDgLc3g4CTHA8AAKBG7k9yUZK/L5LnlEMAwKYg4LAkZ6dcGTBZRQAAgIpalOTCJP9sj78AgK0HAXsnOSPJnyaZpSIAAEAFvJTkqiQXFMlPlEMAwOiCgKlJ3pfko0l+L8kkVQEAAPrMQ0n+W5JvFskDyiEAYPxhwJ5JPpxyVcABKgIAAPTQ2iQLknwrydVF0lASAQDtDwKKlEMD/yTJ+5PsqCoAAEAXvJjkuiTfTfKvRbJGSQQAdC8MmJjk6CTzUm4VOEhVAACANno+yTVJrkjyvSJ5QkkEAPRHILB/kpObgcCxMTMAAAAYvadSDvP7H0n+Z5GsUxIBAP0dBuyS5Jgkb0lyZJI3J5mhMgAAwDC/SXJ9kp81v/7Knn4BANUOBCYmObgZBrwhyeFJDksyU3UAAGBgrE3yqyS/THJjkuuL5GFlEQBQ/1BgQpLXNMOANzQDgoOT7BfbBwAAoOpeSHJbkluaDf8vk9xRlMP8EABA0kgmJ3l1kkOagcD+zftWDAAAQP/ZkPJT/DuS3N78ekuSZUXykvIgAGCs4cDeSV6X8ooDBzXvvy7JHqoDAAAd9WKSu5tN/tDb3UUZAoAAgK4EA9ul3DqwX5J9h9xv3eaoEgAAjMgTSe5Lcm/ztjTlp/p3Fsl65UEAQBUCgj1SbicYfjswthYAADA4XkzyULPJH367u0hWKRECAOocEOzSDAhe3fy655D7ezW/n61SAABUxNMpL6/X+iR/6Cf6DxnEhwAAth4StFYR7JHkVUO+7j/k/j4pL3kIAACd8kKSR5tN/WObue9TfAQA0IWQYHLK1QS7NQOB1v3dk+za/Lpb8+e7Ov8BABhmZcpP7h9qfm3df6R5/8EieV6ZEABAtcKCic0QoLX9YOj94SHCTinDBQAAqmdtksebtydTfkr/xJD7T6b89P6JonwsCABgwAODHZphwM7NQKD1tXV/l838XGgAANAZ61Lus3+s2dg/lfJT+ieHN/tFslq5QAAA3QgNdt1MMND6fseUl0hs3WY3v/r3EgAYJBuSPNNs6Ftfn2ze3+zPi2SNsoEAAOoQHMweEgYMDwe29b1VBwBAL61MsiLJ8iFfn9laQ29gHggAgLGFBzOGBAKzUq5CaN3mDPu+dZvVfPzM5vfbqSQADKwNm2ngh3/d0v0VRbJRCUEAAFQnRJgyytBgesrgYVbz/vbN+zNiRQIAdNOalPvdVzW/rhhyf+jXFc37q1N+Yv/bJt7SehAAAIw1TJi8lXBgeHAwvRkqbO2fTW3eB4A6eKnZkK9JOX1+9bD7K4c07kOb9+E/W5Xy0/eGkgICAKBuwcLMlCsVZqXcsjAt5cqE1uqFac2fz2r+rLVSYWozSJjSDBi2b96f0/y6faxcAOCVVid5MeUn5etSXgd+RbNRX9v8+QtD7rd+vqL52LXNZn7o/eeKZL3SAgIAgN6HDLOb/xs5p/mjoV+LbPrnQ79OaIYOw79ObAYTra+TmqHE8K8AjEzrk/NGs8nekPKT81YT/lzK5npl87Ermg386iENfOsxq5qPWT7keVuPeb4o7wMIAADoWPDQWsXQCg0yJCxorVZIXvn4VuiQbFrNsLXHZ0g4MfRvDP19gDSb6daAt+XNrxubP8+QJrzVlCebPjlf22zOW48Z+hytx7Sa91ajPvQxa5q/+0JRPgYAAQAAHQomWtslMiw8aG3BSF4+o2Fo6NCaBZG8PNAY/lzDn2/48ySvXC0x/PlaqzGGmj3sv3eCDbql9QnzSL9/Pi//tHlb37ea6s19P7QJb32qnWENeOtT7uG/O/R1rS7KhhwAAQAA1EPjleHDlkKHoeZs4edDV1IMN3sU//3dXKCxNVXcTrJ8lI9f32xQR2po8zvskP+2QR5uRTY/TK21VHy4NUXZWAMAAAAAAAAAAECH/f8CPF3+KmGQ3AAAACV0RVh0ZGF0ZTpjcmVhdGUAMjAyMS0xMC0xNVQwNzo1MTowOSswMDowMPVSq9YAAAAldEVYdGRhdGU6bW9kaWZ5ADIwMjEtMTAtMTVUMDc6NTE6MDkrMDA6MDCEDxNqAAAAAElFTkSuQmCC;" vertex="1" parent="cGCoYNdKHb_dJwUcVTwO-8">
          <mxGeometry width="60" height="41.48" as="geometry" />
        </mxCell>
        <UserObject label="&lt;a href=&quot;https://youtu.be/xadv93LlbY4&quot;&gt;YouTube&lt;/a&gt;" linkTarget="_blank" id="cGCoYNdKHb_dJwUcVTwO-2">
          <mxCell style="text;html=1;strokeColor=none;fillColor=none;whiteSpace=wrap;align=center;verticalAlign=middle;fontColor=#0000EE;fontStyle=4;fontSize=21;" vertex="1" parent="cGCoYNdKHb_dJwUcVTwO-8">
            <mxGeometry x="66" y="0.7400000000000091" width="77" height="40" as="geometry" />
          </mxCell>
        </UserObject>
        <mxCell id="cGCoYNdKHb_dJwUcVTwO-15" value="" style="group" vertex="1" connectable="0" parent="1">
          <mxGeometry x="2660" y="850" width="143" height="41.48000000000002" as="geometry" />
        </mxCell>
        <mxCell id="cGCoYNdKHb_dJwUcVTwO-16" value="" style="shape=image;verticalLabelPosition=bottom;labelBackgroundColor=default;verticalAlign=top;aspect=fixed;imageAspect=0;image=data:image/png,iVBORw0KGgoAAAANSUhEUgAABAAAAALECAYAAACWtEIbAAAABGdBTUEAALGPC/xhBQAAACBjSFJNAAB6JgAAgIQAAPoAAACA6AAAdTAAAOpgAAA6mAAAF3CculE8AAAABmJLR0QA/wD/AP+gvaeTAAA+OElEQVR42u3debyddX0v+s+TkYSEJMwCMikoQygOIKgoCtQKQe25wm3r1J7eg7WnMtwL4nmJYm/1GHvxJehtFduL1ZaeUw69t0pEegwoCCIoREkgYZ5kHjJCSAJZ949nLbPZZNjDmp5nvd+v13rttTdrr73W93kQv5/1+32fBAAAAAAAAACovkIJAKDUSGYmmTSCh05OMmMUTz17nP/NnZTytXXTmiQbRvk7q5K8NMrfWZlk41b++XNFst7ZCQACAADa3/wWzYa1ZUqS7Yd8v33zZ5trboc3qtOSbDfk+6EN9rb+zub+1uZ+b0t/a2vN9+b+FtWysRkebM7aJC9s4Z8t38LPX2j+3pB/JbJi2GOGBxzPJ1k35Pv1SZ7bxmtc0XzulqFBy/DHD33s6iQvtv5u8fK/CwACAIA+bbSnJpmeTZ8it5rmCUlmDWtwZzQflyRzml+Hfvo8tEFuNbpDm/ChTfEOSSYO+Ttp/rNpjgpU1rpmEJFmQLB60//UvCzAGLrSYmjo0ApLhj5+aICyfCs/GxqavOJnxZbDFgAEAAA9acZbDfIOzUZ6hyFN86zmz2Zuo0lvNd6zmv+89fhW8z49ZdO/pU+oAepsaFCwohk2tFZPtIKF1mNaqyg2NIOKVqjxUsoVGK1VEkMDi+XDnrsVdqwqRr8lBUAAANDDBn16yk+5ZzYb7O2a389oNuezs+kT9ZnNhnv4z6YM+d1pw5p9AOqtteJhVfPryiFBw3PN+yua/2z1kDBidfNnK4Y8vhVcrBzynC8UL98+AiAAAAamYZ/TbNBbTfrsId/PbDbdre9nNX/W+n72Zn7X/04BUKWgYXk2bc1Y0QwT1jZ/vrb585XNQGFtM0RYMyR0WN28vyZWMQACAKBDjfv0ZkM+/DZnCz+f1Wzmhzbx01USANqqtfpg5ZAAYcXQkKD5/erm96uH/Wz10McVLx9CCQgAgIo28LOS7NRs2LfWtLdus5u31veTVREAam/N8FBgSFDQuq0Ydn9l8+uKJCuLV14hAxAAAGNs5KcNaeI3d3tVkj2G/WxnDTwA0EUvpNzWsLnb2m3886eKTVeiAAQAUItGfmKzMd8lya5Jdkv5Cf2OW7ntlHKKPABAna1shgHPDLk927xt7v4zSZ61hQEEANDNpn5Ws5HfpXnbrdncD23ydxly8+8YAED7PLOVkODZJE8leaL59akkTxflZSEBzQkkjbJp3y3JXlto5Ic2+VNVDACgMjYODQOSPNb8+lSSJ4eFBY8X5VwEEABABRv7HZpNfWvP/J7N+62veyXZPeX14AEAYN2QQODRJI8neaQZHDzS/NmjSZ6wsgABAHSnsZ+acq98q7Ef+nX/5v09Uk64BwCATljeDAYe3czX+5r3HxcUIACArTf42zUb+P2H3VpN/n7OXQAAKmB9kt8MCQRa4UDr9mCRvKRMCACoc4M/K8m+SfZpft132Pc7qhIAAANgXZKHkjzYvD0w5Os9RRkagACAvm7wJzUb+dclOWAzDf5sVQIAgG1ameTOJMuatzuTLE1yb1GuLgABAF1r9HdN8vokBw65vT7lEn2D9QAAoDNeTLmFYGgwcHuSxUXyvPIgAGCsTf70YQ3+65q3A1Mu5QcAAPrDS0nuSvKr5u2WJL9weUMEAAxv9HdIcmiSuc1b65P9vZwnAABQ6VDgjiQ/a96uK8oZAwgAGIBGf1KzuT80yWHNZv/QlHvzAQCA+rs7ycLm7d+L5DklEQBQ/WZ/crO5f2OSNzW/HpZkmuoAAAApZwb8IMm/JPmhGQICAKrT8M9I8p4kJzQb/sNiGB8AADAya5Nck+SKJFcUyaNKIgCgv5r+XZP8XpJTmo3/VFUBAADa4I5mGLAgyQ1F0lASAQDdb/oPT/K+5u2NjiMAANBhDyf570n+oSiDAQQAdLDp3zHJB5N8ImUAAAAA0Au3JPnHJJcWydPKIQCgPU3/xCTvSnJakg+kHOoHAADQD9Yl+X4zDPhhkbyoJAIARt/4H5LkT5N8KOUefwAAgH72cJKvJ/lWkaxUDgEA2278357k3CQnOTYAAEAFrU7y7SRfKZKHlEMAwMub/gnNhv+8JEeqCAAAUAMbk1yZ5K+K5GblEAAMeuM/M8l/SnJGkr1VBAAAqKkfJflikVyrFAKAQWv8ZyT5P5KcmWS2igAAAAPiyiT/pUhuUwoBQN0b/8lJ/iTJXybZXUUAAIDBbI1yeTMIuFc5BAB1O7uLJB9M8l+TvFZFAAAAsiHlsMDPFckTyiEAqEPzf3yS+UnepBoAAACvsKrZM32lSNYrhwCgio3/fimvgXmSagAAAGzTHUk+XiTXK0XnTFCCtjb+kxrlVP/bNP8AAAAjdnCS6xrJdxvJzsrRGVYAtK/5f1OSi2O5PwAAwHg8m+S/JPm7ohwaiACgbxr/2Um+lOS0WFEBAADQLj9K8glXCxAA9Evz/x+S/E1c1g8AAKATVif5ZJF8RynGzyfWY2v8pzWSi5L8q+YfAACgY2Ym+YdGcnkjmaMc42MFwOib/0OT/HOSuaoBAADQNQ8l+XCR/FQpxsYKgJE3/kVzwv8vNf8AAABdt3eSHzeS+Y1ksnKMnhUAI2v+d0/yD0neoxoAAAA9d32SPyiSR5RCANDO5v+dSS5LsqtqAAAA9I1Hk/x+kdysFCNjC8DWm//TkvxPzT8AAEDf2SPJdY3kY0ohABhP4z+pkcxPcnGSKSoCAADQl6amvErARY1konJsnS0Ar2z+d0y55P841QAAAKiMq1LOBVipFAKAkTT/hyT5fpL9VQMAAKBy7khycpHcpxSvZAvApub/95LcqPkHAACorIOTXN9IDlUKAcCWmv/3J/m3JDNVAwAAoNJelXI44NFKIQAY3vx/JMnlKYdHAAAAUH1zkvyokZygFAKAVvP/ySTfSTLJqQAAAFAr2ye5opH8B6UY8ACgkZyb5GsxCBEAAKCupia5rJH8sVIMYPPbKEOPi5L8hcMPAAAwEDYm+U9FcokAYLACgK8mOdP5DwAAMFBeSvKhIvkXAcBgNP9fSvJp5z0AAMBA2pDkA0VypQCg3s3/mSk//QcAAGBwrU3ye0VynQCgns3/J5L8rfMcAACAJKuSvLtIbhEA1Kv5/1CS72bAL3kIAADAyzyV5J1FslQAUI/m//1JLk8yybkNAADAMA8lObJInhAAVLv5f0OS65NMd04DAACwBTcmeVeRrKv7G63lsvhGsnuS72v+AQAA2Iajk3xrEN5o7QKARrJdkv8vyV7OYwAAAEbgo43krLq/ydptAWgkf5/kT52/AAAAjMLGJO8rkh8IAKrR/H8qyZedtwAAAIzBqiRvLZLbBQD93fyflOR7SSY6ZwEAABiju5IcUZRhQK3UYgZAI9k/yaWafwAAAMbpwCR/U8c3VvkAoJFMSvJPSWY5TwEAAGiDDzeSDwkA+s9fprxsAwAAALTLNxvJAXV6Q5WeAdBI3pHkmlj6DwAAQPv9IsnbimRDHd5MZVcANJI5Sf5R8w8AAECHHJHks3V5M5VdAdBI/iXJqc5HAAAAOmhjkhOKcvW5AKAHzf/Hk3zTeQgAAEAXPJjkkCJ5rspvonJbABrJq5P8X84/AAAAumSfJJ+v+puo3AqARvJvSd7v/AMAAKCLXkxyZJEsquobqNQKgEby+5p/AAAAemBSkosbFR5EX5kAoJHMTPI15xwAAAA9ckSSTwgAOu+vkuzlfAMAAKCH/mujor1pJWYANJI3JbkpFV5qAQAAQG38a5F8UADQ/uZ/YpKbk7zROQYAAECfOKFIFlbpBVdhC8DHNP8AAAD0mQsaFRus39crABrJdknuTLK3cwsAAIA+80dF8t+q8mL7Pa04XfMPAABAn/piI5kiABinRjI7ybnOJwAAAPrUfklOEwCM339JsqPzCQAAgD72uUaygwBgjBrJnkn+wnkEAABAn9slyf9ehRfal0MAG8nfJ/lT5xEAAAAVsDrJvkXybD+/yL5bAdBI9k156T8AAACogplJPtHvL7IftwCclWSS8wcAAIAKOb2RTBMAjFAjmZPkPzpvAAAAqJhdk3xYADByn0gyw3kDAABABZ3d6OOr7fXNEMBGMjXJ/Ule5ZwBAACgoj5QJN/rxxfWT8nEhzX/AAAAVNw5/frC+mIFQKN8HUuSHOxcAQAAoOLeWiQ39tuL6pcVAL+n+QcAAKAm+vKSgP0SAPyp8wMAAICa+GAjmS0AGKaR7JRknvMDAACAmpiW5IMCgFf6UMorAAAAAEBd/Em/vaCeDwFsJIuSHO7cAAAAoGYOKpJl/fJieroCoJHM1fwDAABQUx/rpxfT6y0A/5vzAQAAgJr640YyaeADgEYyJckfOR8AAACoqd2T/O7ABwBJ3pNkZ+cDAAAANfb7AoDk/c4DAAAAau59jf64Al9vXkTzzZ/kPAAAAKDmdk3yloENAJIcmXIvBAAAANTd+wY5ADjZ8QcAAEAAIAAAAACAuji4kRw4cAFAI9knyVzHHwAAgAHS8w/Ce7EC4H2OOwAAAANm3iAGAO9x3AEAABgwRzeSqQMTADSSIn1y+QMAAADooqlJ3jwwAUCS1yTZ2XEHAABgAL19kAIAn/4DAAAwqN4mAAAAAIABCAAavZnFJwAAAACALtoxyetrHwA0kilJfsfxBgAAYID1bA5AN1cAHJ4eX/IAAAAAeqxncwC6GQBY/g8AAIAAQAAAAAAAtfeaRrKHAAAAAADq7621DQAayZwkr3GMAQAAoDfbALq1AuANSQrHGAAAAHJknQOAwx1fAAAASJK8sZFMFgAAAABAvW2X5GABAAAAANTfEbULABrJ1CSvd2wBAACgxgFAkrnpwd4GAAAAEAB0NwA43HEFAACAlzm0kUwTAAAAAEC9TU7yOwIAAAAAqL+ubgPoaADQSIqUMwAAAACAugYASV6bZAfHFAAAAOodABzmeAIAAMBmHdjo4ofmnQ4ADnE8AQAAYIs9+eECAAAAAKi/rl0JQAAAAAAAAoCxa5TXNDzAsQQAAIAaBwDN5n+KYwkAAABbdEgjmVT1AMDyfwAAANi6aenS6vlOBgAHO44AAACwTV3ZBmAFAAAAAPTWYQIAAAAAqL+urAAoOvGkzSsArIkhgAAAALAtjxTJXp3+I51aAeAKAAAAADAyezaSnasaAFj+DwAAACPX8TkAnQoADnLsAAAAYMQ6Pgegk1sAAAAAgJGZW9UA4EDHDgAAAEas4yvpO3UVgGeS7Oj4AQAAwIisSjK7SBqd+gNtXwHQSHbR/AMAAMCo7JBkj07+gU5sAbD8HwAAAEavo9sABAAAAADQHw6uWgDgCgAAAAAwepVbASAAAAAAgNGr3AoAWwAAAACgzwKAtl4GsFE+35ok0x03AAAAGLVdi+SpTjxxu1cAvFrzDwAAAGPWsTkA7Q4A7P8HAACAsevYNoB2BwCvdawAAACg/gHA/o4VAAAAjFlltgAIAAAAAGDsOnZlvXYHAPs5VgAAADBmezWSaVUIAKwAAAAAgPH16ft36onbopHMSjLHsQIAAIBx6cgV9tq5AuA1jhEAAACMW0eusNfOAMD+fwAAABi/vl8BYP8/AAAADEAAYAUAAAAAjF/fbwGwAgAAAADGryOXArQCAAAAAPpLkQ4M2m9LANAon2cfxwgAAADaou1zANq1AmDPJFMdHwAAAKh3ALCvYwMAAAD1DwBe7dgAAABA/QMA+/8BAACgfdo+aN8KAAAAAOg/ezaSyQIAAAAAqLeJ7e612xUA7O3YAAAAQFu1dRuAFQAAAADQn/btqwCgkcxIMsdxAQAAgBoHALH8HwAAAAYiALD8HwAAANqv72YAWAEAAAAA7bdvvwUAVgAAAABA++3RSLbrpwDACgAAAABov6KdPbcVAAAAANC/9u2nAGAvxwMAAAA6om2DANsRAOzpeAAAAEBH7NMXAUAj2SHJ9o4HAAAAdMS+fREAxPJ/AAAA6KS2zd0bbwCwh2MBAAAAHdO2D94FAAAAANC/9my0Z36fAAAAAAD62OQku/VDAPAqxwIAAAA6qi3bAKwAAAAAAAGAAAAAAAB6rC1XAhAAAAAAQH/r7QqARlIk2d1xAAAAgBoHAEl2SrKd4wAAAAD1DgAs/wdgdN7xjmTnndUBAGB0ej4DQAAAwOiceGJy993JuecmU6eqBwDAyOzZGP8Mv3E9gf3/AIze7NnJ/PnJ4sXJKaeoBwDAtk1OsqsAAIBqOuCA5LLLkoULk7lz1QMAYOvGvQ1gPAHAruoPwLgdd1xy663JxRcnu/pPCwDAFuzZywBgN/UHoC0mTUpOOy1ZtqycDzBlipoAALzcqwQAANTHnDmb5gPMm6ceAACbjHsbvgAAgP5z4IHJFVckP/pRcuih6gEA0OMVADZqAtBZxx+fLFpUzgfYZRf1AAAGWW9WADSSiUl2Un8AOm7ofIAzzii/BwAYPD1bAbBzyhAAALpjxx2TCy9MlixJTjxRPQAAAUCXAgD7/wHojde9LvnBD8r5AIccoh4AwKDYrTG+bfxj/mX7/wHoraHzAXbeWT0AgLqblHI1ftcDACsAAOi9yZPL+QB33mk+AAAwCMY1CNAKAACqrzUfYPHi5L3vVQ8AoK7GNQfACgAA6uP1r0+uvLKcD3DwweoBAAgA2hAAWAEAQP86/vjkV79KLroomTVLPQCAurAFAABeYfLk5PTTk3vvLecDTHT1WgCg8nqyAmAXdQegEnbaadN8gPe8Rz0AgCrryQqAndQdgEo56KDkqquSK65I9t9fPQCAKrICAABGbN68ZOnScj7ADjuoBwBQJePajj/qAKCRTE4yU90BqKwpU8wHAACqaFwfxo9lBcDOSQp1B6Dydt65nA9w883JO96hHgBAv5vTSCZ1OwAAgPp44xuTa68t5wPst596AAD9qsg4ZvIJAACgZd68ZNky8wEAgH425m0AYwkAXAEAgPpqzQdYujQ57bRkwgQ1AQAGNgCwAgCA+ttjj+Tii8v5AMccox4AgAAAAGrtTW9KrruunA+w777qAQD02pgvBWgLAACMxLx5yR13JPPnJzNdDRcA6BkrAACg46ZNS849txwUaD4AACAAAICaa80HuOmm5G1vUw8AoLYBgC0AAJAkb35z8tOfJpddluyzj3oAALULAKwAAICWokhOOWXTfIAZM9QEAKhNALCjegPAMNOnb5oP8NGPlsEAAEBVA4BGMinJDuoNAFuw557Jd75Tzgd461vVAwBotx0bycSOBwBJZiXxkQYAbMsRRyTXX1/OB9h7b/UAANplYpI53QgALP8HgJFqzQdYujT5/OfLywgCAIzfmHrz0QYAs9UZAEZp+vTk/POTu+4yHwAAqEwAMEedAWCM9tqrnA9w443JUUepBwAgAACAWnvLW5Kf/Sz57neT3XdXDwBAAAAAtVUUyUc+ktxzTzkfYLvt1AQAEAAAQG1tv/3L5wMAAHSoNzcEEAD6watfXc4H+PGPk8MPVw8AoOcBgBUAANBJxx6b3HJLOR9gt93UAwDYHFsAAKAWJkx4+XyAqVPVBAAQAABAbc2YUc4HWLIkOeUU9QAAuhoAzFZnAOiy1742ueyy5JprksMOUw8AwAoAAKi1d70rWbSonA+w667qAQACAAEAANRWaz7AnXcm555rPgAADKY5jaToWADQfPId1BkA+sDs2cn8+cnixeYDAMDgmTSW/nw0KwBmJJmozgDQRw44oJwPsHBhMneuegDA4Bj1NoDRBAAz1RcA+tRxxyW33ppcfHGyyy7qAQD1N7uTAcAs9QWAPjZpUnLaaZvmA0yZoiYAUF8d3QJg/z8AVMGcOZvmA8ybpx4AUE+j/pDeCgAAqKsDD0yuuCL50Y+SQw9VDwAQAIyYFQAAUEXHH58sWmQ+AADUiy0AAMBmtOYDLFuWnHFG+T0AUGVWAAAAW7HjjsmFFyZLliQnnqgeACAAEAAAQK297nXJD35Qzgc45BD1AIDqsQUAABiF1nyAiy5KZs9WDwCoDisAAIBRmjw5Of305N57zQcAAAGAAAAAaq81H2Dx4uS971UPABAAAAC19vrXJ1deWc4HOOgg9QCA/mQGAADQJscfn/z61+V8gFmz1AMA+ktHVwD4Lz8ADJrh8wEmTlQTABiAAGCm+gLAgNppp03zAd7zHvUAgN6b2RhdTy8AAABG4aCDkquuSq64Itl/f/UAgN6ZkGT7TgUA26svAJAkmTcvWbq0nA+wgzFBANAjo9oGMKIAoJFMSjJVbQGA35oyxXwAAOitGW0PAEb7pADAANl553I+wM03J+94h3oAQPd0ZAuA5f8AwNa98Y3JtdeW8wH22089AKDzrAAAAHpo3rxk2TLzAQCgogGAFQAAwMi15gMsXZqcdloyYYKaAEBFAgArAACA0dtjj+Tii8v5AG9/u3oAQAUCACsAAICxe9Obkp/+tJwPsO++6gEAfRwAWAEAAIzfvHnJHXck8+cnM2eqBwD0YQBgBQAA0B7TpiXnnlsOCjQfAADGw2UAAYAKaM0HuOmm5G1vUw8A6JMAwBYAAKAz3vzmcj7AZZcl++yjHgAwcrYAAAAVUxTJKadsmg8ww2cPACAAAADqa/r0TfMBPvrRMhgAALoaAIjhAYDu2XPP5DvfKecDHH20egBAFwOA6eoKAHTdEUckN9xQzgfYe2/1AIAuBADT1BUA6InWfIClS5PPf768jCAA0LEAwAoAAKC3pk9Pzj8/uesu8wEAoDSqVNwKAACgWvbaq5wPcOONyVFHqQcAAgABAABQa295S/KznyXf/W6y++7qAYAAQAAAANRWUSQf+Uhyzz3lfIDttlMTAAbJqP7DJwAAAKpv++1fPh8AAAbDxEYyRQAAAAyeV7+6nA/w4x8nhx+uHgAMghGvAhAAAAD1c+yxyS23lPMBdttNPQCosxH36wIAAKCeJkx4+XyAqVPVBAABwNY0kiKjHCwAANA3Zswo5wMsWZKccop6ACAA2IqpGflKAQCA/vTa1yaXXZZcfXVy2GHqAYAAYDxPBgDQ99797mTRonI+wK67qgcAAgABAABQW635AHfemZx7rvkAAFRZW68CIAAAAOpp9uxk/vxk8WLzAQCoKisAAABG7IADyvkACxcmc+eqBwACAACAWjvuuOTWW5OLL0522UU9ABi4AMAlAAGAwTFpUnLaaZvmA0yZoiYADEwA4L96AMDgmTNn03yAefPUA4B+1dYhgMbiAgCD68ADkyuuSH70o+TQQ9UDgH4z4g/tBQAAACNx/PHJokXmAwBQ6wDAFgAAgGTTfIBly5Izzii/B4AaBQBWAAAADLXjjsmFFyZLliQnnqgeANQmALACAABgc173uuQHPyjnAxxyiHoAUPkAwAoAAICtac0HuOiiZPZs9QCgm0bcs1sBAADQDpMnJ6efntx7r/kAAHSTFQAAAD3Rmg+weHHy3veqBwCVCgCsAAAAGK3Xvz658srkiiuS17xGPQAQAAAA1Nq8ecnSpeV8gFmz1AOAdmvrDABbAAAAxmP4fICJE9UEgHaxAgAAoO/stFM5H+C225L3vEc9AOi7AMAKAACAdjr44OSqq8r5APvvrx4A9E0AYAUAAEAnDJ0PsMMO6gHAWLR1BoAAAACgU6ZMMR8AgHH9l0QAAABQJTvvXM4HuPnm5B3vUA8ARqqtKwAmqScAQJe88Y3JtdeW8wH22089ANiWES8dEwAAAPSjefOSZcvMBwCgbT27AAAAoF+15gMsXZqcdloyYYKaADBcW1cATFZPAIAe2mOP5OKLy/kAb3+7egAwlBUAAAC186Y3JT/9aTkfYN991QOAxAwAAIAamzcvueOOZP78ZOZM9QAYbFYAAADU2rRpybnnmg8AgBUAAAADYc89y/kAN92UvO1t6gEweKwAAAAYKG9+czkf4LLLkn32UQ+AweEqAAAAA6coklNO2TQfYMYMNQGoPysAAAAG1vTp5XyAZcuSj360DAYAqCszAAAABt6eeybf+U7y858nRx+tHgACAAEAAECtHXlkcsMN5XyAvfdWD4CaBQCNZERLvQQAAACDoDUfYOnS5POfT7bbTk0AahQCCAAAAHi56dOT889P7r7bfAAAAcAruAoAAEDd7LVXOR/gxhuTo45SD4BqG9EH9xPa9BgAAKroLW9Jfvaz5LvfTXbfXT0ABjwAmKiWAAA1VhTJRz6S3HOP+QAANTaSAMDGMACAQbD99uV8gLvuKucDAFAVbbsKgC0AAACD5NWvLucD/PjHyeGHqwfAAAUAVgAAAAyiY49NbrmlnA+w227qATAAAYAVAAAAg2rChJfPB5g6VU0ABAAAANTWjBnlfIAlS5JTTlEPgAqyBQAAgJF77WuTyy5Lrr46Oeww9QDoD1YAAADQIe9+d7JoUTkfYNdd1QOgJgGAFQAAAGzm/0k25wPceWdy7rnmAwAIAAAAqLXZs5P585PFi80HAKhqANCw/B8AgJE64IByPsDChcncueoBUKUAIAIAAABG67jjkltvTS6+ONllF/UAqEgAYPk/AACjN2lSctppm+YDTJmiJgB9HgBYAQAAwNjNmbNpPsC8eeoB0McBgBUAAACM34EHJldckfzoR8mhh6oHQA9YAQAAQPccf3yyaFE5H2DnndUDoD2sAAAAoA8NnQ9wxhnl9wD0PABoqCMAAAD0tY0jeZC4FQCA7tqwIfn2t5PPfCZ5+mn1AOiTAMAKAAAA2mfhwuSss5IlS9QCoMsBgC0AAAB03p13JiefnJxwguYfoEcBgC0AAAB0zvLlyZe/nHz1q8n69eoB0McBgBUAAACM3osvJpdckpx3XvLUU+oB0Fkj6t0FAAAAtNfVV5f7/BcvVguA7jADAACALrr77uTUU5Pjj9f8A/RhAGAGAAAA47NiRTJ/fnLhhcm6deoBUNEAwAoAAAC28H83NyaXXpqcfXby5JPqASAAAACgdq65ptznf9ttagFQkQBggjoBADBi99xT7vM/7jjNP0DFAgArAAAA2LY1a5KvfCX50pfs8wcQAAAAUL//S9nc53/OOckTT6gHQI0DAAAABtVPfpKceWby61+rBUAfK9oxA6CwAgAAYPA8/HDysY8l73qX5h+g/424b580wicr1BQAoOaeey654IJk/vzkhRfUA6AaXmpnALAxyUQ1BQCoqdY+/099Knn8cfUAqJYN7QwAXhIAAADU1E03lfv8f/5ztQCophdH+sAJ7XwyAAAqorXP/+ijNf8AAxIAjHQFAAAAdWCfP0DdtH0LAAAAVdZoJJdfnpx9dvLQQ+oBUB9WAAAA0HTzzeU+/xtvVAuAAQ4ARjIDQAAAAFBFv/lNuc//qKM0/wD1ZQsAAMDAev755OtfT77whWTNGvUAqLe2bgFwFQAAgCpo7fM/55zkwQfVA0AAMOoAwAoAAIB+94tfJGedldxwg1oADJYRbwEwAwAAoMoeeST5+MfLff6af4BBZAUAAECtrV2bfO1ryRe/mKxerR4Ag8sQQACA2lqwIPnkJ5MHHlALAFwGEACgdm65JTnmmOTkkzX/AHQkAHAVAACAXnr00XKf/5FHJtdfrx4ADGULAABA5dnnD8C2tXUIoBUAAADdtmBBcvrpyf33qwUAW7N+pA8cyRaADeoJANAlt96avPOd5T5/zT8A27ZOAAAAUCWPPbZpn/9116kHAG0PAEayBWC9egIAdMj69ck3v5l89rPJqlXqAUBPAwArAAAAOmHBguSMM5L77lMLADoeAIxkC4AVAAAA7bRoUXLsseU+f80/AAIAAICaeeaZ5MwzkyOOSK69Vj0A6GoAYAsAAECnbdiQfOMbyec+l6xcqR4A9G0AYAUAAMBYLVhQfup/771qAUBPAwBbAAAAOmHp0uS97y33+Wv+AeicF9oZANgCAAAwUs8+W37iP3ductVV6gFAp9kCAADQVa19/uefn6xYoR4ACAAAAGpn4cLyU//bb1cLAPo2ALAFAABgrJYtS046KTnhBM0/AAIAAIDaGbrP/8or1QOASgQAtgAAAIzUhg3Jt7+dfOYzydNPqwcAAgAAgNpZuDA566xkyRK1AKCSAcBItgAIAACAwXXXXcnJJ5f7/DX/APSftSN94EhWAKxTTwBg4Cxfnnz5y8lXv5qs93kIAH3r+XYGAGvVEwAYGC++mFxySXLeeclTT6kHAAMVALygngDAQLj66nKf/+LFagFAVYz4Q/uRzAAQAAAA9Xb33cmppybHH6/5B6BqrAAAANimFSuS+fOTCy9M1hl7BEAltXUIoAAAAKiXjRuTSy9Nzj47efJJ9QCgqjYUyYZ2BgCGAAIA9XHNNeU+/9tuUwsAqm5U/boZAADAYLjnnnKf/3HHaf4BqIvnR/NgWwAAgHpbsyb5yleSL33JPn8A6mZUKwAEAABAPbX2+Z9zTvLEE+oBQB21fQWAGQAAQLX85CfJmWcmv/61WgAgAGgyAwAAqI+HH04+9rHkXe/S/AMwCNq7BaBI1jWSjRlZWAAA0H3PPZdccEEyf37ygs8uABgYbd8CkCTrkkxTWwCgr7T2+X/qU8njj6sHAIOm7UMAk3IbgAAAAOgfN91U7vP/+c/VAoBB1fYZAIlBgABAv/jNb8p9/kcfrfkHQAAwCiNdASAAAAB6yz5/ABhudScCgOfVFQDoiUYjufzy5Oyzk4ceUg8AEAAAALVz883lPv8bb1QLAHilNaN58EhnADynrgBA17T2+R91lOYfANoUAIx0BYAAAADovOefT77+9eQLX0jWrFEPANi6jmwBEAAAAJ3T2ud/zjnJgw+qBwCMjBUAAECF/OIXyVlnJTfcoBYA0MEAwAwAAKA3Hnkk+fjHy33+mn8AGAtbAACAPrZ2bfK1ryVf/GKyerV6AMDYdWQLgMsAAgDjt2BB8slPJg88oBYAMH6jStJtAQAAOu+WW5JjjklOPlnzDwDtYwYAANAnHn203Od/5JHJ9derBwD0MAAwAwAAaL/165NvfjM57zz7/AGgM14okg0CAACgdxYsSE4/Pbn/frUAgM5ZM9pfsAUAAGiPW29N3vnOcp+/5h8ABAAAQM089timff7XXaceANAdo95j5zKAAMDYtPb5f/azyapV6gEA3bWyUwGA6T0AwCYLFiRnnJHcd59aAEBFAoCRbgEQAAAAyaJFybHHlvv8Nf8A0EsrBAAAQPs980xy5pnJEUck116rHgDQe53ZAlAkaxvJ+iRT1BgABsiGDck3vpF87nPJypXqAQB1DwCa1iTZUY0BYEAsWFB+6n/vvWoBADUIACaM4rHG+wLAIFi6NDnxxHKfv+YfAAQAAEDNPPts+Yn/3LnJD3+oHgBQswBgNFsADAIEgDpq7fM///xkxQr1AAABgBUAAFA7CxeWn/rffrtaAEDNAwBbAABgEN15Z3LSSckJJ2j+AUAAIAAAgNpp7fM/9NDkyivVAwAGKAAwAwAABsGGDcm3v5185jPJ00+rBwBU3woBAADwcgsXJmedlSxZohYAUA8bk6wZ7S/ZAgAAdXXXXcnJJ5f7/DX/AFAnq4qkMdpfchUAAKib5cuTL385+epXk/Xr1QMAahgAjOWXbAEAgLp48cXkkkuS885LnnpKPQCgvp7pdACwUo0BoE9dfXW5z3/xYrUAgPpbPpZfGs0MgBVqDAB95u67k1NPTY4/XvMPAIOj4ysABAAA0C9WrEjmz08uvDBZt049AGCwPNvpAGC5GgNAj23cmFx6aXL22cmTT6oHAAgABAAAUDvXXFPu87/tNrUAgMHW2RkARbI+yVp1BoAuu+eecp//ccdp/gGApAsrAJIyZZim1gDQBWvWJF/5SvKlL9nnDwD0JADYQ60BoINa+/zPOSd54gn1AAB6EgCsUGcA6KCf/KTc5/+rX6kFANDWAGDCKB9vECAAdMLDDycf+1jyrndp/gGAjgQAVgAAQC8991xywQXJ/PnJCy+oBwDQNwGAFQAA0A6tff6f+lTy+OPqAQCM1AvFGK/QZwUAAHTbTTclZ56Z/PznagEAjNYzY/3F0c4AEAAAwFj95jflPv+jj9b8AwBj9exYf9EWAADoNPv8AYD2GXNfbgsAAHRKo5Fcfnly9tnJQw+pBwDQDk91KwCwAgAARuLmm8t9/jfeqBYAQDs9PdZfHO0MgGfUGgC2orXP/6ijNP8AQCc8OdZfHO0KAAEAAGzO888nX/968oUvJGvWqAcA0Cld2wLwdJJGkkLNASCb9vmfc07y4IPqAQD0bQAwqi0ARbI+yWr1BoAkv/xlcswxyamnav4BgHoFAE22AQAw2B55JPn4x5O3vCW54Qb1AAC6acxDACeN8Y/tp+YADJy1a5OvfS354heT1RbEAQA90bUZAK0AAAAGy4IFySc/mTzwgFoAAL3UtcsAJrYAADBIbrml3Od/8smafwCg11Y2Z/N1LQCwAgCA+nv00XKf/5FHJtdfrx4AQD94ajy/PJYtAFYAAFBf69cn3/xmct559vkDAAMfAFgBAEA9LViQnH56cv/9agEA1C4AMAMAAG69NXnnO8t9/pp/AEAA8FtWAABQD08/nZx5ZrnP/7rr1AMAqHUAYAsAAIOntc//s59NVq1SDwCgKsbVjwsAABgsCxYkZ5yR3HefWgAAVfPYeH55rDMAGuoOQKUsWpQce2y5z1/zDwBU0xNdDQCKZH2SleoOQCU880y5z/+II5Jrr1UPAKDKxrUCYNIYf++JJLPVHoC+tWFD8o1vJJ/7XLJSbg0A1MLjvQoAXqf2APSlBQvKT/3vvVctAIC6WJdk+XieYMIYf+8JtQeg7yxdmpx4YrnPX/MPANTLE8U45/EJAACovmefLT/xnzs3+eEP1QMAqKPHx/sE49kCAAC91drnf/75yYoV6gEA1Nlj430CAQAA1bRwYfmp/+23qwUAMAjGvQLAFgAAquXOO5OTTkpOOEHzDwAIAAQAANROa5//oYcmV16pHgDAoBl3H24LAAD97cUXk0suST7zmeTpp9UDABhUhgACUGMLFyZnnZUsWaIWAMCgG/cQwDFtASiStUlWqz8AHXHXXcnJJ5f7/DX/AABJD2cAJFYBANBuy5cnn/50MndusmCBegAAtLEHnzTOP/5axwCAcWvt8z/vvOSpp9QDAODlnm2uxO9ZAPCkYwDAuF19dbnPf/FitQAA2LzftONJxrMF4DHHAIAxu/vu5NRTk+OP1/wDAGzdI+14kkm9fgEADJgVK5L585MLL0zWrVMPAIAKBACPOgYAjMqVVyYXXJA8/bRaAABUKACwAgCA0bnuOjUAABi9ns8AsAIAAAAAOq8tH8BP6PULAAAAALaqtysAimRFkuccBwAAAOionq8ASFwKEAAAADppbZE82w8BgG0AAAAA0Dlt67sFAAAAACAA2CZXAgAAAIDO+U27nkgAAAAAAP3LFgAAAAAYAG374N0KAAAAAOhfD/ZLAGAFAAAAAFQgACjG88uNZEqStRl/kAAAAAC80k5F8mw7nmhcjXuRrE/yhOMBAAAAbbemXc3/uAOApoccEwAAAGi7B9v5ZBP67QUBAAAA/RkAWAEAAAAAAgAAAACg1/22LQAAAADQn6wAAAAAAAFA9wMAKwAAAACgzwOAoh1P0khWJtnBsQEAAIC2WJ9kWpFsbNcTTmjT8zzs2AAAAEDb/KadzX87AwDbAAAAAKB92t5nCwAAAABAADBitgAAAABA+9zbrwHAA44NAAAAtM19/RoA3OfYAAAAQNv07QqAex0bAAAA6N8AoGjXEzWSFUlmOUYAAAAwLquLZId2P+mENj6XbQAAAAAwfh1ZZT+h318gAAAACAAEAAAAAFA3HVlhbwsAAAAA9BcrAAAAAGAA9P0KAAEAAAAA9Gl/3c7LAE5M8nySKY4VAAAAjMmLSaYXyYZ2P3HbVgAUyUtJHnSsAAAAYMwe6kTz39YAoOkexwoAAADGrGPb69sdALgSAAAAAIzdXVUJAKwAAAAAgLG7syoBwF2OFQAAANQ/AFjmWAEAAED/BQBFO5+sUQYKzyXZzjEDAACAUVmbZEaRbOzEk7d1BUDzRd7tmAEAAMCo3d2p5r/tAUCTbQAAAAAwend28sknVO0FAwAAgABAAAAAAAACgC4FALYAAAAAQJ8FAEW7n7CRzEiyqhPPDQAAADU2p0hWdOrJ274CoEjWJHnUcQMAAIARe7yTzX9HAoAm2wAAAABg5Do+T08AAAAAAAKA/n3hAAAAUCO3VzUAuN2xAwAAgBFbUtUA4DbHDgAAAEasmisAiuTpJI87fgAAALBNTxfJE5UMAJoWO4YAAACwTV3ZRi8AAAAAAAGAAAAAAAAEAAIAAAAAqEQAUHTqiRvJdknWJJnoWAIAAMAW7dIcpt9RHVsBUCQvJLnHcQQAAIAteqIbzX9HA4Am2wAAAABgy5Z06w8JAAAAAKB3bu/WHxIAAAAAgABg3G5zLAEAAGCLft2tP1R08skb5fM/m2S2YwoAAAAv81KSHYrk+W78sY6uACiSRpJFjikAAAC8wrJuNf8dDwCafumYAgAAwCv8qpt/rBsBwC2OKQAAAAgAAAAAQADQYUWn/0BzEODTSXZ0bAEAAOC3dinKfrkrOr4CwCBAAAAAeIWHu9n8dyUAaLINAAAAADb5Vbf/oAAAAAAABABt41KAAAAAMAABwP1JnnF8AQAAIEkPZuV1JQAwCBAAAAB+a0WSB2oZADT93DEGAACA3Nz8oLy2AcDPHGMAAADIzb34o90MAG5MstFxBgAAYMD9otYBQFHucbjDcQYAAEAAUOMAoOkGxxkAAIAB9lCRPCYAAAAAgHq7uVd/uNsBgEGAAAAADLJf9OoPdzUAKJJ706OlDgAAANAHBmYFQFJeDQAAAAAGzcYktw5SAGAOAAAAAINoaZGsEgAAAABAvd3cyz/eiwBgUZLVjjsAAAADpqeD8bseABTJ+iT/7rgDAAAwQBpJfjhQAUDT9x17AAAABsjNRfLIIAYAP0jyouMPAADAgLii1y+gJwFAkTwbwwABAAAYHD1fCT9hkN88AAAAdMGDRbJ4kAOA7zkHAAAAGAD/1g8vomcBQJHcm+QO5wEAAAA1d0U/vIgJPf77/6/zAAAAgBp7JslPBQDJd1NeCxEAAADq6J+LZP3ABwBFcneS650PAAAA1NS3++WFTFAMAAAA6IjFRbJIALDJZUlWOy8AAAComf+nn15MzwOAInkuyeXOCwAAAGpkQ5J/FgC8km0AAAAA1MmCInlKADBMUV4S4U7nBwAAADXRdx90T+ij1/J3zg8AAABq4MEkPxQAbNm3kqxwngAAAFBxFxbJiwKALSjKKwF8y3kCAABAhS1Pn03/77sAoOmiJOudLwAAAFTUN4s+vdR9XwUARfJo+uwyCQAAADBC65J8vV9f3IQ+fE1fTrLReQMAAEDF/FORPCYAGKEiWZbkKucNAAAAFdJI8tV+foET+vR1/bVzBwAAgApZUCS39/MLLPr1hTWSf0/yu84hAAAA+tzGJG8ukkX9/CIn9PFr+1TMAgAAAKD/XdrvzX/SxysAkqSRXJrkj5xLAAAA9Kn1SQ4qkvv6/YVO6PPX95mUl1EAAACAfvS3VWj++z4AKJIHklzsfAIAAKAPrU7ypaq82AkVeI1/lWSV8woAAIA+89dF8qQAoE2K5OkkFzivAAAA6COPJ7mwSi+4qMKLbCTTkixO8hrnGAAAAH3gw0U5uL4yqrAFIEWyNsmfO78AAADoAz9O8s9Ve9FFlV5soyzwHzrXAAAA6JG1SeYWyb1Ve+ETKvZ6z0qy3PkGAABAj/xVFZv/ygUARfJEkk873wAAAOiB21PhIfVF1V5wo3zN1yV5u3MPAACALtmY5B1FckNV30DVtgCkSBpJ/izJeucfAAAAXfKtKjf/lQwAmiHA7UnOc/4BAADQBfcm+VTV30RR1RfeKMOLq5Kc4FwEAACgQzYkOaZIbqr6G5lQ1RdelPsvPpJyMCAAAAB0wnl1aP6bfXS1NZL3JvlBHd4LAAAAfeXaJMcVyUt1eDMTqv4GiuSHSf7GeQkAAEAbLU/ykbo0/83+ufoaydSUSzJ+xzkKAABAG3ygSL5Xpzc0oQ5vokjWJflQkjXOUQAAAMbporo1/83euT4ayQeS/GtqEmwAAADQdQuTvLdIXqzbG6tVo1wk/5bk885XAAAAxuD+JH9Yx+a/2TPXS6N8T5cm+UPnLgAAACO0OsnRRXJ7Xd9gLS+d10impbxcwxHOYQAAALZhY5L3F8mCOr/JWu6VL5K1KecBPOI8BgAAYBvOqXvz3+yV66uRvDXJ1Um2cz4DAACwGd8ukv84CG+01tPyi+RnSU5NssE5DQAAwDDfT3LaoLzZ2l8ur0iuSPInKfd0AAAAQJJck+R/revE/4EMAJohwKVJ/sL5DQAAQJKbk3ygSF4YpDc9YVDeaJF8I8lnnOcAAAADbUmSE4vysn8DpRi0N9xI5ic51zkPAAAwcO5NckyRPDaIb34QA4Aiyd8m+TPnPgAAwMB4OMk7i+T+QS3AhEF7w0XSSPLnSS5w/gMAAAyE+5IcO8jN/0AGAK0QoEjOSfJp/x4AAADU2u0pl/3fN+iFKAa9AI3kPyf5WgY0DAEAAKixm1MO/HtGKQQArRDgw0m+nWSSagAAANTCNUneXyRrlEIAMDwEeF+Sf0mynWoAAABU2veS/EGRvKAUm1j23lQk309yUpJnVQMAAKCyvprkf9H8b7bvZahG8pqUadEhqgEAAFAZ65N8okguUQoBwGhCgJlJ/jHJ+1UDAACg7z2d5INFcq1SbJktAJtRJKuT/H6SvyzzAAAAAPrUr5O8WfM/ol6XrWkkf5ByCck01QAAAOgrlyf54yJ5Tim2zQqAbSiS/57k2CT3qwYAAEBf2JDk00lO1fyPqr9lJBrJDkn+JsmHVQMAAKBnHkjy4SK5QSlGxwqAESqSVUXykSSnJlmhIgAAAF33P5K8QfM/5r6W0Wok+yb5pyRvUw0AAICOW5XkPxdlH8YYWQEwBkW55OTYlFcJeElFAAAAOuamJG/U/Lell2U8GskxSS5OcpBqAAAAtM1zSc5PclGRvKgcAoB+CQEmJ/nzJF9Msr2KAAAAjMsPkvxFc/U1AoC+DAJek+Rvk/yuagAAAIzaY0k+XSTfVQoBQFWCgFOS/N9JdlUNAACAkbRR+bsk5xTlwD86wBDADijKS1MclHI2gL0qAAAAW3ZjkqOL5OOafwFAVUOAZ4vkz5IckjIQaKgKAADAby1LcmqStxXlpH8636fSDY3kiCTzk7xbNQAAgAH2SJL/M8klpvsLAOoeBByf5K+TvEE1AACAAbI8yZeTfK1I1iqHAGBQQoAJSf4gyblJDlMRAACgxp5JebW0rxZlCIAAYGDDgLc3g4CTHA8AAKBG7k9yUZK/L5LnlEMAwKYg4LAkZ6dcGTBZRQAAgIpalOTCJP9sj78AgK0HAXsnOSPJnyaZpSIAAEAFvJTkqiQXFMlPlEMAwOiCgKlJ3pfko0l+L8kkVQEAAPrMQ0n+W5JvFskDyiEAYPxhwJ5JPpxyVcABKgIAAPTQ2iQLknwrydVF0lASAQDtDwKKlEMD/yTJ+5PsqCoAAEAXvJjkuiTfTfKvRbJGSQQAdC8MmJjk6CTzUm4VOEhVAACANno+yTVJrkjyvSJ5QkkEAPRHILB/kpObgcCxMTMAAAAYvadSDvP7H0n+Z5GsUxIBAP0dBuyS5Jgkb0lyZJI3J5mhMgAAwDC/SXJ9kp81v/7Knn4BANUOBCYmObgZBrwhyeFJDksyU3UAAGBgrE3yqyS/THJjkuuL5GFlEQBQ/1BgQpLXNMOANzQDgoOT7BfbBwAAoOpeSHJbkluaDf8vk9xRlMP8EABA0kgmJ3l1kkOagcD+zftWDAAAQP/ZkPJT/DuS3N78ekuSZUXykvIgAGCs4cDeSV6X8ooDBzXvvy7JHqoDAAAd9WKSu5tN/tDb3UUZAoAAgK4EA9ul3DqwX5J9h9xv3eaoEgAAjMgTSe5Lcm/ztjTlp/p3Fsl65UEAQBUCgj1SbicYfjswthYAADA4XkzyULPJH367u0hWKRECAOocEOzSDAhe3fy655D7ezW/n61SAABUxNMpL6/X+iR/6Cf6DxnEhwAAth4StFYR7JHkVUO+7j/k/j4pL3kIAACd8kKSR5tN/WObue9TfAQA0IWQYHLK1QS7NQOB1v3dk+za/Lpb8+e7Ov8BABhmZcpP7h9qfm3df6R5/8EieV6ZEABAtcKCic0QoLX9YOj94SHCTinDBQAAqmdtksebtydTfkr/xJD7T6b89P6JonwsCABgwAODHZphwM7NQKD1tXV/l838XGgAANAZ61Lus3+s2dg/lfJT+ieHN/tFslq5QAAA3QgNdt1MMND6fseUl0hs3WY3v/r3EgAYJBuSPNNs6Ftfn2ze3+zPi2SNsoEAAOoQHMweEgYMDwe29b1VBwBAL61MsiLJ8iFfn9laQ29gHggAgLGFBzOGBAKzUq5CaN3mDPu+dZvVfPzM5vfbqSQADKwNm2ngh3/d0v0VRbJRCUEAAFQnRJgyytBgesrgYVbz/vbN+zNiRQIAdNOalPvdVzW/rhhyf+jXFc37q1N+Yv/bJt7SehAAAIw1TJi8lXBgeHAwvRkqbO2fTW3eB4A6eKnZkK9JOX1+9bD7K4c07kOb9+E/W5Xy0/eGkgICAKBuwcLMlCsVZqXcsjAt5cqE1uqFac2fz2r+rLVSYWozSJjSDBi2b96f0/y6faxcAOCVVid5MeUn5etSXgd+RbNRX9v8+QtD7rd+vqL52LXNZn7o/eeKZL3SAgIAgN6HDLOb/xs5p/mjoV+LbPrnQ79OaIYOw79ObAYTra+TmqHE8K8AjEzrk/NGs8nekPKT81YT/lzK5npl87Ermg386iENfOsxq5qPWT7keVuPeb4o7wMIAADoWPDQWsXQCg0yJCxorVZIXvn4VuiQbFrNsLXHZ0g4MfRvDP19gDSb6daAt+XNrxubP8+QJrzVlCebPjlf22zOW48Z+hytx7Sa91ajPvQxa5q/+0JRPgYAAQAAHQomWtslMiw8aG3BSF4+o2Fo6NCaBZG8PNAY/lzDn2/48ySvXC0x/PlaqzGGmj3sv3eCDbql9QnzSL9/Pi//tHlb37ea6s19P7QJb32qnWENeOtT7uG/O/R1rS7KhhwAAQAA1EPjleHDlkKHoeZs4edDV1IMN3sU//3dXKCxNVXcTrJ8lI9f32xQR2po8zvskP+2QR5uRTY/TK21VHy4NUXZWAMAAAAAAAAAAECH/f8CPF3+KmGQ3AAAACV0RVh0ZGF0ZTpjcmVhdGUAMjAyMS0xMC0xNVQwNzo1MTowOSswMDowMPVSq9YAAAAldEVYdGRhdGU6bW9kaWZ5ADIwMjEtMTAtMTVUMDc6NTE6MDkrMDA6MDCEDxNqAAAAAElFTkSuQmCC;" vertex="1" parent="cGCoYNdKHb_dJwUcVTwO-15">
          <mxGeometry width="60" height="41.48" as="geometry" />
        </mxCell>
        <UserObject label="&lt;a href=&quot;https://youtu.be/8uyemEfgcY8&quot;&gt;YouTube&lt;/a&gt;" linkTarget="_blank" id="cGCoYNdKHb_dJwUcVTwO-17">
          <mxCell style="text;html=1;strokeColor=none;fillColor=none;whiteSpace=wrap;align=center;verticalAlign=middle;fontColor=#0000EE;fontStyle=4;fontSize=21;" vertex="1" parent="cGCoYNdKHb_dJwUcVTwO-15">
            <mxGeometry x="66" y="0.7400000000000091" width="77" height="40" as="geometry" />
          </mxCell>
        </UserObject>
        <mxCell id="cGCoYNdKHb_dJwUcVTwO-18" value="Workshops, Code Samples, Example Architecture" style="rounded=1;whiteSpace=wrap;html=1;fontSize=21;fontStyle=0" vertex="1" parent="1">
          <mxGeometry x="420" y="2595" width="150" height="125" as="geometry" />
        </mxCell>
        <mxCell id="cGCoYNdKHb_dJwUcVTwO-19" value="" style="endArrow=classic;html=1;rounded=0;fontSize=21;" edge="1" parent="1">
          <mxGeometry width="50" height="50" relative="1" as="geometry">
            <mxPoint x="600" y="2656.6700000000005" as="sourcePoint" />
            <mxPoint x="860" y="2657.08" as="targetPoint" />
          </mxGeometry>
        </mxCell>
        <mxCell id="cGCoYNdKHb_dJwUcVTwO-20" value="Are you looking for workshops re. Log Analytics on OpenSearch?&amp;nbsp;" style="rounded=1;whiteSpace=wrap;html=1;fontSize=21;" vertex="1" parent="1">
          <mxGeometry x="898" y="2607.5" width="310" height="100" as="geometry" />
        </mxCell>
        <mxCell id="cGCoYNdKHb_dJwUcVTwO-21" value="Yes" style="rounded=1;whiteSpace=wrap;html=1;fontSize=21;" vertex="1" parent="1">
          <mxGeometry x="980" y="2760" width="170" height="80" as="geometry" />
        </mxCell>
        <mxCell id="cGCoYNdKHb_dJwUcVTwO-22" value="" style="endArrow=classic;html=1;rounded=0;fontSize=21;" edge="1" parent="1">
          <mxGeometry width="50" height="50" relative="1" as="geometry">
            <mxPoint x="1059.7600000000002" y="2720" as="sourcePoint" />
            <mxPoint x="1059.7600000000002" y="2750" as="targetPoint" />
          </mxGeometry>
        </mxCell>
        <mxCell id="cGCoYNdKHb_dJwUcVTwO-23" value="" style="endArrow=classic;html=1;rounded=0;fontSize=21;" edge="1" parent="1">
          <mxGeometry width="50" height="50" relative="1" as="geometry">
            <mxPoint x="1059.7600000000002" y="2860" as="sourcePoint" />
            <mxPoint x="1060" y="2920" as="targetPoint" />
          </mxGeometry>
        </mxCell>
        <mxCell id="cGCoYNdKHb_dJwUcVTwO-24" value="&lt;p class=&quot;MsoNormal&quot;&gt;Workshops are available&lt;br/&gt;for the following topics: Log Analytics, CloudWatch Log Collection, Fluentd Log&lt;br/&gt;Ingestion, Cross Cluster Replication, Anomaly Detection, Alerting &lt;/p&gt;" style="rounded=1;whiteSpace=wrap;html=1;fontSize=21;" vertex="1" parent="1">
          <mxGeometry x="920" y="2930" width="312.5" height="200" as="geometry" />
        </mxCell>
        <mxCell id="cGCoYNdKHb_dJwUcVTwO-25" value="" style="group" vertex="1" connectable="0" parent="1">
          <mxGeometry x="1220" y="2890" width="123" height="55" as="geometry" />
        </mxCell>
        <UserObject label="GitHub" link="https://github.com/ev2900/OpenSearch_Log_Analytics" linkTarget="_blank" id="cGCoYNdKHb_dJwUcVTwO-26">
          <mxCell style="text;html=1;strokeColor=none;fillColor=none;whiteSpace=wrap;align=center;verticalAlign=middle;fontColor=#0000EE;fontStyle=4;fontSize=21;" vertex="1" parent="cGCoYNdKHb_dJwUcVTwO-25">
            <mxGeometry x="63" y="7.5" width="60" height="40" as="geometry" />
          </mxCell>
        </UserObject>
        <mxCell id="cGCoYNdKHb_dJwUcVTwO-27" value="" style="dashed=0;outlineConnect=0;html=1;align=center;labelPosition=center;verticalLabelPosition=bottom;verticalAlign=top;shape=mxgraph.weblogos.github;fontSize=21;" vertex="1" parent="cGCoYNdKHb_dJwUcVTwO-25">
          <mxGeometry width="55" height="55" as="geometry" />
        </mxCell>
        <mxCell id="cGCoYNdKHb_dJwUcVTwO-28" value="No" style="rounded=1;whiteSpace=wrap;html=1;fontSize=21;" vertex="1" parent="1">
          <mxGeometry x="1360.5" y="2612.5" width="170" height="80" as="geometry" />
        </mxCell>
        <mxCell id="cGCoYNdKHb_dJwUcVTwO-29" value="" style="endArrow=classic;html=1;rounded=0;fontSize=21;" edge="1" parent="1">
          <mxGeometry width="50" height="50" relative="1" as="geometry">
            <mxPoint x="1230.5" y="2652.2599999999998" as="sourcePoint" />
            <mxPoint x="1340.5" y="2652.5" as="targetPoint" />
          </mxGeometry>
        </mxCell>
        <mxCell id="cGCoYNdKHb_dJwUcVTwO-30" value="Are you looking for example OpenSearch architecture? ie. OpenSearch working with other services" style="rounded=1;whiteSpace=wrap;html=1;fontSize=21;" vertex="1" parent="1">
          <mxGeometry x="1690.5" y="2607.5" width="310" height="112.5" as="geometry" />
        </mxCell>
        <mxCell id="cGCoYNdKHb_dJwUcVTwO-31" value="" style="endArrow=classic;html=1;rounded=0;fontSize=21;" edge="1" parent="1">
          <mxGeometry width="50" height="50" relative="1" as="geometry">
            <mxPoint x="1550.5" y="2651.67" as="sourcePoint" />
            <mxPoint x="1670.5" y="2651.67" as="targetPoint" />
          </mxGeometry>
        </mxCell>
        <mxCell id="cGCoYNdKHb_dJwUcVTwO-35" value="" style="group" vertex="1" connectable="0" parent="1">
          <mxGeometry x="1222" y="2955" width="166.5" height="52.5" as="geometry" />
        </mxCell>
        <mxCell id="cGCoYNdKHb_dJwUcVTwO-32" value="Web Page" style="ellipse;whiteSpace=wrap;html=1;aspect=fixed;" vertex="1" parent="cGCoYNdKHb_dJwUcVTwO-35">
          <mxGeometry width="52.5" height="52.5" as="geometry" />
        </mxCell>
        <UserObject label="Workshops" link="https://sharkech-public.s3.amazonaws.com/opensearch-log-analytics/workshop/index.html" linkTarget="_blank" id="cGCoYNdKHb_dJwUcVTwO-33">
          <mxCell style="text;html=1;strokeColor=none;fillColor=none;whiteSpace=wrap;align=center;verticalAlign=middle;fontColor=#0000EE;fontStyle=4;fontSize=21;" vertex="1" parent="cGCoYNdKHb_dJwUcVTwO-35">
            <mxGeometry x="57" y="2" width="109.5" height="40" as="geometry" />
          </mxCell>
        </UserObject>
        <mxCell id="cGCoYNdKHb_dJwUcVTwO-36" value="" style="endArrow=classic;html=1;rounded=0;" edge="1" parent="1">
          <mxGeometry width="50" height="50" relative="1" as="geometry">
            <mxPoint x="250" y="450" as="sourcePoint" />
            <mxPoint x="500" y="2580" as="targetPoint" />
            <Array as="points">
              <mxPoint x="260" y="1600" />
              <mxPoint x="330" y="2120" />
            </Array>
          </mxGeometry>
        </mxCell>
        <mxCell id="cGCoYNdKHb_dJwUcVTwO-37" value="Yes" style="rounded=1;whiteSpace=wrap;html=1;fontSize=21;" vertex="1" parent="1">
          <mxGeometry x="1760" y="2770" width="170" height="80" as="geometry" />
        </mxCell>
        <mxCell id="cGCoYNdKHb_dJwUcVTwO-38" value="" style="endArrow=classic;html=1;rounded=0;fontSize=21;" edge="1" parent="1">
          <mxGeometry width="50" height="50" relative="1" as="geometry">
            <mxPoint x="1839.7600000000002" y="2730" as="sourcePoint" />
            <mxPoint x="1839.7600000000002" y="2760" as="targetPoint" />
          </mxGeometry>
        </mxCell>
        <mxCell id="cGCoYNdKHb_dJwUcVTwO-39" value="" style="endArrow=classic;html=1;rounded=0;fontSize=21;" edge="1" parent="1">
          <mxGeometry width="50" height="50" relative="1" as="geometry">
            <mxPoint x="1839.7600000000002" y="2870" as="sourcePoint" />
            <mxPoint x="1840" y="2930" as="targetPoint" />
          </mxGeometry>
        </mxCell>
        <mxCell id="cGCoYNdKHb_dJwUcVTwO-40" value="&lt;p class=&quot;MsoNormal&quot;&gt;Integrate DynamoDB with&lt;br/&gt;OpenSearch. Use the DynamoDB change stream(s) to sync data in real-time with OpenSearch&lt;/p&gt;" style="rounded=1;whiteSpace=wrap;html=1;fontSize=21;" vertex="1" parent="1">
          <mxGeometry x="1700" y="2940" width="312.5" height="155" as="geometry" />
        </mxCell>
        <mxCell id="cGCoYNdKHb_dJwUcVTwO-41" value="" style="group" vertex="1" connectable="0" parent="1">
          <mxGeometry x="1989" y="2917" width="123" height="55" as="geometry" />
        </mxCell>
        <UserObject label="GitHub" link="https://github.com/ev2900/OpenSearch_DynamoDB_Example" linkTarget="_blank" id="cGCoYNdKHb_dJwUcVTwO-42">
          <mxCell style="text;html=1;strokeColor=none;fillColor=none;whiteSpace=wrap;align=center;verticalAlign=middle;fontColor=#0000EE;fontStyle=4;fontSize=21;" vertex="1" parent="cGCoYNdKHb_dJwUcVTwO-41">
            <mxGeometry x="63" y="7.5" width="60" height="40" as="geometry" />
          </mxCell>
        </UserObject>
        <mxCell id="cGCoYNdKHb_dJwUcVTwO-43" value="" style="dashed=0;outlineConnect=0;html=1;align=center;labelPosition=center;verticalLabelPosition=bottom;verticalAlign=top;shape=mxgraph.weblogos.github;fontSize=21;" vertex="1" parent="cGCoYNdKHb_dJwUcVTwO-41">
          <mxGeometry width="55" height="55" as="geometry" />
        </mxCell>
        <mxCell id="cGCoYNdKHb_dJwUcVTwO-47" value="" style="endArrow=classic;html=1;rounded=0;fontSize=21;" edge="1" parent="1">
          <mxGeometry width="50" height="50" relative="1" as="geometry">
            <mxPoint x="1750" y="2820" as="sourcePoint" />
            <mxPoint x="1680" y="3240" as="targetPoint" />
            <Array as="points">
              <mxPoint x="1620" y="2820" />
              <mxPoint x="1620" y="3240" />
            </Array>
          </mxGeometry>
        </mxCell>
        <mxCell id="cGCoYNdKHb_dJwUcVTwO-48" value="&lt;p class=&quot;MsoNormal&quot;&gt;Integrate Kafka with&lt;br&gt;OpenSearch. Use a Lambda function to stream data from Kafka into an OpenSearch&lt;br&gt;index. Use OpenSearch anomaly detection on the data streamed to OpenSearch&lt;/p&gt;" style="rounded=1;whiteSpace=wrap;html=1;fontSize=21;" vertex="1" parent="1">
          <mxGeometry x="1700" y="3155" width="312.5" height="195" as="geometry" />
        </mxCell>
        <mxCell id="cGCoYNdKHb_dJwUcVTwO-49" value="" style="group" vertex="1" connectable="0" parent="1">
          <mxGeometry x="1989" y="3132" width="123" height="55" as="geometry" />
        </mxCell>
        <UserObject label="GitHub" link="https://github.com/ev2900/OpenSearch_Kafka_Anomaly_Detection" linkTarget="_blank" id="cGCoYNdKHb_dJwUcVTwO-50">
          <mxCell style="text;html=1;strokeColor=none;fillColor=none;whiteSpace=wrap;align=center;verticalAlign=middle;fontColor=#0000EE;fontStyle=4;fontSize=21;" vertex="1" parent="cGCoYNdKHb_dJwUcVTwO-49">
            <mxGeometry x="63" y="7.5" width="60" height="40" as="geometry" />
          </mxCell>
        </UserObject>
        <mxCell id="cGCoYNdKHb_dJwUcVTwO-51" value="" style="dashed=0;outlineConnect=0;html=1;align=center;labelPosition=center;verticalLabelPosition=bottom;verticalAlign=top;shape=mxgraph.weblogos.github;fontSize=21;" vertex="1" parent="cGCoYNdKHb_dJwUcVTwO-49">
          <mxGeometry width="55" height="55" as="geometry" />
        </mxCell>
        <mxCell id="cGCoYNdKHb_dJwUcVTwO-52" value="No" style="rounded=1;whiteSpace=wrap;html=1;fontSize=21;" vertex="1" parent="1">
          <mxGeometry x="2149.5" y="2619.5" width="170" height="80" as="geometry" />
        </mxCell>
        <mxCell id="cGCoYNdKHb_dJwUcVTwO-53" value="" style="endArrow=classic;html=1;rounded=0;fontSize=21;" edge="1" parent="1">
          <mxGeometry width="50" height="50" relative="1" as="geometry">
            <mxPoint x="2019.5" y="2659.2599999999998" as="sourcePoint" />
            <mxPoint x="2129.5" y="2659.5" as="targetPoint" />
          </mxGeometry>
        </mxCell>
        <mxCell id="cGCoYNdKHb_dJwUcVTwO-54" value="Are you looking for example Python scripts that call the OpenSearch APIs for common tasks such as loading sample data?" style="rounded=1;whiteSpace=wrap;html=1;fontSize=21;" vertex="1" parent="1">
          <mxGeometry x="2479.5" y="2614.5" width="310" height="145.5" as="geometry" />
        </mxCell>
        <mxCell id="cGCoYNdKHb_dJwUcVTwO-55" value="" style="endArrow=classic;html=1;rounded=0;fontSize=21;" edge="1" parent="1">
          <mxGeometry width="50" height="50" relative="1" as="geometry">
            <mxPoint x="2339.5" y="2658.67" as="sourcePoint" />
            <mxPoint x="2459.5" y="2658.67" as="targetPoint" />
          </mxGeometry>
        </mxCell>
        <mxCell id="cGCoYNdKHb_dJwUcVTwO-56" value="Yes" style="rounded=1;whiteSpace=wrap;html=1;fontSize=21;" vertex="1" parent="1">
          <mxGeometry x="2550" y="2810" width="170" height="80" as="geometry" />
        </mxCell>
        <mxCell id="cGCoYNdKHb_dJwUcVTwO-57" value="" style="endArrow=classic;html=1;rounded=0;fontSize=21;" edge="1" parent="1">
          <mxGeometry width="50" height="50" relative="1" as="geometry">
            <mxPoint x="2629.76" y="2770" as="sourcePoint" />
            <mxPoint x="2629.76" y="2800" as="targetPoint" />
          </mxGeometry>
        </mxCell>
        <mxCell id="cGCoYNdKHb_dJwUcVTwO-58" value="" style="endArrow=classic;html=1;rounded=0;fontSize=21;" edge="1" parent="1">
          <mxGeometry width="50" height="50" relative="1" as="geometry">
            <mxPoint x="2629.76" y="2910" as="sourcePoint" />
            <mxPoint x="2630" y="2970" as="targetPoint" />
          </mxGeometry>
        </mxCell>
        <mxCell id="cGCoYNdKHb_dJwUcVTwO-59" value="Python scripts that use the OpenSearch APIs to set up alert, anomaly detection, cross cluster replication, loading sample log data" style="rounded=1;whiteSpace=wrap;html=1;fontSize=21;" vertex="1" parent="1">
          <mxGeometry x="2490" y="2980" width="312.5" height="150" as="geometry" />
        </mxCell>
        <mxCell id="cGCoYNdKHb_dJwUcVTwO-60" value="" style="group" vertex="1" connectable="0" parent="1">
          <mxGeometry x="2790" y="2960" width="123" height="55" as="geometry" />
        </mxCell>
        <UserObject label="GitHub" link="https://github.com/ev2900/OpenSearch_API_Examples" linkTarget="_blank" id="cGCoYNdKHb_dJwUcVTwO-61">
          <mxCell style="text;html=1;strokeColor=none;fillColor=none;whiteSpace=wrap;align=center;verticalAlign=middle;fontColor=#0000EE;fontStyle=4;fontSize=21;" vertex="1" parent="cGCoYNdKHb_dJwUcVTwO-60">
            <mxGeometry x="63" y="7.5" width="60" height="40" as="geometry" />
          </mxCell>
        </UserObject>
        <mxCell id="cGCoYNdKHb_dJwUcVTwO-62" value="" style="dashed=0;outlineConnect=0;html=1;align=center;labelPosition=center;verticalLabelPosition=bottom;verticalAlign=top;shape=mxgraph.weblogos.github;fontSize=21;" vertex="1" parent="cGCoYNdKHb_dJwUcVTwO-60">
          <mxGeometry width="55" height="55" as="geometry" />
        </mxCell>
        <mxCell id="cGCoYNdKHb_dJwUcVTwO-80" value="&lt;p class=&quot;MsoNormal&quot;&gt;Hosting &amp;amp; Infrastructure&lt;/p&gt;" style="rounded=1;whiteSpace=wrap;html=1;fontSize=21;fontStyle=0" vertex="1" parent="1">
          <mxGeometry x="421" y="3407.5" width="150" height="125" as="geometry" />
        </mxCell>
        <mxCell id="cGCoYNdKHb_dJwUcVTwO-81" value="" style="endArrow=classic;html=1;rounded=0;fontSize=21;" edge="1" parent="1">
          <mxGeometry width="50" height="50" relative="1" as="geometry">
            <mxPoint x="601" y="3469.1700000000005" as="sourcePoint" />
            <mxPoint x="861" y="3469.58" as="targetPoint" />
          </mxGeometry>
        </mxCell>
        <mxCell id="cGCoYNdKHb_dJwUcVTwO-82" value="&lt;p class=&quot;MsoNormal&quot;&gt;Are you trying to host&lt;br/&gt;OpenSearch dashboard in a container and connect it remotely to an OpenSearch&lt;br/&gt;domain? &lt;/p&gt;" style="rounded=1;whiteSpace=wrap;html=1;fontSize=21;" vertex="1" parent="1">
          <mxGeometry x="899" y="3420" width="310" height="130" as="geometry" />
        </mxCell>
        <mxCell id="cGCoYNdKHb_dJwUcVTwO-83" value="Yes" style="rounded=1;whiteSpace=wrap;html=1;fontSize=21;" vertex="1" parent="1">
          <mxGeometry x="980" y="3604" width="170" height="80" as="geometry" />
        </mxCell>
        <mxCell id="cGCoYNdKHb_dJwUcVTwO-84" value="" style="endArrow=classic;html=1;rounded=0;fontSize=21;" edge="1" parent="1">
          <mxGeometry width="50" height="50" relative="1" as="geometry">
            <mxPoint x="1059.7600000000002" y="3564" as="sourcePoint" />
            <mxPoint x="1059.7600000000002" y="3594" as="targetPoint" />
          </mxGeometry>
        </mxCell>
        <mxCell id="cGCoYNdKHb_dJwUcVTwO-85" value="" style="endArrow=classic;html=1;rounded=0;fontSize=21;" edge="1" parent="1">
          <mxGeometry width="50" height="50" relative="1" as="geometry">
            <mxPoint x="1059.7600000000002" y="3704" as="sourcePoint" />
            <mxPoint x="1060" y="3764" as="targetPoint" />
          </mxGeometry>
        </mxCell>
        <mxCell id="cGCoYNdKHb_dJwUcVTwO-86" value="&lt;p class=&quot;MsoNormal&quot;&gt;Host OpenSearch&lt;br/&gt;dashboard service locally via. docker or on Amazon ECS Fargate. Connect remotely&lt;br/&gt;to an OpenSearch domain with or without SSL enabled&amp;nbsp; &lt;/p&gt;" style="rounded=1;whiteSpace=wrap;html=1;fontSize=21;" vertex="1" parent="1">
          <mxGeometry x="920" y="3774" width="312.5" height="166" as="geometry" />
        </mxCell>
        <mxCell id="cGCoYNdKHb_dJwUcVTwO-87" value="" style="group" vertex="1" connectable="0" parent="1">
          <mxGeometry x="1220" y="3750" width="123" height="55" as="geometry" />
        </mxCell>
        <UserObject label="GitHub" link="https://github.com/ev2900/OpenSearch_Local_Dashboard_Server" linkTarget="_blank" id="cGCoYNdKHb_dJwUcVTwO-88">
          <mxCell style="text;html=1;strokeColor=none;fillColor=none;whiteSpace=wrap;align=center;verticalAlign=middle;fontColor=#0000EE;fontStyle=4;fontSize=21;" vertex="1" parent="cGCoYNdKHb_dJwUcVTwO-87">
            <mxGeometry x="63" y="7.5" width="60" height="40" as="geometry" />
          </mxCell>
        </UserObject>
        <mxCell id="cGCoYNdKHb_dJwUcVTwO-89" value="" style="dashed=0;outlineConnect=0;html=1;align=center;labelPosition=center;verticalLabelPosition=bottom;verticalAlign=top;shape=mxgraph.weblogos.github;fontSize=21;" vertex="1" parent="cGCoYNdKHb_dJwUcVTwO-87">
          <mxGeometry width="55" height="55" as="geometry" />
        </mxCell>
        <mxCell id="cGCoYNdKHb_dJwUcVTwO-94" value="" style="endArrow=classic;html=1;rounded=0;" edge="1" parent="1">
          <mxGeometry width="50" height="50" relative="1" as="geometry">
            <mxPoint x="220" y="450" as="sourcePoint" />
            <mxPoint x="510" y="3390" as="targetPoint" />
            <Array as="points">
              <mxPoint x="240" y="2230" />
            </Array>
          </mxGeometry>
        </mxCell>
      </root>
    </mxGraphModel>
  </diagram>
</mxfile>
